SplineFontDB: 3.2
FontName: KS_MeldirRegular
FullName: KS_Meldir Regular
FamilyName: KS_Meldir
Weight: Book
Copyright: ACQ\n
Version: 0.001
ItalicAngle: 0
UnderlinePosition: 0
UnderlineWidth: 0
Ascent: 819
Descent: 205
InvalidEm: 0
sfntRevision: 0x00010000
LayerCount: 2
Layer: 0 1 "Back" 1
Layer: 1 1 "Fore" 0
XUID: [1021 75 1867564534 22466]
StyleMap: 0x0040
FSType: 0
OS2Version: 3
OS2_WeightWidthSlopeOnly: 0
OS2_UseTypoMetrics: 0
CreationTime: 1705262465
ModificationTime: 1705316670
PfmFamily: 17
TTFWeight: 400
TTFWidth: 5
LineGap: 0
VLineGap: 0
Panose: 2 0 5 4 3 0 0 2 0 4
OS2TypoAscent: 1550
OS2TypoAOffset: 0
OS2TypoDescent: -440
OS2TypoDOffset: 0
OS2TypoLinegap: 0
OS2WinAscent: 1011
OS2WinAOffset: 0
OS2WinDescent: 256
OS2WinDOffset: 0
HheadAscent: 1550
HheadAOffset: 0
HheadDescent: -440
HheadDOffset: 0
OS2SubXSize: 650
OS2SubYSize: 699
OS2SubXOff: 0
OS2SubYOff: 140
OS2SupXSize: 650
OS2SupYSize: 699
OS2SupXOff: 0
OS2SupYOff: 479
OS2StrikeYSize: 49
OS2StrikeYPos: 258
OS2CapHeight: 717
OS2XHeight: 502
OS2Vendor: 'XXXX'
OS2CodePages: 00000001.00000000
OS2UnicodeRanges: 8000002f.00014c0b.00000000.00000000
DEI: 91125
ShortTable: maxp 16
  1
  0
  454
  582
  16
  0
  0
  2
  0
  1
  1
  0
  64
  0
  0
  0
EndShort

StartChar: exclam
Encoding: 33 33 4
Width: 247
GlyphClass: 1
Flags: W
LayerCount: 2
Fore
SplineSet
91 205 m 1,0,-1
 60 768 l 1,1,-1
 187 768 l 1,2,-1
 157 205 l 1,3,-1
 91 205 l 1,0,-1
81 88 m 1,4,-1
 167 88 l 1,5,-1
 167 0 l 1,6,-1
 81 0 l 1,7,-1
 81 88 l 1,4,-1
EndSplineSet
Validated: 1
EndChar

StartChar: quotedbl
Encoding: 34 34 5
Width: 411
GlyphClass: 1
Flags: W
LayerCount: 2
Fore
SplineSet
297 461 m 1,0,-1
 276 768 l 1,1,-1
 371 768 l 1,2,-1
 350 461 l 1,3,-1
 297 461 l 1,0,-1
61 461 m 1,4,-1
 41 768 l 1,5,-1
 137 768 l 1,6,-1
 117 461 l 1,7,-1
 61 461 l 1,4,-1
EndSplineSet
Validated: 1
EndChar

StartChar: numbersign
Encoding: 35 35 6
Width: 720
GlyphClass: 1
Flags: W
LayerCount: 2
Fore
SplineSet
648 717 m 1,0,-1
 572 519 l 1,1,-1
 688 519 l 1,2,-1
 658 433 l 1,3,-1
 540 433 l 1,4,-1
 490 307 l 1,5,-1
 622 307 l 1,6,-1
 583 221 l 1,7,-1
 458 221 l 1,8,-1
 369 -11 l 1,9,-1
 287 -11 l 1,10,-1
 376 221 l 1,11,-1
 240 221 l 1,12,-1
 151 -11 l 1,13,-1
 69 -11 l 1,14,-1
 157 221 l 1,15,-1
 34 221 l 1,16,-1
 72 307 l 1,17,-1
 189 307 l 1,18,-1
 239 433 l 1,19,-1
 110 433 l 1,20,-1
 139 519 l 1,21,-1
 271 519 l 1,22,-1
 347 717 l 1,23,-1
 429 717 l 1,24,-1
 353 519 l 1,25,-1
 489 519 l 1,26,-1
 566 717 l 1,27,-1
 648 717 l 1,0,-1
272 307 m 1,28,-1
 408 307 l 1,29,-1
 457 433 l 1,30,-1
 322 433 l 1,31,-1
 272 307 l 1,28,-1
EndSplineSet
Validated: 1
EndChar

StartChar: dollar
Encoding: 36 36 7
Width: 526
GlyphClass: 1
Flags: W
LayerCount: 2
Fore
SplineSet
292 84 m 1,0,-1
 307 -33 l 1,1,-1
 216 -33 l 1,2,-1
 233 83 l 1,3,4
 113 89 113 89 53 122 c 1,5,-1
 66 233 l 1,6,7
 137 174 137 174 256 174 c 0,8,9
 369 174 369 174 369 239 c 0,10,11
 369 272 369 272 336 294 c 0,12,13
 301 317 301 317 254 330 c 0,14,15
 206 344 206 344 158 360 c 128,-1,16
 110 376 110 376 77 408 c 0,17,18
 43 439 43 439 43 487 c 0,19,20
 43 550 43 550 90 594 c 0,21,22
 136 637 136 637 233 646 c 1,23,-1
 216 766 l 1,24,-1
 308 766 l 1,25,-1
 292 646 l 1,26,27
 404 640 404 640 457 608 c 1,28,-1
 447 510 l 1,29,30
 345 559 345 559 276 559 c 0,31,32
 153 559 153 559 153 500 c 0,33,34
 153 474 153 474 178 456 c 0,35,36
 203 437 203 437 240 428 c 0,37,38
 278 418 278 418 321 404 c 0,39,40
 370 387 370 387 402 373 c 0,41,42
 438 357 438 357 464 322 c 0,43,44
 489 288 489 288 489 240 c 0,45,46
 489 182 489 182 447 138 c 0,47,48
 403 93 403 93 292 84 c 1,0,-1
EndSplineSet
Validated: 1
EndChar

StartChar: percent
Encoding: 37 37 8
Width: 860
GlyphClass: 1
Flags: W
LayerCount: 2
Fore
SplineSet
597 717 m 1,0,-1
 673 717 l 1,1,-1
 243 -12 l 1,2,-1
 166 -12 l 1,3,-1
 597 717 l 1,0,-1
185 341 m 0,4,5
 117 341 117 341 77 390 c 0,6,7
 36 440 36 440 36 527 c 0,8,9
 36 618 36 618 81 670 c 0,10,11
 124 722 124 722 190 722 c 0,12,13
 255 722 255 722 298 673 c 0,14,15
 340 624 340 624 340 537 c 0,16,17
 340 445 340 445 297 393 c 128,-1,18
 254 341 254 341 185 341 c 0,4,5
189 669 m 128,-1,20
 150 669 150 669 121 630 c 0,21,22
 93 592 93 592 93 527 c 0,23,24
 93 467 93 467 120 431 c 0,25,26
 147 394 147 394 186 394 c 0,27,28
 227 394 227 394 255 434 c 0,29,30
 283 472 283 472 283 537 c 0,31,32
 283 594 283 594 256 632 c 0,33,19
 228 669 228 669 189 669 c 128,-1,20
670 -14 m 0,34,35
 602 -14 602 -14 562 35 c 0,36,37
 520 84 520 84 520 172 c 0,38,39
 520 262 520 262 565 315 c 0,40,41
 610 367 610 367 675 367 c 128,-1,42
 740 367 740 367 782 318 c 0,43,44
 824 268 824 268 824 181 c 0,45,46
 824 89 824 89 782 38 c 0,47,48
 739 -14 739 -14 670 -14 c 0,34,35
674 313 m 0,49,50
 634 313 634 313 606 274 c 0,51,52
 578 236 578 236 578 172 c 0,53,54
 578 112 578 112 605 76 c 0,55,56
 632 39 632 39 671 39 c 0,57,58
 712 39 712 39 740 78 c 0,59,60
 767 117 767 117 767 181 c 0,61,62
 767 238 767 238 740 276 c 0,63,64
 713 313 713 313 674 313 c 0,49,50
EndSplineSet
Validated: 1
EndChar

StartChar: ampersand
Encoding: 38 38 9
Width: 625
GlyphClass: 1
Flags: W
LayerCount: 2
Fore
SplineSet
518 102 m 1,0,-1
 607 0 l 1,1,-1
 513 0 l 1,2,-1
 468 47 l 1,3,4
 424 9 424 9 379 -8 c 0,5,6
 337 -24 337 -24 275 -24 c 0,7,8
 156 -24 156 -24 97 28 c 0,9,10
 37 79 37 79 37 166 c 0,11,12
 37 285 37 285 166 375 c 1,13,14
 89 470 89 470 89 549 c 0,15,16
 89 627 89 627 147 673 c 0,17,18
 205 720 205 720 289 720 c 0,19,20
 361 720 361 720 398 686 c 128,-1,21
 435 652 435 652 435 591 c 0,22,23
 435 470 435 470 267 365 c 1,24,-1
 462 165 l 1,25,26
 495 207 495 207 502 359 c 1,27,-1
 585 359 l 1,28,29
 581 201 581 201 518 102 c 1,0,-1
276 649 m 0,30,31
 230 649 230 649 202 622 c 0,32,33
 172 595 172 595 172 547 c 0,34,35
 172 484 172 484 228 416 c 1,36,-1
 283 458 l 1,37,-1
 303 475 l 2,38,39
 357 522 357 522 357 572 c 0,40,41
 357 608 357 608 335 629 c 0,42,43
 312 649 312 649 276 649 c 0,30,31
422 108 m 1,44,-1
 209 321 l 1,45,46
 126 262 126 262 126 173 c 0,47,48
 126 115 126 115 166 81 c 0,49,50
 206 46 206 46 278 46 c 0,51,52
 368 46 368 46 422 108 c 1,44,-1
EndSplineSet
Validated: 1
EndChar

StartChar: quotesingle
Encoding: 39 39 10
Width: 186
GlyphClass: 1
Flags: W
LayerCount: 2
Fore
SplineSet
60 461 m 1,0,-1
 42 768 l 1,1,-1
 144 768 l 1,2,-1
 126 461 l 1,3,-1
 60 461 l 1,0,-1
EndSplineSet
Validated: 1
EndChar

StartChar: parenleft
Encoding: 40 40 11
Width: 267
GlyphClass: 1
Flags: W
LayerCount: 2
Fore
SplineSet
243 -139 m 1,0,-1
 162 -139 l 1,1,2
 100 -46 100 -46 71 59 c 0,3,4
 43 161 43 161 43 314 c 0,5,6
 43 464 43 464 72 569 c 0,7,8
 100 672 100 672 162 768 c 1,9,-1
 243 768 l 1,10,11
 117 564 117 564 117 314 c 0,12,13
 117 65 117 65 243 -139 c 1,0,-1
EndSplineSet
Validated: 1
EndChar

StartChar: parenright
Encoding: 41 41 12
Width: 267
GlyphClass: 1
Flags: W
LayerCount: 2
Fore
SplineSet
105 -139 m 1,0,-1
 25 -139 l 1,1,2
 151 65 151 65 151 314 c 0,3,4
 151 564 151 564 25 768 c 1,5,-1
 105 768 l 1,6,7
 168 669 168 669 196 569 c 0,8,9
 224 467 224 467 224 314 c 0,10,11
 224 162 224 162 196 60 c 128,-1,12
 168 -42 168 -42 105 -139 c 1,0,-1
EndSplineSet
Validated: 1
EndChar

StartChar: asterisk
Encoding: 42 42 13
Width: 436
GlyphClass: 1
Flags: W
LayerCount: 2
Fore
SplineSet
241 588 m 1,0,-1
 356 470 l 1,1,-1
 323 437 l 1,2,-1
 218 573 l 1,3,-1
 116 434 l 1,4,-1
 83 467 l 1,5,-1
 194 587 l 1,6,-1
 34 653 l 1,7,-1
 57 695 l 1,8,-1
 209 607 l 1,9,-1
 196 767 l 1,10,-1
 243 767 l 1,11,-1
 226 607 l 1,12,-1
 379 695 l 1,13,-1
 402 652 l 1,14,-1
 241 588 l 1,0,-1
EndSplineSet
Validated: 1
EndChar

StartChar: plus
Encoding: 43 43 14
Width: 474
GlyphClass: 1
Flags: W
LayerCount: 2
Fore
SplineSet
278 332 m 1,0,-1
 426 332 l 1,1,-1
 426 244 l 1,2,-1
 278 244 l 1,3,-1
 278 104 l 1,4,-1
 196 104 l 1,5,-1
 196 244 l 1,6,-1
 47 244 l 1,7,-1
 47 332 l 1,8,-1
 196 332 l 1,9,-1
 196 463 l 1,10,-1
 278 463 l 1,11,-1
 278 332 l 1,0,-1
EndSplineSet
Validated: 1
EndChar

StartChar: comma
Encoding: 44 44 15
Width: 221
GlyphClass: 1
Flags: W
LayerCount: 2
Fore
SplineSet
59 88 m 1,0,-1
 162 88 l 1,1,-1
 162 0 l 1,2,-1
 82 -112 l 1,3,-1
 58 -98 l 1,4,-1
 94 -9 l 1,5,-1
 59 0 l 1,6,-1
 59 88 l 1,0,-1
EndSplineSet
Validated: 1
EndChar

StartChar: hyphen
Encoding: 45 45 16
Width: 434
GlyphClass: 1
Flags: W
LayerCount: 2
Fore
SplineSet
58 332 m 1,0,-1
 376 332 l 1,1,-1
 376 244 l 1,2,-1
 58 244 l 1,3,-1
 58 332 l 1,0,-1
EndSplineSet
Validated: 1
EndChar

StartChar: period
Encoding: 46 46 17
Width: 208
GlyphClass: 1
Flags: W
LayerCount: 2
Fore
SplineSet
58 88 m 1,0,-1
 151 88 l 1,1,-1
 151 0 l 1,2,-1
 58 0 l 1,3,-1
 58 88 l 1,0,-1
EndSplineSet
Validated: 1
EndChar

StartChar: slash
Encoding: 47 47 18
Width: 544
GlyphClass: 1
Flags: W
LayerCount: 2
Fore
SplineSet
19 -87 m 1,0,-1
 407 717 l 1,1,-1
 509 717 l 1,2,-1
 122 -87 l 1,3,-1
 19 -87 l 1,0,-1
EndSplineSet
Validated: 1
EndChar

StartChar: zero
Encoding: 48 48 19
Width: 731
GlyphClass: 1
Flags: W
LayerCount: 2
Fore
SplineSet
359 -14 m 0,0,1
 227 -14 227 -14 146 85 c 0,2,3
 65 182 65 182 65 346 c 0,4,5
 65 516 65 516 153 623 c 0,6,7
 242 731 242 731 372 731 c 0,8,9
 500 731 500 731 584 629 c 0,10,11
 667 525 667 525 667 366 c 0,12,13
 667 194 667 194 582 91 c 0,14,15
 496 -14 496 -14 359 -14 c 0,0,1
370 643 m 0,16,17
 283 643 283 643 226 563 c 0,18,19
 168 484 168 484 168 346 c 0,20,21
 168 213 168 213 219 144 c 0,22,23
 270 74 270 74 361 74 c 0,24,25
 456 74 456 74 511 149 c 0,26,27
 565 222 565 222 565 366 c 0,28,29
 565 494 565 494 511 569 c 0,30,31
 455 643 455 643 370 643 c 0,16,17
EndSplineSet
Validated: 1
EndChar

StartChar: one
Encoding: 49 49 20
Width: 731
GlyphClass: 1
Flags: W
LayerCount: 2
Fore
SplineSet
364 717 m 1,0,-1
 439 717 l 1,1,-1
 439 0 l 1,2,-1
 337 0 l 1,3,-1
 337 577 l 1,4,5
 319 560 319 560 283 539 c 1,6,-1
 214 468 l 1,7,-1
 214 605 l 1,8,9
 253 617 253 617 300 651 c 0,10,11
 341 682 341 682 364 717 c 1,0,-1
EndSplineSet
Validated: 1
EndChar

StartChar: two
Encoding: 50 50 21
Width: 731
GlyphClass: 1
Flags: W
LayerCount: 2
Fore
SplineSet
332 88 m 1,0,-1
 580 88 l 1,1,-1
 580 0 l 1,2,-1
 156 0 l 1,3,4
 340 259 340 259 398 369 c 0,5,6
 454 476 454 476 454 524 c 0,7,8
 454 578 454 578 421 610 c 0,9,10
 388 640 388 640 330 640 c 0,11,12
 306 640 306 640 290 636 c 1,13,-1
 150 495 l 1,14,-1
 150 632 l 1,15,16
 168 666 168 666 225 699 c 0,17,18
 283 731 283 731 354 731 c 0,19,20
 458 731 458 731 506 673 c 0,21,22
 554 614 554 614 554 535 c 0,23,24
 554 463 554 463 504 361 c 0,25,26
 457 265 457 265 332 88 c 1,0,-1
EndSplineSet
Validated: 1
EndChar

StartChar: three
Encoding: 51 51 22
Width: 731
GlyphClass: 1
Flags: W
LayerCount: 2
Fore
SplineSet
333 -14 m 0,0,1
 276 -14 276 -14 216 5 c 0,2,3
 153 25 153 25 138 40 c 1,4,-1
 138 177 l 1,5,-1
 210 105 l 1,6,-1
 212 104 l 2,7,8
 272 74 272 74 334 74 c 0,9,10
 400 74 400 74 444 109 c 0,11,12
 486 144 486 144 486 218 c 0,13,14
 486 282 486 282 447 317 c 0,15,16
 407 351 407 351 316 351 c 2,17,-1
 241 351 l 1,18,-1
 252 429 l 1,19,-1
 290 429 l 2,20,21
 380 429 380 429 421 458 c 0,22,23
 461 486 461 486 461 547 c 0,24,25
 461 643 461 643 339 643 c 0,26,27
 305 643 305 643 271 635 c 1,28,-1
 183 547 l 1,29,-1
 183 684 l 1,30,31
 202 704 202 704 246 717 c 0,32,33
 291 731 291 731 349 731 c 0,34,35
 411 731 411 731 459 714 c 0,36,37
 502 698 502 698 526 668 c 0,38,39
 546 643 546 643 558 610 c 0,40,41
 567 580 567 580 567 547 c 0,42,43
 567 502 567 502 546 468 c 0,44,45
 525 431 525 431 474 397 c 1,46,47
 593 356 593 356 593 219 c 0,48,49
 593 111 593 111 519 49 c 0,50,51
 444 -14 444 -14 333 -14 c 0,0,1
EndSplineSet
Validated: 1
EndChar

StartChar: four
Encoding: 52 52 23
Width: 731
GlyphClass: 1
Flags: W
LayerCount: 2
Fore
SplineSet
516 283 m 1,0,-1
 604 283 l 1,1,-1
 604 195 l 1,2,-1
 516 195 l 1,3,-1
 516 0 l 1,4,-1
 414 0 l 1,5,-1
 414 195 l 1,6,-1
 106 195 l 1,7,-1
 436 717 l 1,8,-1
 516 717 l 1,9,-1
 516 283 l 1,0,-1
414 543 m 1,10,-1
 258 283 l 1,11,-1
 414 283 l 1,12,-1
 414 543 l 1,10,-1
EndSplineSet
Validated: 1
EndChar

StartChar: five
Encoding: 53 53 24
Width: 731
GlyphClass: 1
Flags: W
LayerCount: 2
Fore
SplineSet
141 26 m 1,0,-1
 141 163 l 1,1,-1
 210 94 l 1,2,3
 264 74 264 74 313 74 c 0,4,5
 384 74 384 74 434 122 c 0,6,7
 483 168 483 168 483 238 c 0,8,9
 483 302 483 302 432 334 c 0,10,11
 381 364 381 364 267 364 c 2,12,-1
 180 364 l 1,13,-1
 223 717 l 1,14,-1
 549 717 l 1,15,-1
 540 629 l 1,16,-1
 301 629 l 1,17,-1
 280 451 l 1,18,19
 443 451 443 451 517 401 c 0,20,21
 590 350 590 350 590 242 c 0,22,23
 590 130 590 130 509 58 c 0,24,25
 426 -14 426 -14 314 -14 c 0,26,27
 272 -14 272 -14 211 0 c 0,28,29
 154 13 154 13 141 26 c 1,0,-1
EndSplineSet
Validated: 1
EndChar

StartChar: six
Encoding: 54 54 25
Width: 731
GlyphClass: 1
Flags: W
LayerCount: 2
Fore
SplineSet
354 -14 m 0,0,1
 248 -14 248 -14 188 51 c 256,2,3
 128 116 128 116 128 246 c 0,4,5
 128 386 128 386 190 505 c 0,6,7
 251 620 251 620 338 680 c 0,8,9
 368 700 368 700 396 710 c 2,10,-1
 470 736 l 1,11,-1
 538 622 l 1,12,-1
 440 646 l 1,13,-1
 422 636 l 1,14,15
 293 559 293 559 240 366 c 1,16,17
 288 430 288 430 384 430 c 128,-1,18
 480 430 480 430 541 375 c 128,-1,19
 602 320 602 320 602 223 c 0,20,21
 602 122 602 122 533 54 c 0,22,23
 463 -14 463 -14 354 -14 c 0,0,1
376 347 m 0,24,25
 316 347 316 347 274 308 c 0,26,27
 232 268 232 268 232 206 c 0,28,29
 232 141 232 141 269 107 c 0,30,31
 306 71 306 71 366 71 c 0,32,33
 430 71 430 71 466 114 c 0,34,35
 502 158 502 158 502 219 c 0,36,37
 502 274 502 274 471 311 c 0,38,39
 440 347 440 347 376 347 c 0,24,25
EndSplineSet
Validated: 1
EndChar

StartChar: seven
Encoding: 55 55 26
Width: 731
GlyphClass: 1
Flags: W
LayerCount: 2
Fore
SplineSet
144 629 m 1,0,-1
 144 717 l 1,1,-1
 608 717 l 1,2,-1
 298 0 l 1,3,-1
 196 0 l 1,4,-1
 466 629 l 1,5,-1
 226 629 l 1,6,-1
 146 549 l 1,7,-1
 146 629 l 1,8,-1
 144 629 l 1,0,-1
EndSplineSet
Validated: 1
EndChar

StartChar: eight
Encoding: 56 56 27
Width: 731
GlyphClass: 1
Flags: W
LayerCount: 2
Fore
SplineSet
358 -14 m 0,0,1
 240 -14 240 -14 177 46 c 0,2,3
 114 104 114 104 114 194 c 0,4,5
 114 312 114 312 252 385 c 1,6,7
 156 460 156 460 156 553 c 0,8,9
 156 631 156 631 209 681 c 0,10,11
 261 730 261 730 370 730 c 0,12,13
 474 730 474 730 525 685 c 0,14,15
 576 638 576 638 576 568 c 0,16,17
 576 514 576 514 552 481 c 0,18,19
 529 447 529 447 456 396 c 1,20,21
 540 367 540 367 578 322 c 0,22,23
 616 275 616 275 616 203 c 0,24,25
 616 116 616 116 547 51 c 0,26,27
 477 -14 477 -14 358 -14 c 0,0,1
246 547 m 0,28,29
 246 514 246 514 276 482 c 256,30,31
 306 450 306 450 360 431 c 1,32,33
 418 449 418 449 449 483 c 0,34,35
 480 515 480 515 480 558 c 0,36,37
 480 598 480 598 450 621 c 0,38,39
 421 643 421 643 364 643 c 0,40,41
 308 643 308 643 277 618 c 128,-1,42
 246 593 246 593 246 547 c 0,28,29
368 346 m 1,43,44
 222 317 222 317 222 194 c 0,45,46
 222 135 222 135 258 105 c 0,47,48
 293 74 293 74 362 74 c 0,49,50
 427 74 427 74 470 111 c 0,51,52
 514 149 514 149 514 204 c 0,53,54
 514 256 514 256 474 293 c 0,55,56
 433 331 433 331 368 346 c 1,43,44
EndSplineSet
Validated: 1
EndChar

StartChar: nine
Encoding: 57 57 28
Width: 731
GlyphClass: 1
Flags: W
LayerCount: 2
Fore
SplineSet
378 731 m 0,0,1
 483 731 483 731 543 667 c 0,2,3
 602 602 602 602 602 471 c 0,4,5
 602 330 602 330 540 212 c 0,6,7
 477 94 477 94 392 37 c 0,8,9
 364 18 364 18 334 6 c 2,10,-1
 331 5 l 1,11,-1
 261 -19 l 1,12,-1
 194 95 l 1,13,-1
 292 71 l 1,14,-1
 308 81 l 2,15,16
 440 160 440 160 491 351 c 1,17,18
 443 287 443 287 346 287 c 128,-1,19
 249 287 249 287 190 342 c 0,20,21
 129 397 129 397 129 494 c 0,22,23
 129 596 129 596 198 663 c 0,24,25
 268 731 268 731 378 731 c 0,0,1
355 370 m 0,26,27
 415 370 415 370 458 410 c 0,28,29
 500 449 500 449 500 511 c 0,30,31
 500 575 500 575 463 611 c 0,32,33
 425 646 425 646 366 646 c 0,34,35
 301 646 301 646 265 603 c 0,36,37
 228 560 228 560 228 498 c 0,38,39
 228 442 228 442 259 407 c 0,40,41
 290 370 290 370 355 370 c 0,26,27
EndSplineSet
Validated: 1
EndChar

StartChar: colon
Encoding: 58 58 29
Width: 400
GlyphClass: 1
Flags: W
LayerCount: 2
Fore
SplineSet
154 451 m 1,0,-1
 246 451 l 1,1,-1
 246 362 l 1,2,-1
 154 362 l 1,3,-1
 154 451 l 1,0,-1
154 88 m 1,4,-1
 246 88 l 1,5,-1
 246 0 l 1,6,-1
 154 0 l 1,7,-1
 154 88 l 1,4,-1
EndSplineSet
Validated: 1
EndChar

StartChar: semicolon
Encoding: 59 59 30
Width: 400
GlyphClass: 1
Flags: W
LayerCount: 2
Fore
SplineSet
149 451 m 1,0,-1
 252 451 l 1,1,-1
 252 362 l 1,2,-1
 149 362 l 1,3,-1
 149 451 l 1,0,-1
149 88 m 1,4,-1
 252 88 l 1,5,-1
 252 -1 l 1,6,-1
 172 -112 l 1,7,-1
 148 -98 l 1,8,-1
 184 -9 l 1,9,-1
 149 0 l 1,10,-1
 149 88 l 1,4,-1
EndSplineSet
Validated: 1
EndChar

StartChar: less
Encoding: 60 60 31
Width: 414
GlyphClass: 1
Flags: W
LayerCount: 2
Fore
SplineSet
352 502 m 1,0,-1
 131 291 l 1,1,-1
 352 80 l 1,2,-1
 255 80 l 1,3,-1
 34 291 l 1,4,-1
 255 502 l 1,5,-1
 352 502 l 1,0,-1
EndSplineSet
Validated: 1
EndChar

StartChar: equal
Encoding: 61 61 32
Width: 514
GlyphClass: 1
Flags: W
LayerCount: 2
Fore
SplineSet
68 403 m 1,0,-1
 446 403 l 1,1,-1
 446 326 l 1,2,-1
 68 326 l 1,3,-1
 68 403 l 1,0,-1
68 242 m 1,4,-1
 446 242 l 1,5,-1
 446 164 l 1,6,-1
 68 164 l 1,7,-1
 68 242 l 1,4,-1
EndSplineSet
Validated: 1
EndChar

StartChar: greater
Encoding: 62 62 33
Width: 413
GlyphClass: 1
Flags: W
LayerCount: 2
Fore
SplineSet
61 502 m 1,0,-1
 159 502 l 1,1,-1
 380 291 l 1,2,-1
 159 80 l 1,3,-1
 61 80 l 1,4,-1
 283 291 l 1,5,-1
 61 502 l 1,0,-1
EndSplineSet
Validated: 1
EndChar

StartChar: question
Encoding: 63 63 34
Width: 451
GlyphClass: 1
Flags: W
LayerCount: 2
Fore
SplineSet
231 232 m 2,0,-1
 231 205 l 1,1,-1
 171 205 l 1,2,3
 168 247 168 247 168 251 c 0,4,5
 168 287 168 287 184 320 c 0,6,7
 200 354 200 354 223 383 c 2,8,-1
 268 440 l 2,9,10
 288 465 288 465 306 503 c 0,11,12
 322 536 322 536 322 574 c 0,13,14
 322 632 322 632 284 667 c 0,15,16
 245 700 245 700 190 700 c 0,17,18
 165 700 165 700 145 693 c 2,19,-1
 130 688 l 1,20,-1
 30 592 l 1,21,-1
 31 699 l 1,22,23
 49 728 49 728 95 749 c 0,24,25
 137 768 137 768 194 768 c 0,26,27
 286 768 286 768 347 709 c 0,28,29
 407 650 407 650 407 577 c 0,30,31
 407 510 407 510 345 430 c 2,32,-1
 293 364 l 2,33,34
 230 284 230 284 231 232 c 2,0,-1
157 88 m 1,35,-1
 250 88 l 1,36,-1
 250 0 l 1,37,-1
 157 0 l 1,38,-1
 157 88 l 1,35,-1
EndSplineSet
Validated: 33
EndChar

StartChar: at
Encoding: 64 64 35
Width: 795
GlyphClass: 1
Flags: W
LayerCount: 2
Fore
SplineSet
341 281 m 0,0,1
 389 283 389 283 429 335 c 128,-1,2
 469 387 469 387 469 434 c 2,3,-1
 469 455 l 1,4,5
 454 458 454 458 434 458 c 0,6,7
 380 458 380 458 343 410 c 0,8,9
 306 363 306 363 306 315 c 0,10,11
 306 298 306 298 317 290 c 0,12,13
 328 281 328 281 341 281 c 0,0,1
744 385 m 2,14,-1
 744 380 l 2,15,16
 744 301 744 301 709 245 c 0,17,18
 673 189 673 189 596 189 c 0,19,20
 517 189 517 189 486 259 c 1,21,22
 426 196 426 196 348 189 c 1,23,-1
 339 189 l 2,24,25
 282 189 282 189 244 225 c 128,-1,26
 206 261 206 261 206 319 c 0,27,28
 206 399 206 399 273 473 c 0,29,30
 341 547 341 547 436 547 c 0,31,32
 475 547 475 547 521 530 c 0,33,34
 566 512 566 512 566 486 c 2,35,-1
 566 346 l 2,36,37
 566 325 566 325 574 303 c 0,38,39
 582 282 582 282 598 282 c 0,40,41
 624 282 624 282 634 316 c 0,42,43
 645 351 645 351 645 388 c 0,44,45
 645 488 645 488 583 548 c 0,46,47
 519 607 519 607 410 607 c 0,48,49
 296 607 296 607 225 533 c 0,50,51
 154 457 154 457 154 349 c 0,52,53
 154 243 154 243 211 183 c 0,54,55
 266 122 266 122 378 122 c 0,56,57
 470 122 470 122 552 167 c 1,58,-1
 607 88 l 1,59,60
 571 60 571 60 501 44 c 0,61,62
 428 26 428 26 378 26 c 0,63,64
 223 26 223 26 138 117 c 0,65,66
 51 207 51 207 51 355 c 0,67,68
 51 508 51 508 150 602 c 0,69,70
 250 697 250 697 410 697 c 0,71,72
 565 697 565 697 655 613 c 0,73,74
 744 527 744 527 744 385 c 2,14,-1
EndSplineSet
Validated: 1
EndChar

StartChar: A
Encoding: 65 65 36
Width: 630
GlyphClass: 1
Flags: W
LayerCount: 2
Fore
SplineSet
178 194 m 1,0,-1
 110 0 l 1,1,-1
 -47 0 l 1,2,-1
 37 84 l 1,3,-1
 264 717 l 1,4,-1
 367 717 l 1,5,-1
 594 83 l 1,6,-1
 677 0 l 1,7,-1
 521 0 l 1,8,-1
 453 194 l 1,9,-1
 178 194 l 1,0,-1
315 581 m 1,10,-1
 209 282 l 1,11,-1
 422 282 l 1,12,-1
 315 581 l 1,10,-1
EndSplineSet
Validated: 1
EndChar

StartChar: B
Encoding: 66 66 37
Width: 611
GlyphClass: 1
Flags: W
LayerCount: 2
Fore
SplineSet
328 0 m 2,0,-1
 23 0 l 1,1,-1
 82 59 l 1,2,-1
 82 717 l 1,3,-1
 244 717 l 2,4,5
 386 717 386 717 450 680 c 128,-1,6
 514 643 514 643 514 540 c 0,7,8
 514 479 514 479 504 452 c 0,9,10
 494 423 494 423 456 382 c 1,11,12
 522 356 522 356 548 317 c 0,13,14
 575 276 575 276 575 213 c 0,15,16
 575 148 575 148 554 104 c 0,17,18
 533 59 533 59 495 38 c 0,19,20
 458 16 458 16 418 8 c 0,21,22
 376 0 376 0 328 0 c 2,0,-1
331 331 m 2,23,-1
 179 331 l 1,24,-1
 179 88 l 1,25,-1
 280 88 l 2,26,27
 380 88 380 88 428 111 c 0,28,29
 474 133 474 133 474 204 c 0,30,31
 474 331 474 331 331 331 c 2,23,-1
271 630 m 2,32,-1
 179 630 l 1,33,-1
 179 419 l 1,34,-1
 300 419 l 2,35,36
 358 419 358 419 386 441 c 0,37,38
 414 462 414 462 414 532 c 0,39,40
 414 563 414 563 403 585 c 0,41,42
 392 606 392 606 370 615 c 0,43,44
 347 624 347 624 327 627 c 0,45,46
 304 630 304 630 271 630 c 2,32,-1
EndSplineSet
Validated: 1
EndChar

StartChar: C
Encoding: 67 67 38
Width: 630
GlyphClass: 1
Flags: W
LayerCount: 2
Fore
SplineSet
399 -14 m 0,0,1
 240 -14 240 -14 140 89 c 0,2,3
 40 190 40 190 40 358 c 0,4,5
 40 523 40 523 141 627 c 128,-1,6
 242 731 242 731 398 731 c 0,7,8
 508 731 508 731 597 689 c 1,9,-1
 588 608 l 1,10,-1
 588 536 l 1,11,-1
 492 632 l 1,12,13
 443 643 443 643 398 643 c 0,14,15
 281 643 281 643 214 564 c 0,16,17
 146 484 146 484 146 358 c 128,-1,18
 146 232 146 232 213 153 c 128,-1,19
 280 74 280 74 400 74 c 0,20,21
 432 74 432 74 460 79 c 2,22,-1
 485 84 l 2,23,24
 491 84 491 84 493 85 c 2,25,-1
 588 180 l 1,26,-1
 588 108 l 1,27,-1
 597 27 l 1,28,29
 510 -14 510 -14 399 -14 c 0,0,1
EndSplineSet
Validated: 1
EndChar

StartChar: D
Encoding: 68 68 39
Width: 744
GlyphClass: 1
Flags: W
LayerCount: 2
Fore
SplineSet
347 0 m 2,0,-1
 23 0 l 1,1,-1
 82 59 l 1,2,-1
 82 717 l 1,3,-1
 347 717 l 2,4,5
 507 717 507 717 605 620 c 0,6,7
 703 522 703 522 703 358 c 0,8,9
 703 195 703 195 605 97 c 0,10,11
 508 0 508 0 347 0 c 2,0,-1
347 629 m 2,12,-1
 179 629 l 1,13,-1
 179 88 l 1,14,-1
 347 88 l 2,15,16
 466 88 466 88 532 161 c 0,17,18
 597 234 597 234 597 358 c 128,-1,19
 597 482 597 482 532 556 c 0,20,21
 466 629 466 629 347 629 c 2,12,-1
EndSplineSet
Validated: 1
EndChar

StartChar: E
Encoding: 69 69 40
Width: 567
GlyphClass: 1
Flags: W
LayerCount: 2
Fore
SplineSet
528 88 m 1,0,-1
 528 0 l 1,1,-1
 23 0 l 1,2,-1
 82 59 l 1,3,-1
 82 717 l 1,4,-1
 519 717 l 1,5,-1
 519 629 l 1,6,-1
 179 629 l 1,7,-1
 179 409 l 1,8,-1
 450 409 l 1,9,-1
 450 321 l 1,10,-1
 179 321 l 1,11,-1
 179 88 l 1,12,-1
 528 88 l 1,0,-1
EndSplineSet
Validated: 1
EndChar

StartChar: F
Encoding: 70 70 41
Width: 535
GlyphClass: 1
Flags: W
LayerCount: 2
Fore
SplineSet
179 331 m 1,0,-1
 179 0 l 1,1,-1
 23 0 l 1,2,-1
 82 59 l 1,3,-1
 82 717 l 1,4,-1
 519 717 l 1,5,-1
 519 629 l 1,6,-1
 179 629 l 1,7,-1
 179 419 l 1,8,-1
 441 419 l 1,9,-1
 441 331 l 1,10,-1
 179 331 l 1,0,-1
EndSplineSet
Validated: 1
EndChar

StartChar: G
Encoding: 71 71 42
Width: 688
GlyphClass: 1
Flags: W
LayerCount: 2
Fore
SplineSet
391 -14 m 0,0,1
 238 -14 238 -14 139 90 c 128,-1,2
 40 194 40 194 40 359 c 0,3,4
 40 526 40 526 140 629 c 0,5,6
 240 731 240 731 399 731 c 0,7,8
 522 731 522 731 612 690 c 1,9,-1
 608 652 l 1,10,-1
 608 536 l 1,11,-1
 513 630 l 1,12,13
 460 643 460 643 402 643 c 0,14,15
 279 643 279 643 213 566 c 0,16,17
 146 489 146 489 146 358 c 128,-1,18
 146 227 146 227 217 150 c 0,19,20
 287 74 287 74 419 74 c 0,21,22
 495 74 495 74 539 93 c 1,23,-1
 539 271 l 1,24,-1
 426 271 l 1,25,-1
 426 359 l 1,26,-1
 636 359 l 1,27,-1
 636 40 l 1,28,29
 599 19 599 19 522 2 c 0,30,31
 451 -14 451 -14 391 -14 c 0,0,1
EndSplineSet
Validated: 1
EndChar

StartChar: H
Encoding: 72 72 43
Width: 763
GlyphClass: 1
Flags: W
LayerCount: 2
Fore
SplineSet
179 329 m 1,0,-1
 179 0 l 1,1,-1
 23 0 l 1,2,-1
 82 59 l 1,3,-1
 82 717 l 1,4,-1
 179 717 l 1,5,-1
 179 421 l 1,6,-1
 585 421 l 1,7,-1
 585 717 l 1,8,-1
 682 717 l 1,9,-1
 682 61 l 1,10,-1
 743 0 l 1,11,-1
 585 0 l 1,12,-1
 585 329 l 1,13,-1
 179 329 l 1,0,-1
EndSplineSet
Validated: 1
EndChar

StartChar: I
Encoding: 73 73 44
Width: 261
GlyphClass: 1
Flags: W
LayerCount: 2
Fore
SplineSet
179 717 m 1,0,-1
 179 0 l 1,1,-1
 23 0 l 1,2,-1
 82 59 l 1,3,-1
 82 717 l 1,4,-1
 179 717 l 1,0,-1
EndSplineSet
Validated: 1
EndChar

StartChar: J
Encoding: 74 74 45
Width: 261
GlyphClass: 1
Flags: W
LayerCount: 2
Fore
SplineSet
9 -176 m 2,0,-1
 -49 -176 l 1,1,-1
 -49 -39 l 1,2,-1
 27 -115 l 1,3,-1
 33 -113 l 2,4,5
 60 -104 60 -104 71 -78 c 0,6,7
 82 -51 82 -51 82 -3 c 2,8,-1
 82 717 l 1,9,-1
 179 717 l 1,10,-1
 179 -33 l 2,11,12
 179 -176 179 -176 9 -176 c 2,0,-1
EndSplineSet
Validated: 1
EndChar

StartChar: K
Encoding: 75 75 46
Width: 590
GlyphClass: 1
Flags: W
LayerCount: 2
Fore
SplineSet
587 717 m 1,0,-1
 322 380 l 1,1,-1
 587 0 l 1,2,-1
 484 0 l 1,3,-1
 219 380 l 1,4,-1
 484 717 l 1,5,-1
 587 717 l 1,0,-1
179 717 m 1,6,-1
 179 0 l 1,7,-1
 23 0 l 1,8,-1
 82 59 l 1,9,-1
 82 717 l 1,10,-1
 179 717 l 1,6,-1
EndSplineSet
Validated: 1
EndChar

StartChar: L
Encoding: 76 76 47
Width: 513
GlyphClass: 1
Flags: W
LayerCount: 2
Fore
SplineSet
508 88 m 1,0,-1
 508 0 l 1,1,-1
 23 0 l 1,2,-1
 82 59 l 1,3,-1
 82 717 l 1,4,-1
 179 717 l 1,5,-1
 179 88 l 1,6,-1
 508 88 l 1,0,-1
EndSplineSet
Validated: 1
EndChar

StartChar: M
Encoding: 77 77 48
Width: 831
GlyphClass: 1
Flags: W
LayerCount: 2
Fore
SplineSet
219 542 m 1,0,-1
 152 0 l 1,1,-1
 -8 0 l 1,2,-1
 57 66 l 1,3,-1
 145 717 l 1,4,-1
 228 717 l 1,5,-1
 417 361 l 1,6,-1
 603 717 l 1,7,-1
 687 717 l 1,8,-1
 773 70 l 1,9,-1
 843 0 l 1,10,-1
 680 0 l 1,11,-1
 612 542 l 1,12,-1
 418 170 l 1,13,-1
 219 542 l 1,0,-1
EndSplineSet
Validated: 1
EndChar

StartChar: N
Encoding: 78 78 49
Width: 720
GlyphClass: 1
Flags: W
LayerCount: 2
Fore
SplineSet
179 566 m 1,0,-1
 179 0 l 1,1,-1
 14 0 l 1,2,-1
 82 68 l 1,3,-1
 82 717 l 1,4,-1
 187 717 l 1,5,-1
 541 180 l 1,6,-1
 541 717 l 1,7,-1
 639 717 l 1,8,-1
 639 74 l 1,9,-1
 713 0 l 1,10,-1
 556 0 l 1,11,-1
 179 566 l 1,0,-1
EndSplineSet
Validated: 1
EndChar

StartChar: O
Encoding: 79 79 50
Width: 786
GlyphClass: 1
Flags: W
LayerCount: 2
Fore
SplineSet
647 87 m 0,0,1
 549 -14 549 -14 393 -14 c 0,2,3
 236 -14 236 -14 138 88 c 0,4,5
 40 191 40 191 40 358 c 0,6,7
 40 524 40 524 139 628 c 0,8,9
 238 731 238 731 393 731 c 0,10,11
 549 731 549 731 648 628 c 0,12,13
 746 524 746 524 746 358 c 0,14,15
 746 189 746 189 647 87 c 0,0,1
575 563 m 0,16,17
 512 643 512 643 393 643 c 0,18,19
 276 643 276 643 212 564 c 0,20,21
 146 484 146 484 146 358 c 128,-1,22
 146 232 146 232 212 153 c 0,23,24
 276 74 276 74 393 74 c 0,25,26
 511 74 511 74 575 153 c 0,27,28
 640 233 640 233 640 358 c 128,-1,29
 640 483 640 483 575 563 c 0,16,17
EndSplineSet
Validated: 1
EndChar

StartChar: P
Encoding: 80 80 51
Width: 585
GlyphClass: 1
Flags: W
LayerCount: 2
Fore
SplineSet
184 251 m 1,0,-1
 184 0 l 1,1,-1
 22 0 l 1,2,-1
 82 60 l 1,3,-1
 82 717 l 1,4,-1
 311 717 l 2,5,6
 364 717 364 717 407 709 c 0,7,8
 448 702 448 702 485 679 c 128,-1,9
 522 656 522 656 542 610 c 0,10,11
 561 565 561 565 561 494 c 0,12,13
 561 430 561 430 541 379 c 0,14,15
 519 328 519 328 486 303 c 0,16,17
 451 275 451 275 415 264 c 0,18,19
 379 251 379 251 340 251 c 2,20,-1
 184 251 l 1,0,-1
293 630 m 2,21,-1
 184 630 l 1,22,-1
 184 338 l 1,23,-1
 322 338 l 2,24,25
 394 338 394 338 427 376 c 128,-1,26
 460 414 460 414 460 489 c 0,27,28
 460 568 460 568 424 599 c 0,29,30
 387 630 387 630 293 630 c 2,21,-1
EndSplineSet
Validated: 1
EndChar

StartChar: Q
Encoding: 81 81 52
Width: 786
GlyphClass: 1
Flags: W
LayerCount: 2
Fore
SplineSet
671 114 m 1,0,-1
 732 63 l 1,1,-1
 681 3 l 1,2,-1
 614 58 l 1,3,4
 510 -14 510 -14 393 -14 c 0,5,6
 236 -14 236 -14 138 88 c 0,7,8
 40 191 40 191 40 358 c 0,9,10
 40 524 40 524 139 628 c 0,11,12
 238 731 238 731 393 731 c 0,13,14
 549 731 549 731 648 628 c 0,15,16
 746 524 746 524 746 358 c 0,17,18
 746 226 746 226 671 114 c 1,0,-1
393 643 m 128,-1,20
 276 643 276 643 211 565 c 0,21,22
 146 486 146 486 146 358 c 128,-1,23
 146 230 146 230 210 153 c 0,24,25
 274 74 274 74 393 74 c 0,26,27
 492 74 492 74 548 115 c 1,28,-1
 442 201 l 1,29,-1
 494 263 l 1,30,-1
 601 168 l 1,31,32
 650 244 650 244 650 358 c 0,33,34
 650 484 650 484 581 563 c 0,35,19
 510 643 510 643 393 643 c 128,-1,20
EndSplineSet
Validated: 1
EndChar

StartChar: R
Encoding: 82 82 53
Width: 617
GlyphClass: 1
Flags: W
LayerCount: 2
Fore
SplineSet
184 280 m 1,0,-1
 184 0 l 1,1,-1
 22 0 l 1,2,-1
 82 60 l 1,3,-1
 82 717 l 1,4,-1
 314 717 l 2,5,6
 439 717 439 717 500 668 c 0,7,8
 562 618 562 618 562 507 c 0,9,10
 562 439 562 439 528 387 c 0,11,12
 493 334 493 334 431 305 c 1,13,-1
 535 115 l 1,14,-1
 650 0 l 1,15,-1
 494 0 l 1,16,-1
 335 280 l 1,17,-1
 184 280 l 1,0,-1
313 638 m 2,18,-1
 184 638 l 1,19,-1
 184 374 l 1,20,-1
 339 374 l 2,21,22
 392 374 392 374 427 409 c 0,23,24
 461 443 461 443 461 507 c 0,25,26
 461 570 461 570 424 604 c 128,-1,27
 387 638 387 638 313 638 c 2,18,-1
EndSplineSet
Validated: 1
EndChar

StartChar: S
Encoding: 83 83 54
Width: 598
GlyphClass: 1
Flags: W
LayerCount: 2
Fore
SplineSet
54 31 m 1,0,-1
 52 31 l 1,1,-1
 52 168 l 1,2,-1
 94 126 l 1,3,4
 179 74 179 74 289 74 c 0,5,6
 367 74 367 74 413 102 c 0,7,8
 460 131 460 131 460 184 c 0,9,10
 460 238 460 238 417 266 c 0,11,12
 372 295 372 295 274 329 c 2,13,-1
 203 352 l 2,14,15
 117 381 117 381 80 422 c 0,16,17
 41 464 41 464 41 524 c 0,18,19
 41 549 41 549 49 578 c 0,20,21
 58 608 58 608 75 633 c 0,22,23
 92 660 92 660 121 683 c 0,24,25
 151 705 151 705 195 718 c 0,26,27
 240 731 240 731 299 731 c 0,28,29
 356 731 356 731 423 717 c 0,30,31
 484 703 484 703 524 682 c 1,32,-1
 524 545 l 1,33,-1
 469 599 l 1,34,35
 370 643 370 643 308 643 c 0,36,37
 242 643 242 643 195 616 c 0,38,39
 147 589 147 589 147 538 c 0,40,41
 147 496 147 496 183 470 c 0,42,43
 216 446 216 446 302 418 c 0,44,45
 467 370 467 370 524 307 c 0,46,47
 546 286 546 286 555 257 c 0,48,49
 563 228 563 228 566 185 c 0,50,51
 566 -11 566 -11 287 -14 c 0,52,53
 138 -14 138 -14 54 31 c 1,0,-1
EndSplineSet
Validated: 1
EndChar

StartChar: T
Encoding: 84 84 55
Width: 545
GlyphClass: 1
Flags: W
LayerCount: 2
Fore
SplineSet
322 55 m 1,0,-1
 377 0 l 1,1,-1
 168 0 l 1,2,-1
 224 56 l 1,3,-1
 224 629 l 1,4,-1
 72 629 l 1,5,-1
 15 572 l 1,6,-1
 15 717 l 1,7,-1
 530 717 l 1,8,-1
 530 572 l 1,9,-1
 474 629 l 1,10,-1
 322 629 l 1,11,-1
 322 55 l 1,0,-1
EndSplineSet
Validated: 1
EndChar

StartChar: U
Encoding: 85 85 56
Width: 741
GlyphClass: 1
Flags: W
LayerCount: 2
Fore
SplineSet
74 304 m 2,0,-1
 74 717 l 1,1,-1
 213 717 l 1,2,-1
 171 675 l 1,3,-1
 171 351 l 2,4,5
 171 301 171 301 175 269 c 0,6,7
 180 227 180 227 192 194 c 0,8,9
 206 155 206 155 226 131 c 128,-1,10
 246 107 246 107 284 90 c 0,11,12
 320 74 320 74 371 74 c 0,13,14
 419 74 419 74 458 91 c 0,15,16
 496 108 496 108 516 132 c 0,17,18
 536 157 536 157 550 196 c 0,19,20
 561 231 561 231 566 270 c 0,21,22
 570 302 570 302 570 351 c 2,23,-1
 570 673 l 1,24,-1
 526 717 l 1,25,-1
 668 717 l 1,26,-1
 668 304 l 2,27,28
 668 152 668 152 593 69 c 128,-1,29
 518 -14 518 -14 371 -14 c 128,-1,30
 224 -14 224 -14 149 69 c 128,-1,31
 74 152 74 152 74 304 c 2,0,-1
EndSplineSet
Validated: 1
EndChar

StartChar: V
Encoding: 86 86 57
Width: 713
GlyphClass: 1
Flags: W
LayerCount: 2
Fore
SplineSet
331 112 m 1,0,-1
 553 717 l 1,1,-1
 695 717 l 1,2,-1
 631 652 l 1,3,-1
 381 0 l 1,4,-1
 279 0 l 1,5,-1
 30 648 l 1,6,-1
 -38 717 l 1,7,-1
 106 717 l 1,8,-1
 331 112 l 1,0,-1
EndSplineSet
Validated: 1
EndChar

StartChar: W
Encoding: 87 87 58
Width: 1062
GlyphClass: 1
Flags: W
LayerCount: 2
Fore
SplineSet
755 112 m 1,0,-1
 912 717 l 1,1,-1
 1058 717 l 1,2,-1
 996 655 l 1,3,-1
 805 0 l 1,4,-1
 697 0 l 1,5,-1
 528 588 l 1,6,-1
 353 0 l 1,7,-1
 246 0 l 1,8,-1
 61 658 l 1,9,-1
 3 717 l 1,10,-1
 147 717 l 1,11,-1
 306 111 l 1,12,-1
 485 702 l 1,13,-1
 573 702 l 1,14,-1
 755 112 l 1,0,-1
EndSplineSet
Validated: 1
EndChar

StartChar: X
Encoding: 88 88 59
Width: 613
GlyphClass: 1
Flags: W
LayerCount: 2
Fore
SplineSet
299 293 m 1,0,-1
 112 0 l 1,1,-1
 -30 0 l 1,2,-1
 89 119 l 1,3,-1
 250 357 l 1,4,-1
 9 717 l 1,5,-1
 122 717 l 1,6,-1
 306 437 l 1,7,-1
 505 717 l 1,8,-1
 607 717 l 1,9,-1
 351 370 l 1,10,-1
 521 124 l 1,11,-1
 646 0 l 1,12,-1
 506 0 l 1,13,-1
 299 293 l 1,0,-1
EndSplineSet
Validated: 1
EndChar

StartChar: Y
Encoding: 89 89 60
Width: 580
GlyphClass: 1
Flags: W
LayerCount: 2
Fore
SplineSet
341 53 m 1,0,-1
 394 0 l 1,1,-1
 185 0 l 1,2,-1
 240 54 l 1,3,-1
 240 331 l 1,4,-1
 -3 717 l 1,5,-1
 99 717 l 1,6,-1
 290 419 l 1,7,-1
 480 717 l 1,8,-1
 583 717 l 1,9,-1
 341 331 l 1,10,-1
 341 53 l 1,0,-1
EndSplineSet
Validated: 1
EndChar

StartChar: Z
Encoding: 90 90 61
Width: 562
GlyphClass: 1
Flags: W
LayerCount: 2
Fore
SplineSet
55 580 m 1,0,-1
 55 717 l 1,1,-1
 555 717 l 1,2,-1
 169 88 l 1,3,-1
 460 88 l 1,4,-1
 509 137 l 1,5,-1
 509 0 l 1,6,-1
 9 0 l 1,7,-1
 394 629 l 1,8,-1
 104 629 l 1,9,-1
 55 580 l 1,0,-1
EndSplineSet
Validated: 1
EndChar

StartChar: bracketleft
Encoding: 91 91 62
Width: 334
GlyphClass: 1
Flags: W
LayerCount: 2
Fore
SplineSet
157 -69 m 1,0,-1
 335 -69 l 1,1,-1
 335 -138 l 1,2,-1
 72 -138 l 1,3,-1
 72 768 l 1,4,-1
 335 768 l 1,5,-1
 335 698 l 1,6,-1
 157 698 l 1,7,-1
 157 -69 l 1,0,-1
EndSplineSet
Validated: 1
EndChar

StartChar: backslash
Encoding: 92 92 63
Width: 537
GlyphClass: 1
Flags: W
LayerCount: 2
Fore
SplineSet
36 717 m 1,0,-1
 131 717 l 1,1,-1
 518 -87 l 1,2,-1
 423 -87 l 1,3,-1
 36 717 l 1,0,-1
EndSplineSet
Validated: 1
EndChar

StartChar: bracketright
Encoding: 93 93 64
Width: 334
GlyphClass: 1
Flags: W
LayerCount: 2
Fore
SplineSet
178 698 m 1,0,-1
 0 698 l 1,1,-1
 0 768 l 1,2,-1
 263 768 l 1,3,-1
 263 -138 l 1,4,-1
 0 -138 l 1,5,-1
 0 -69 l 1,6,-1
 178 -69 l 1,7,-1
 178 698 l 1,0,-1
EndSplineSet
Validated: 1
EndChar

StartChar: asciicircum
Encoding: 94 94 65
Width: 523
GlyphClass: 1
Flags: W
LayerCount: 2
Fore
SplineSet
261 777 m 1,0,-1
 472 556 l 1,1,-1
 472 447 l 1,2,-1
 261 669 l 1,3,-1
 50 447 l 1,4,-1
 50 556 l 1,5,-1
 261 777 l 1,0,-1
EndSplineSet
Validated: 1
EndChar

StartChar: underscore
Encoding: 95 95 66
Width: 579
GlyphClass: 1
Flags: W
LayerCount: 2
Fore
SplineSet
3 -37 m 1,0,-1
 577 -37 l 1,1,-1
 577 -125 l 1,2,-1
 3 -125 l 1,3,-1
 3 -37 l 1,0,-1
EndSplineSet
Validated: 1
EndChar

StartChar: grave
Encoding: 96 96 67
Width: 310
GlyphClass: 1
Flags: W
LayerCount: 2
Fore
SplineSet
59 750 m 1,0,-1
 251 652 l 1,1,-1
 251 610 l 1,2,-1
 59 676 l 1,3,-1
 59 750 l 1,0,-1
EndSplineSet
Validated: 1
EndChar

StartChar: a
Encoding: 97 97 68
Width: 491
GlyphClass: 1
Flags: W
LayerCount: 2
Fore
SplineSet
70 323 m 1,0,-1
 70 460 l 1,1,2
 137 512 137 512 240 512 c 0,3,4
 336 512 336 512 377 458 c 0,5,6
 417 403 417 403 417 271 c 2,7,-1
 417 169 l 2,8,9
 417 109 417 109 428 85 c 0,10,11
 438 63 438 63 474 63 c 2,12,-1
 483 63 l 1,13,-1
 469 -10 l 1,14,-1
 462 -10 l 2,15,16
 402 -10 402 -10 377 5 c 0,17,18
 353 19 353 19 333 63 c 1,19,20
 270 -10 270 -10 179 -10 c 0,21,22
 108 -10 108 -10 67 30 c 0,23,24
 25 70 25 70 25 135 c 0,25,26
 25 184 25 184 52 220 c 128,-1,27
 79 256 79 256 126 276 c 0,28,29
 171 295 171 295 221 304 c 0,30,31
 267 312 267 312 325 314 c 1,32,33
 325 380 325 380 300 405 c 128,-1,34
 275 430 275 430 215 430 c 0,35,36
 197 430 197 430 172 425 c 1,37,-1
 70 323 l 1,0,-1
325 131 m 1,38,-1
 325 251 l 1,39,40
 211 246 211 246 167 222 c 0,41,42
 119 196 119 196 119 140 c 0,43,44
 119 63 119 63 197 63 c 0,45,46
 234 63 234 63 268 82 c 0,47,48
 303 100 303 100 325 131 c 1,38,-1
EndSplineSet
Validated: 1
EndChar

StartChar: b
Encoding: 98 98 69
Width: 568
GlyphClass: 1
Flags: W
LayerCount: 2
Fore
SplineSet
154 63 m 1,0,-1
 143 0 l 1,1,-1
 2 0 l 1,2,-1
 61 59 l 1,3,-1
 61 768 l 1,4,-1
 154 768 l 1,5,-1
 154 447 l 1,6,7
 208 512 208 512 309 512 c 0,8,9
 408 512 408 512 472 436 c 128,-1,10
 536 360 536 360 536 251 c 0,11,12
 536 144 536 144 470 67 c 128,-1,13
 404 -10 404 -10 308 -10 c 0,14,15
 271 -10 271 -10 223 10 c 0,16,17
 177 29 177 29 154 63 c 1,0,-1
298 430 m 0,18,19
 236 430 236 430 192 382 c 0,20,21
 148 333 148 333 148 251 c 0,22,23
 148 165 148 165 191 119 c 0,24,25
 233 72 233 72 298 72 c 0,26,27
 360 72 360 72 401 125 c 0,28,29
 441 177 441 177 441 251 c 0,30,31
 441 328 441 328 402 379 c 0,32,33
 362 430 362 430 298 430 c 0,18,19
EndSplineSet
Validated: 1
EndChar

StartChar: c
Encoding: 99 99 70
Width: 464
GlyphClass: 1
Flags: W
LayerCount: 2
Fore
SplineSet
284 -10 m 0,0,1
 167 -10 167 -10 101 63 c 0,2,3
 34 136 34 136 34 252 c 0,4,5
 34 370 34 370 100 441 c 0,6,7
 165 512 165 512 283 512 c 0,8,9
 380 512 380 512 437 482 c 1,10,-1
 426 417 l 1,11,-1
 426 338 l 1,12,-1
 337 427 l 1,13,14
 314 430 314 430 293 430 c 0,15,16
 128 430 128 430 128 252 c 0,17,18
 128 164 128 164 170 118 c 0,19,20
 211 71 211 71 293 71 c 0,21,22
 299 71 299 71 331 73 c 1,23,-1
 426 168 l 1,24,-1
 426 89 l 1,25,-1
 436 28 l 1,26,27
 380 -10 380 -10 284 -10 c 0,0,1
EndSplineSet
Validated: 1
EndChar

StartChar: d
Encoding: 100 100 71
Width: 568
GlyphClass: 1
Flags: W
LayerCount: 2
Fore
SplineSet
507 62 m 1,0,-1
 569 0 l 1,1,-1
 425 0 l 1,2,-1
 415 63 l 1,3,4
 392 29 392 29 346 10 c 0,5,6
 298 -10 298 -10 261 -10 c 0,7,8
 165 -10 165 -10 99 66 c 128,-1,9
 33 142 33 142 33 251 c 128,-1,10
 33 360 33 360 97 436 c 128,-1,11
 161 512 161 512 261 512 c 0,12,13
 362 512 362 512 415 449 c 1,14,-1
 415 768 l 1,15,-1
 507 768 l 1,16,-1
 507 62 l 1,0,-1
268 430 m 0,17,18
 203 430 203 430 166 381 c 0,19,20
 127 332 127 332 127 251 c 0,21,22
 127 176 127 176 165 124 c 0,23,24
 202 72 202 72 268 72 c 128,-1,25
 334 72 334 72 380 118 c 0,26,27
 425 163 425 163 425 248 c 0,28,29
 425 330 425 330 378 380 c 128,-1,30
 331 430 331 430 268 430 c 0,17,18
EndSplineSet
Validated: 1
EndChar

StartChar: e
Encoding: 101 101 72
Width: 524
GlyphClass: 1
Flags: W
LayerCount: 2
Fore
SplineSet
489 251 m 1,0,-1
 126 251 l 1,1,2
 143 72 143 72 314 72 c 0,3,4
 342 72 342 72 367 75 c 1,5,-1
 462 170 l 1,6,-1
 462 83 l 1,7,-1
 471 29 l 1,8,9
 382 -10 382 -10 303 -10 c 0,10,11
 178 -10 178 -10 105 65 c 0,12,13
 32 138 32 138 32 255 c 0,14,15
 32 365 32 365 100 439 c 0,16,17
 167 512 167 512 278 512 c 0,18,19
 375 512 375 512 435 455 c 0,20,21
 494 398 494 398 494 300 c 0,22,23
 494 276 494 276 489 251 c 1,0,-1
275 430 m 0,24,25
 163 430 163 430 134 314 c 1,26,-1
 398 314 l 1,27,28
 398 430 398 430 275 430 c 0,24,25
EndSplineSet
Validated: 1
EndChar

StartChar: f
Encoding: 102 102 73
Width: 338
GlyphClass: 1
Flags: W
LayerCount: 2
Fore
SplineSet
189 430 m 1,0,-1
 189 0 l 1,1,-1
 44 0 l 1,2,-1
 97 53 l 1,3,-1
 97 430 l 1,4,-1
 10 430 l 1,5,-1
 23 502 l 1,6,-1
 97 502 l 1,7,-1
 97 629 l 2,8,9
 97 693 97 693 128 730 c 0,10,11
 160 768 160 768 214 768 c 0,12,13
 282 768 282 768 318 755 c 1,14,-1
 304 677 l 1,15,16
 276 686 276 686 243 686 c 0,17,18
 208 686 208 686 199 665 c 0,19,20
 189 645 189 645 189 563 c 2,21,-1
 189 502 l 1,22,-1
 325 502 l 1,23,-1
 325 430 l 1,24,-1
 189 430 l 1,0,-1
EndSplineSet
Validated: 1
EndChar

StartChar: g
Encoding: 103 103 74
Width: 509
GlyphClass: 1
Flags: W
LayerCount: 2
Fore
SplineSet
261 -256 m 0,0,1
 149 -256 149 -256 88 -212 c 0,2,3
 27 -169 27 -169 27 -104 c 0,4,5
 27 -25 27 -25 116 8 c 1,6,7
 65 32 65 32 65 72 c 0,8,9
 65 117 65 117 124 146 c 1,10,11
 37 209 37 209 37 310 c 0,12,13
 37 399 37 399 92 455 c 0,14,15
 148 512 148 512 242 512 c 0,16,17
 312 512 312 512 370 475 c 1,18,19
 426 504 426 504 492 504 c 2,20,-1
 500 504 l 1,21,-1
 488 442 l 1,22,-1
 465 442 l 2,23,24
 430 442 430 442 406 435 c 1,25,26
 452 380 452 380 452 315 c 0,27,28
 452 234 452 234 396 175 c 128,-1,29
 340 116 340 116 249 116 c 0,30,31
 210 116 210 116 177 125 c 1,32,33
 153 112 153 112 153 94 c 0,34,35
 153 77 153 77 172 70 c 0,36,37
 189 63 189 63 271 48 c 0,38,39
 278 47 278 47 290.5 44.5 c 128,-1,40
 303 42 303 42 308 41 c 0,41,42
 318 39 318 39 337 35.5 c 128,-1,43
 356 32 356 32 364 30 c 0,44,45
 383 25 383 25 418 13 c 0,46,47
 443 4 443 4 466 -12 c 0,48,49
 485 -26 485 -26 498 -48 c 0,50,51
 512 -71 512 -71 513 -98 c 0,52,53
 513 -164 513 -164 444 -210 c 0,54,55
 376 -256 376 -256 261 -256 c 0,0,1
243 438 m 128,-1,57
 188 438 188 438 157 404 c 0,58,59
 125 369 125 369 125 313 c 0,60,61
 125 256 125 256 158 221 c 128,-1,62
 191 186 191 186 245 186 c 0,63,64
 301 186 301 186 332 223 c 0,65,66
 364 260 364 260 364 316 c 0,67,68
 364 374 364 374 332 406 c 0,69,56
 298 438 298 438 243 438 c 128,-1,57
286 -27 m 0,70,71
 272 -27 272 -27 195 -14 c 1,72,73
 159 -25 159 -25 138 -49 c 0,74,75
 115 -75 115 -75 115 -102 c 0,76,77
 115 -138 115 -138 156 -161 c 128,-1,78
 197 -184 197 -184 265 -184 c 0,79,80
 336 -184 336 -184 378 -160 c 0,81,82
 420 -138 420 -138 420 -104 c 0,83,84
 420 -51 420 -51 286 -27 c 0,70,71
EndSplineSet
Validated: 1
EndChar

StartChar: h
Encoding: 104 104 75
Width: 555
GlyphClass: 1
Flags: W
LayerCount: 2
Fore
SplineSet
155 365 m 1,0,-1
 155 0 l 1,1,-1
 10 0 l 1,2,-1
 61 51 l 1,3,-1
 61 768 l 1,4,-1
 155 768 l 1,5,-1
 155 447 l 1,6,7
 206 512 206 512 300 512 c 0,8,9
 498 512 498 512 498 268 c 2,10,-1
 498 52 l 1,11,-1
 550 0 l 1,12,-1
 406 0 l 1,13,-1
 406 268 l 2,14,15
 406 356 406 356 380 394 c 0,16,17
 353 430 353 430 286 430 c 0,18,19
 196 430 196 430 155 365 c 1,0,-1
EndSplineSet
Validated: 1
EndChar

StartChar: i
Encoding: 105 105 76
Width: 217
GlyphClass: 1
Flags: W
LayerCount: 2
Fore
SplineSet
155 502 m 1,0,-1
 155 0 l 1,1,-1
 10 0 l 1,2,-1
 62 52 l 1,3,-1
 62 502 l 1,4,-1
 155 502 l 1,0,-1
62 717 m 1,5,-1
 155 717 l 1,6,-1
 155 614 l 1,7,-1
 62 614 l 1,8,-1
 62 717 l 1,5,-1
EndSplineSet
Validated: 1
EndChar

StartChar: j
Encoding: 106 106 77
Width: 217
GlyphClass: 1
Flags: W
LayerCount: 2
Fore
SplineSet
29 -243 m 2,0,-1
 -1 -248 l 1,1,-1
 -31 -248 l 1,2,-1
 -31 -111 l 1,3,-1
 28 -169 l 1,4,5
 40 -164 40 -164 47 -154 c 0,6,7
 62 -136 62 -136 62 -75 c 2,8,-1
 62 502 l 1,9,-1
 155 502 l 1,10,-1
 155 -110 l 2,11,12
 155 -224 155 -224 29 -243 c 2,0,-1
62 717 m 1,13,-1
 155 717 l 1,14,-1
 155 614 l 1,15,-1
 62 614 l 1,16,-1
 62 717 l 1,13,-1
EndSplineSet
Validated: 1
EndChar

StartChar: k
Encoding: 107 107 78
Width: 458
GlyphClass: 1
Flags: W
LayerCount: 2
Fore
SplineSet
154 255 m 1,0,-1
 154 0 l 1,1,-1
 10 0 l 1,2,-1
 61 51 l 1,3,-1
 61 768 l 1,4,-1
 154 768 l 1,5,-1
 154 275 l 1,6,-1
 338 502 l 1,7,-1
 451 502 l 1,8,-1
 244 270 l 1,9,-1
 456 0 l 1,10,-1
 343 0 l 1,11,-1
 154 255 l 1,0,-1
EndSplineSet
Validated: 1
EndChar

StartChar: l
Encoding: 108 108 79
Width: 241
GlyphClass: 1
Flags: W
LayerCount: 2
Fore
SplineSet
234 63 m 1,0,-1
 221 -10 l 1,1,-1
 191 -10 l 2,2,3
 126 -10 126 -10 94 23 c 0,4,5
 61 56 61 56 61 111 c 2,6,-1
 61 768 l 1,7,-1
 154 768 l 1,8,-1
 154 164 l 2,9,10
 154 97 154 97 167 81 c 0,11,12
 180 63 180 63 234 63 c 1,0,-1
EndSplineSet
Validated: 1
EndChar

StartChar: m
Encoding: 109 109 80
Width: 898
GlyphClass: 1
Flags: W
LayerCount: 2
Fore
SplineSet
155 365 m 1,0,-1
 155 0 l 1,1,-1
 10 0 l 1,2,-1
 62 52 l 1,3,-1
 62 502 l 1,4,-1
 134 502 l 1,5,-1
 144 449 l 1,6,7
 184 486 184 486 217 499 c 128,-1,8
 250 512 250 512 295 512 c 0,9,10
 410 512 410 512 465 412 c 1,11,12
 517 512 517 512 648 512 c 0,13,14
 841 512 841 512 841 296 c 2,15,-1
 841 52 l 1,16,-1
 893 0 l 1,17,-1
 749 0 l 1,18,-1
 749 295 l 2,19,20
 749 367 749 367 721 398 c 0,21,22
 692 430 692 430 631 430 c 0,23,24
 498 430 498 430 498 291 c 2,25,-1
 498 0 l 1,26,-1
 406 0 l 1,27,-1
 406 276 l 2,28,29
 406 360 406 360 377 395 c 128,-1,30
 348 430 348 430 288 430 c 0,31,32
 193 430 193 430 155 365 c 1,0,-1
EndSplineSet
Validated: 1
EndChar

StartChar: n
Encoding: 110 110 81
Width: 572
GlyphClass: 1
Flags: W
LayerCount: 2
Fore
SplineSet
155 365 m 1,0,-1
 155 0 l 1,1,-1
 10 0 l 1,2,-1
 62 52 l 1,3,-1
 62 502 l 1,4,-1
 134 502 l 1,5,-1
 144 449 l 1,6,7
 216 512 216 512 310 512 c 0,8,9
 515 512 515 512 515 276 c 2,10,-1
 515 52 l 1,11,-1
 567 0 l 1,12,-1
 423 0 l 1,13,-1
 423 276 l 2,14,15
 423 356 423 356 393 394 c 0,16,17
 362 430 362 430 292 430 c 0,18,19
 193 430 193 430 155 365 c 1,0,-1
EndSplineSet
Validated: 1
EndChar

StartChar: o
Encoding: 111 111 82
Width: 563
GlyphClass: 1
Flags: W
LayerCount: 2
Fore
SplineSet
463 63 m 0,0,1
 397 -10 397 -10 282 -10 c 0,2,3
 169 -10 169 -10 101 64 c 128,-1,4
 33 138 33 138 33 251 c 0,5,6
 33 365 33 365 101 439 c 0,7,8
 168 512 168 512 282 512 c 0,9,10
 394 512 394 512 462 438 c 128,-1,11
 530 364 530 364 530 251 c 0,12,13
 530 136 530 136 463 63 c 0,0,1
395 383 m 128,-1,15
 354 430 354 430 282 430 c 0,16,17
 208 430 208 430 168 384 c 0,18,19
 127 337 127 337 127 251 c 0,20,21
 127 166 127 166 168 119 c 128,-1,22
 209 72 209 72 282 72 c 0,23,24
 356 72 356 72 396 120 c 0,25,26
 436 166 436 166 436 251 c 128,-1,14
 436 336 436 336 395 383 c 128,-1,15
EndSplineSet
Validated: 1
EndChar

StartChar: p
Encoding: 112 112 83
Width: 570
GlyphClass: 1
Flags: W
LayerCount: 2
Fore
SplineSet
312 -10 m 0,0,1
 275 -10 275 -10 227 10 c 0,2,3
 181 29 181 29 155 63 c 1,4,-1
 155 -248 l 1,5,-1
 62 -248 l 1,6,-1
 62 447 l 1,7,-1
 8 502 l 1,8,-1
 134 502 l 1,9,-1
 144 430 l 1,10,11
 180 473 180 473 218 493 c 0,12,13
 255 512 255 512 313 512 c 0,14,15
 412 512 412 512 475 436 c 0,16,17
 537 359 537 359 537 251 c 0,18,19
 537 135 537 135 478 62 c 0,20,21
 418 -10 418 -10 312 -10 c 0,0,1
302 430 m 0,22,23
 240 430 240 430 195 381 c 128,-1,24
 150 332 150 332 150 251 c 0,25,26
 150 166 150 166 194 119 c 128,-1,27
 238 72 238 72 302 72 c 0,28,29
 365 72 365 72 404 123 c 0,30,31
 442 173 442 173 442 251 c 0,32,33
 442 331 442 331 404 381 c 0,34,35
 367 430 367 430 302 430 c 0,22,23
EndSplineSet
Validated: 1
EndChar

StartChar: q
Encoding: 113 113 84
Width: 570
GlyphClass: 1
Flags: W
LayerCount: 2
Fore
SplineSet
426 430 m 1,0,-1
 436 502 l 1,1,-1
 562 502 l 1,2,-1
 508 447 l 1,3,-1
 508 -248 l 1,4,-1
 416 -248 l 1,5,-1
 416 63 l 1,6,7
 391 30 391 30 345 11 c 0,8,9
 298 -10 298 -10 258 -10 c 0,10,11
 152 -10 152 -10 93 62 c 0,12,13
 34 135 34 135 34 251 c 0,14,15
 34 359 34 359 96 436 c 0,16,17
 157 512 157 512 257 512 c 0,18,19
 315 512 315 512 352 493 c 0,20,21
 390 473 390 473 426 430 c 1,0,-1
268 430 m 0,22,23
 203 430 203 430 166 381 c 0,24,25
 128 331 128 331 128 251 c 0,26,27
 128 172 128 172 167 123 c 0,28,29
 204 72 204 72 268 72 c 0,30,31
 334 72 334 72 377 120 c 0,32,33
 421 167 421 167 421 251 c 0,34,35
 421 332 421 332 376 381 c 0,36,37
 330 430 330 430 268 430 c 0,22,23
EndSplineSet
Validated: 1
EndChar

StartChar: r
Encoding: 114 114 85
Width: 328
GlyphClass: 1
Flags: W
LayerCount: 2
Fore
SplineSet
161 354 m 1,0,-1
 161 0 l 1,1,-1
 14 0 l 1,2,-1
 62 48 l 1,3,-1
 62 502 l 1,4,-1
 138 502 l 1,5,-1
 150 419 l 1,6,7
 196 472 196 472 236 497 c 0,8,9
 274 520 274 520 319 520 c 2,10,-1
 328 520 l 1,11,-1
 307 419 l 1,12,-1
 275 419 l 2,13,14
 246 419 246 419 209 399 c 0,15,16
 173 378 173 378 161 354 c 1,0,-1
EndSplineSet
Validated: 1
EndChar

StartChar: s
Encoding: 115 115 86
Width: 423
GlyphClass: 1
Flags: W
LayerCount: 2
Fore
SplineSet
33 34 m 1,0,-1
 33 171 l 1,1,-1
 121 83 l 1,2,3
 162 72 162 72 201 72 c 0,4,5
 301 72 301 72 301 134 c 0,6,7
 301 192 301 192 201 217 c 0,8,9
 153 228 153 228 124 241 c 0,10,11
 93 253 93 253 70 284 c 0,12,13
 44 316 44 316 43 361 c 0,14,15
 43 429 43 429 91 471 c 0,16,17
 140 512 140 512 231 512 c 0,18,19
 300 512 300 512 368 479 c 1,20,-1
 368 342 l 1,21,-1
 274 435 l 1,22,23
 259 439 259 439 233 439 c 0,24,25
 136 439 136 439 136 372 c 0,26,27
 136 339 136 339 158 326 c 0,28,29
 180 311 180 311 253 289 c 0,30,31
 396 248 396 248 396 139 c 0,32,33
 396 77 396 77 353 34 c 0,34,35
 309 -10 309 -10 205 -10 c 0,36,37
 95 -10 95 -10 33 34 c 1,0,-1
EndSplineSet
Validated: 1
EndChar

StartChar: t
Encoding: 116 116 87
Width: 345
GlyphClass: 1
Flags: W
LayerCount: 2
Fore
SplineSet
242 66 m 2,0,-1
 262 63 l 1,1,-1
 326 127 l 1,2,-1
 326 -10 l 1,3,-1
 236 -10 l 2,4,5
 172 -10 172 -10 138 24 c 0,6,7
 104 57 104 57 104 110 c 2,8,-1
 104 430 l 1,9,-1
 18 430 l 1,10,-1
 27 502 l 1,11,-1
 104 502 l 1,12,-1
 104 626 l 1,13,-1
 197 635 l 1,14,-1
 197 502 l 1,15,-1
 329 502 l 1,16,-1
 329 430 l 1,17,-1
 197 430 l 1,18,-1
 197 166 l 2,19,20
 197 107 197 107 204 89 c 0,21,22
 211 70 211 70 242 66 c 2,0,-1
EndSplineSet
Validated: 1
EndChar

StartChar: u
Encoding: 117 117 88
Width: 536
GlyphClass: 1
Flags: W
LayerCount: 2
Fore
SplineSet
57 450 m 1,0,-1
 5 502 l 1,1,-1
 150 502 l 1,2,-1
 150 236 l 2,3,4
 150 72 150 72 266 72 c 0,5,6
 346 72 346 72 382 129 c 1,7,-1
 382 502 l 1,8,-1
 528 502 l 1,9,-1
 474 447 l 1,10,-1
 474 0 l 1,11,-1
 392 0 l 1,12,-1
 382 55 l 1,13,14
 335 -10 335 -10 243 -10 c 0,15,16
 57 -10 57 -10 57 210 c 2,17,-1
 57 450 l 1,0,-1
EndSplineSet
Validated: 1
EndChar

StartChar: v
Encoding: 118 118 89
Width: 503
GlyphClass: 1
Flags: W
LayerCount: 2
Fore
SplineSet
252 101 m 1,0,-1
 391 502 l 1,1,-1
 530 502 l 1,2,-1
 472 443 l 1,3,-1
 304 0 l 1,4,-1
 201 0 l 1,5,-1
 32 442 l 1,6,-1
 -28 502 l 1,7,-1
 112 502 l 1,8,-1
 252 101 l 1,0,-1
EndSplineSet
Validated: 1
EndChar

StartChar: w
Encoding: 119 119 90
Width: 742
GlyphClass: 1
Flags: W
LayerCount: 2
Fore
SplineSet
526 101 m 1,0,-1
 623 502 l 1,1,-1
 764 502 l 1,2,-1
 717 455 l 1,3,-1
 580 0 l 1,4,-1
 476 0 l 1,5,-1
 372 371 l 1,6,-1
 266 0 l 1,7,-1
 163 0 l 1,8,-1
 26 455 l 1,9,-1
 -20 502 l 1,10,-1
 121 502 l 1,11,-1
 217 101 l 1,12,-1
 324 486 l 1,13,-1
 419 486 l 1,14,-1
 526 101 l 1,0,-1
EndSplineSet
Validated: 1
EndChar

StartChar: x
Encoding: 120 120 91
Width: 485
GlyphClass: 1
Flags: W
LayerCount: 2
Fore
SplineSet
244 198 m 1,0,-1
 115 0 l 1,1,-1
 -24 0 l 1,2,-1
 92 116 l 1,3,-1
 186 250 l 1,4,-1
 15 502 l 1,5,-1
 119 502 l 1,6,-1
 245 303 l 1,7,-1
 360 502 l 1,8,-1
 468 502 l 1,9,-1
 303 258 l 1,10,-1
 403 106 l 1,11,-1
 510 0 l 1,12,-1
 371 0 l 1,13,-1
 244 198 l 1,0,-1
EndSplineSet
Validated: 1
EndChar

StartChar: y
Encoding: 121 121 92
Width: 517
GlyphClass: 1
Flags: W
LayerCount: 2
Fore
SplineSet
266 129 m 1,0,-1
 408 502 l 1,1,-1
 549 502 l 1,2,-1
 482 435 l 1,3,-1
 203 -248 l 1,4,-1
 100 -248 l 1,5,-1
 216 23 l 1,6,-1
 36 434 l 1,7,-1
 -31 502 l 1,8,-1
 110 502 l 1,9,-1
 266 129 l 1,0,-1
EndSplineSet
Validated: 1
EndChar

StartChar: z
Encoding: 122 122 93
Width: 482
GlyphClass: 1
Flags: W
LayerCount: 2
Fore
SplineSet
33 367 m 1,0,-1
 33 502 l 1,1,-1
 457 502 l 1,2,-1
 189 72 l 1,3,-1
 390 72 l 1,4,-1
 452 133 l 1,5,-1
 452 0 l 1,6,-1
 23 0 l 1,7,-1
 290 430 l 1,8,-1
 96 430 l 1,9,-1
 33 367 l 1,0,-1
EndSplineSet
Validated: 1
EndChar

StartChar: braceleft
Encoding: 123 123 94
Width: 306
GlyphClass: 1
Flags: W
LayerCount: 2
Fore
SplineSet
85 14 m 0,0,1
 85 29 85 29 89 85 c 128,-1,2
 93 141 93 141 93 163 c 0,3,4
 93 218 93 218 76 254 c 0,5,6
 60 288 60 288 19 314 c 1,7,8
 58 341 58 341 76 377 c 0,9,10
 93 413 93 413 93 467 c 0,11,12
 93 489 93 489 89 544 c 128,-1,13
 85 599 85 599 85 614 c 0,14,15
 85 690 85 690 136 727 c 0,16,17
 186 763 186 763 304 768 c 1,18,-1
 304 697 l 1,19,20
 262 695 262 695 244 693 c 0,21,22
 220 689 220 689 203 678 c 0,23,24
 186 665 186 665 179 656 c 0,25,26
 171 646 171 646 166 622 c 0,27,28
 161 594 161 594 161 579 c 0,29,30
 160 567 160 567 160 522 c 0,31,32
 160 520 160 520 160.5 514.5 c 128,-1,33
 161 509 161 509 161.5 499 c 128,-1,34
 162 489 162 489 162 479 c 0,35,36
 163 454 163 454 163 434 c 0,37,38
 163 395 163 395 146 369 c 0,39,40
 129 342 129 342 78 314 c 1,41,42
 130 286 130 286 147 263 c 0,43,44
 163 241 163 241 163 204 c 0,45,46
 163 185 163 185 162 158 c 0,47,48
 162 147 162 147 161.5 135.5 c 128,-1,49
 161 124 161 124 160.5 117.5 c 128,-1,50
 160 111 160 111 160 108 c 0,51,52
 160 -3 160 -3 184 -32 c 0,53,54
 206 -62 206 -62 304 -68 c 1,55,-1
 304 -138 l 1,56,57
 187 -133 187 -133 137 -97 c 0,58,59
 85 -61 85 -61 85 14 c 0,0,1
EndSplineSet
Validated: 1
EndChar

StartChar: bar
Encoding: 124 124 95
Width: 234
GlyphClass: 1
Flags: W
LayerCount: 2
Fore
SplineSet
72 768 m 1,0,-1
 163 768 l 1,1,-1
 163 -214 l 1,2,-1
 72 -214 l 1,3,-1
 72 768 l 1,0,-1
EndSplineSet
Validated: 1
EndChar

StartChar: braceright
Encoding: 125 125 96
Width: 306
GlyphClass: 1
Flags: W
LayerCount: 2
Fore
SplineSet
221 14 m 0,0,1
 221 -61 221 -61 170 -97 c 128,-1,2
 119 -133 119 -133 2 -138 c 1,3,-1
 2 -68 l 1,4,5
 29 -66 29 -66 50 -65 c 0,6,7
 70 -63 70 -63 85 -56 c 0,8,9
 102 -49 102 -49 111 -44 c 0,10,11
 119 -40 119 -40 128 -25 c 2,12,-1
 139 -3 l 2,13,14
 143 8 143 8 144 27 c 0,15,16
 144 33 144 33 144.5 44 c 128,-1,17
 145 55 145 55 146 60 c 2,18,-1
 146 101 l 1,19,-1
 146 108 l 2,20,21
 146 131 146 131 145 158 c 0,22,23
 145 169 145 169 144.5 180 c 128,-1,24
 144 191 144 191 143.5 196.5 c 128,-1,25
 143 202 143 202 143 204 c 0,26,27
 143 239 143 239 160 264 c 0,28,29
 177 287 177 287 228 314 c 1,30,31
 177 342 177 342 160 369 c 0,32,33
 143 395 143 395 143 434 c 0,34,35
 143 436 143 436 143.5 441.5 c 128,-1,36
 144 447 144 447 144.5 458 c 128,-1,37
 145 469 145 469 145 479 c 0,38,39
 146 503 146 503 146 522 c 0,40,41
 146 633 146 633 123 662 c 0,42,43
 99 691 99 691 2 697 c 1,44,-1
 2 768 l 1,45,46
 120 763 120 763 170 727 c 0,47,48
 221 690 221 690 221 614 c 0,49,50
 221 599 221 599 217 544 c 128,-1,51
 213 489 213 489 213 467 c 0,52,53
 213 412 213 412 231 377 c 0,54,55
 247 342 247 342 287 314 c 1,56,57
 246 288 246 288 230 254 c 0,58,59
 213 218 213 218 213 163 c 0,60,61
 213 141 213 141 217 85 c 128,-1,62
 221 29 221 29 221 14 c 0,0,1
EndSplineSet
Validated: 1
EndChar

StartChar: asciitilde
Encoding: 126 126 97
Width: 465
GlyphClass: 1
Flags: W
LayerCount: 2
Fore
SplineSet
300 183 m 0,0,1
 285 183 285 183 231 210 c 0,2,3
 174 236 174 236 165 236 c 0,4,5
 110 236 110 236 92 185 c 1,6,-1
 55 195 l 1,7,8
 65 237 65 237 97 263 c 0,9,10
 127 287 127 287 161 287 c 0,11,12
 180 287 180 287 234 262 c 128,-1,13
 288 237 288 237 304 237 c 0,14,15
 348 237 348 237 375 289 c 1,16,-1
 410 280 l 1,17,18
 399 236 399 236 369 210 c 0,19,20
 339 183 339 183 300 183 c 0,0,1
EndSplineSet
Validated: 1
EndChar

StartChar: exclamdown
Encoding: 161 161 98
Width: 229
GlyphClass: 1
Flags: W
LayerCount: 2
Fore
SplineSet
147 307 m 1,0,-1
 178 -256 l 1,1,-1
 51 -256 l 1,2,-1
 82 307 l 1,3,-1
 147 307 l 1,0,-1
158 424 m 1,4,-1
 72 424 l 1,5,-1
 72 512 l 1,6,-1
 158 512 l 1,7,-1
 158 424 l 1,4,-1
EndSplineSet
Validated: 1
EndChar

StartChar: cent
Encoding: 162 162 99
Width: 569
GlyphClass: 1
Flags: W
LayerCount: 2
Fore
SplineSet
372 458 m 1,0,-1
 261 74 l 1,1,2
 274 70 274 70 292 70 c 0,3,4
 344 70 344 70 382 106 c 128,-1,5
 420 142 420 142 427 205 c 1,6,-1
 517 195 l 1,7,8
 500 103 500 103 440 50 c 0,9,10
 378 -4 378 -4 293 -4 c 0,11,12
 264 -4 264 -4 242 3 c 1,13,-1
 193 -169 l 1,14,-1
 137 -153 l 1,15,-1
 184 20 l 1,16,17
 124 49 124 49 89 115 c 0,18,19
 53 180 53 180 53 273 c 0,20,21
 53 360 53 360 82 426 c 0,22,23
 110 486 110 486 168 521 c 0,24,25
 225 554 225 554 289 554 c 0,26,27
 314 554 314 554 339 550 c 1,28,-1
 383 703 l 1,29,-1
 438 687 l 1,30,-1
 394 534 l 1,31,32
 443 513 443 513 470 477 c 0,33,34
 496 440 496 440 508 385 c 1,35,-1
 420 372 l 1,36,37
 406 431 406 431 372 458 c 1,0,-1
208 98 m 1,38,-1
 319 480 l 1,39,40
 312 481 312 481 294 481 c 0,41,42
 229 483 229 483 186 428 c 0,43,44
 142 371 142 371 146 278 c 1,45,46
 146 145 146 145 208 98 c 1,38,-1
EndSplineSet
Validated: 33
EndChar

StartChar: sterling
Encoding: 163 163 100
Width: 512
GlyphClass: 1
Flags: W
LayerCount: 2
Fore
SplineSet
492 643 m 1,0,-1
 493 510 l 1,1,-1
 426 583 l 1,2,3
 399 640 399 640 338 640 c 0,4,5
 279 640 279 640 264 611 c 0,6,7
 248 582 248 582 248 500 c 2,8,-1
 248 404 l 1,9,-1
 444 404 l 1,10,-1
 429 316 l 1,11,-1
 242 316 l 1,12,13
 236 240 236 240 228 195 c 0,14,15
 219 156 219 156 193 88 c 1,16,-1
 460 88 l 1,17,-1
 460 0 l 1,18,-1
 35 0 l 1,19,20
 86 70 86 70 110 141 c 0,21,22
 133 212 133 212 143 316 c 1,23,-1
 46 316 l 1,24,-1
 60 404 l 1,25,-1
 150 404 l 1,26,-1
 150 522 l 2,27,28
 150 569 150 569 157 601 c 0,29,30
 165 637 165 637 182 667 c 0,31,32
 200 699 200 699 237 715 c 0,33,34
 273 731 273 731 329 731 c 0,35,36
 459 731 459 731 492 643 c 1,0,-1
EndSplineSet
Validated: 1
EndChar

StartChar: currency
Encoding: 164 164 101
Width: 659
GlyphClass: 1
Flags: W
LayerCount: 2
Fore
SplineSet
145 486 m 1,0,-1
 72 557 l 1,1,-1
 133 620 l 1,2,-1
 206 547 l 1,3,4
 261 585 261 585 330 585 c 0,5,6
 400 585 400 585 455 547 c 1,7,-1
 527 620 l 1,8,-1
 588 557 l 1,9,-1
 515 486 l 1,10,11
 553 428 553 428 553 362 c 0,12,13
 553 297 553 297 515 239 c 1,14,-1
 588 168 l 1,15,-1
 527 104 l 1,16,-1
 455 178 l 1,17,18
 400 140 400 140 330 140 c 0,19,20
 261 140 261 140 206 178 c 1,21,-1
 133 104 l 1,22,-1
 72 168 l 1,23,-1
 145 239 l 1,24,25
 109 294 109 294 109 362 c 256,26,27
 109 430 109 430 145 486 c 1,0,-1
194 362 m 0,28,29
 194 305 194 305 233 266 c 0,30,31
 273 226 273 226 330 226 c 0,32,33
 386 226 386 226 425 266 c 0,34,35
 465 306 465 306 465 362 c 0,36,37
 465 419 465 419 425 459 c 0,38,39
 386 499 386 499 330 499 c 0,40,41
 273 499 273 499 233 459 c 0,42,43
 194 420 194 420 194 362 c 0,28,29
EndSplineSet
Validated: 1
EndChar

StartChar: yen
Encoding: 165 165 102
Width: 690
GlyphClass: 1
Flags: W
LayerCount: 2
Fore
SplineSet
392 268 m 1,0,-1
 392 205 l 1,1,-1
 578 205 l 1,2,-1
 556 150 l 1,3,-1
 392 150 l 1,4,-1
 392 53 l 1,5,-1
 445 0 l 1,6,-1
 237 0 l 1,7,-1
 291 54 l 1,8,-1
 291 150 l 1,9,-1
 115 150 l 1,10,-1
 136 205 l 1,11,-1
 291 205 l 1,12,-1
 291 268 l 1,13,-1
 115 268 l 1,14,-1
 136 324 l 1,15,-1
 291 324 l 1,16,-1
 291 331 l 1,17,-1
 48 717 l 1,18,-1
 151 717 l 1,19,-1
 341 419 l 1,20,-1
 531 717 l 1,21,-1
 634 717 l 1,22,-1
 392 331 l 1,23,-1
 392 324 l 1,24,-1
 578 324 l 1,25,-1
 556 268 l 1,26,-1
 392 268 l 1,0,-1
EndSplineSet
Validated: 1
EndChar

StartChar: brokenbar
Encoding: 166 166 103
Width: 266
GlyphClass: 1
Flags: W
LayerCount: 2
Fore
SplineSet
94 321 m 1,0,-1
 94 694 l 1,1,-1
 172 694 l 1,2,-1
 172 321 l 1,3,-1
 94 321 l 1,0,-1
94 -215 m 1,4,-1
 94 159 l 1,5,-1
 172 159 l 1,6,-1
 172 -215 l 1,7,-1
 94 -215 l 1,4,-1
EndSplineSet
Validated: 1
EndChar

StartChar: section
Encoding: 167 167 104
Width: 569
GlyphClass: 1
Flags: W
LayerCount: 2
Fore
SplineSet
93 -4 m 1,0,-1
 174 8 l 1,1,2
 186 -50 186 -50 214 -74 c 0,3,4
 241 -98 241 -98 289 -98 c 0,5,6
 332 -98 332 -98 360 -75 c 0,7,8
 386 -52 386 -52 386 -19 c 0,9,10
 386 4 386 4 370 23 c 0,11,12
 345 52 345 52 217 132 c 0,13,14
 154 171 154 171 125 196 c 0,15,16
 66 249 66 249 66 315 c 0,17,18
 66 360 66 360 93 394 c 0,19,20
 121 430 121 430 166 443 c 1,21,22
 108 500 108 500 108 555 c 0,23,24
 108 611 108 611 153 653 c 0,25,26
 196 696 196 696 272 696 c 0,27,28
 440 696 440 696 460 541 c 1,29,-1
 376 531 l 1,30,31
 367 585 367 585 344 608 c 0,32,33
 322 630 322 630 279 630 c 0,34,35
 239 630 239 630 214 608 c 0,36,37
 187 586 187 586 187 558 c 0,38,39
 187 535 187 535 204 515 c 0,40,41
 231 483 231 483 340 417 c 0,42,43
 402 380 402 380 436 353 c 0,44,45
 498 300 498 300 498 236 c 0,46,47
 498 183 498 183 466 148 c 0,48,49
 446 128 446 128 395 108 c 1,50,51
 467 52 467 52 467 -18 c 0,52,53
 469 -80 469 -80 416 -124 c 0,54,55
 363 -169 363 -169 289 -166 c 0,56,57
 203 -166 203 -166 154 -123 c 0,58,59
 104 -82 104 -82 93 -4 c 1,0,-1
355 136 m 1,60,61
 421 170 421 170 421 220 c 0,62,63
 421 245 421 245 398 274 c 0,64,65
 378 299 378 299 297 350 c 0,66,67
 237 387 237 387 205 413 c 1,68,69
 138 373 138 373 138 325 c 0,70,71
 138 297 138 297 160 271 c 0,72,73
 178 248 178 248 252 203 c 0,74,75
 323 161 323 161 355 136 c 1,60,61
EndSplineSet
Validated: 33
EndChar

StartChar: dieresis
Encoding: 168 168 105
Width: 342
GlyphClass: 1
Flags: W
LayerCount: 2
Fore
SplineSet
125 695 m 1,0,-1
 125 593 l 1,1,-1
 31 593 l 1,2,-1
 31 695 l 1,3,-1
 125 695 l 1,0,-1
311 695 m 1,4,-1
 311 593 l 1,5,-1
 217 593 l 1,6,-1
 217 695 l 1,7,-1
 311 695 l 1,4,-1
EndSplineSet
Validated: 1
EndChar

StartChar: copyright
Encoding: 169 169 106
Width: 755
GlyphClass: 1
Flags: W
LayerCount: 2
Fore
SplineSet
379 694 m 0,0,1
 461 694 461 694 539 652 c 0,2,3
 614 612 614 612 660 531 c 0,4,5
 705 453 705 453 705 368 c 0,6,7
 705 282 705 282 662 206 c 0,8,9
 619 128 619 128 541 85 c 0,10,11
 465 42 465 42 379 42 c 0,12,13
 292 42 292 42 216 85 c 128,-1,14
 140 128 140 128 95 206 c 0,15,16
 52 282 52 282 52 368 c 128,-1,17
 52 454 52 454 96 531 c 0,18,19
 144 613 144 613 218 652 c 0,20,21
 296 694 296 694 379 694 c 0,0,1
379 640 m 0,22,23
 310 640 310 640 245 604 c 0,24,25
 179 566 179 566 143 504 c 0,26,27
 106 440 106 440 106 368 c 0,28,29
 106 298 106 298 142 232 c 0,30,31
 176 169 176 169 243 133 c 0,32,33
 307 96 307 96 379 96 c 0,34,35
 450 96 450 96 514 132 c 0,36,37
 575 166 575 166 614 232 c 0,38,39
 650 296 650 296 650 368 c 128,-1,40
 650 440 650 440 613 504 c 0,41,42
 579 567 579 567 512 604 c 0,43,44
 446 640 446 640 379 640 c 0,22,23
483 315 m 1,45,-1
 537 299 l 1,46,47
 525 245 525 245 482 214 c 0,48,49
 438 181 438 181 380 181 c 0,50,51
 303 181 303 181 256 231 c 0,52,53
 208 280 208 280 208 367 c 128,-1,54
 208 454 208 454 256 503 c 0,55,56
 302 551 302 551 383 551 c 0,57,58
 440 551 440 551 477 524 c 0,59,60
 515 497 515 497 530 450 c 1,61,-1
 479 436 l 1,62,63
 454 503 454 503 381 503 c 0,64,65
 330 503 330 503 298 467 c 0,66,67
 267 432 267 432 267 366 c 0,68,69
 267 302 267 302 297 267 c 0,70,71
 326 232 326 232 376 232 c 0,72,73
 416 232 416 232 445 255 c 128,-1,74
 474 278 474 278 483 315 c 1,45,-1
EndSplineSet
Validated: 1
EndChar

StartChar: ordfeminine
Encoding: 170 170 107
Width: 382
GlyphClass: 1
Flags: W
LayerCount: 2
Fore
SplineSet
274 376 m 1,0,1
 212 322 212 322 146 322 c 0,2,3
 88 322 88 322 57 352 c 0,4,5
 24 382 24 382 24 431 c 0,6,7
 24 504 24 504 96 527 c 0,8,9
 118 536 118 536 145 539 c 2,10,-1
 219 549 l 1,11,-1
 267 559 l 1,12,13
 265 596 265 596 260 606 c 0,14,15
 245 636 245 636 188 636 c 0,16,17
 112 636 112 636 105 573 c 1,18,-1
 37 590 l 1,19,20
 43 638 43 638 82 666 c 0,21,22
 120 694 120 694 189 694 c 0,23,24
 270 694 270 694 305 664 c 0,25,26
 339 634 339 634 339 573 c 2,27,-1
 339 423 l 2,28,29
 339 357 339 357 359 331 c 1,30,-1
 285 331 l 1,31,32
 275 353 275 353 274 376 c 1,0,1
266 501 m 1,33,34
 239 493 239 493 171 482 c 0,35,36
 125 476 125 476 112 463 c 0,37,38
 98 451 98 451 98 431 c 0,39,40
 98 410 98 410 116 396 c 0,41,42
 133 382 133 382 163 382 c 0,43,44
 198 382 198 382 227 402 c 0,45,46
 255 422 255 422 262 450 c 0,47,48
 266 458 266 458 266 501 c 1,33,34
EndSplineSet
Validated: 1
EndChar

StartChar: guillemotleft
Encoding: 171 171 108
Width: 562
GlyphClass: 1
Flags: W
LayerCount: 2
Fore
SplineSet
226 492 m 1,0,-1
 300 492 l 1,1,-1
 170 264 l 1,2,-1
 299 36 l 1,3,-1
 226 36 l 1,4,-1
 67 264 l 1,5,-1
 226 492 l 1,0,-1
420 492 m 1,6,-1
 496 492 l 1,7,-1
 364 264 l 1,8,-1
 496 36 l 1,9,-1
 420 36 l 1,10,-1
 263 264 l 1,11,-1
 420 492 l 1,6,-1
EndSplineSet
Validated: 1
EndChar

StartChar: logicalnot
Encoding: 172 172 109
Width: 598
GlyphClass: 1
Flags: W
LayerCount: 2
Fore
SplineSet
57 515 m 1,0,-1
 541 515 l 1,1,-1
 541 212 l 1,2,-1
 456 212 l 1,3,-1
 456 431 l 1,4,-1
 57 431 l 1,5,-1
 57 515 l 1,0,-1
EndSplineSet
Validated: 1
EndChar

StartChar: Softhyphen
Encoding: 173 173 110
Width: 360
GlyphClass: 1
Flags: W
LayerCount: 2
Fore
SplineSet
311 301 m 1,0,-1
 311 229 l 1,1,-1
 49 229 l 1,2,-1
 49 301 l 1,3,-1
 311 301 l 1,0,-1
EndSplineSet
Validated: 1
EndChar

StartChar: registered
Encoding: 174 174 111
Width: 754
GlyphClass: 1
Flags: W
LayerCount: 2
Fore
SplineSet
217 653 m 0,0,1
 293 696 293 696 379 696 c 128,-1,2
 465 696 465 696 541 653 c 0,3,4
 620 610 620 610 663 532 c 0,5,6
 707 455 707 455 707 368 c 0,7,8
 707 280 707 280 664 204 c 0,9,10
 619 125 619 125 542 83 c 0,11,12
 466 40 466 40 379 40 c 0,13,14
 291 40 291 40 215 83 c 0,15,16
 137 127 137 127 93 204 c 0,17,18
 50 280 50 280 50 368 c 0,19,20
 50 455 50 455 94 532 c 0,21,22
 140 611 140 611 217 653 c 0,0,1
379 642 m 0,23,24
 310 642 310 642 244 606 c 0,25,26
 178 569 178 569 141 505 c 128,-1,27
 104 441 104 441 104 368 c 0,28,29
 104 297 104 297 140 231 c 0,30,31
 176 169 176 169 242 131 c 0,32,33
 306 94 306 94 379 94 c 0,34,35
 450 94 450 94 514 130 c 0,36,37
 577 165 577 165 615 231 c 0,38,39
 652 295 652 295 652 368 c 128,-1,40
 652 441 652 441 615 505 c 0,41,42
 580 570 580 570 513 606 c 0,43,44
 447 642 447 642 379 642 c 0,23,24
292 337 m 1,45,-1
 292 186 l 1,46,-1
 234 186 l 1,47,-1
 234 540 l 1,48,-1
 356 540 l 2,49,50
 416 540 416 540 446 529 c 0,51,52
 474 520 474 520 490 496 c 0,53,54
 507 471 507 471 507 444 c 0,55,56
 507 404 507 404 479 376 c 0,57,58
 452 349 452 349 407 344 c 1,59,60
 425 337 425 337 436 326 c 0,61,62
 454 308 454 308 488 255 c 2,63,-1
 531 186 l 1,64,-1
 462 186 l 1,65,-1
 430 242 l 2,66,67
 394 308 394 308 371 325 c 0,68,69
 356 337 356 337 326 337 c 2,70,-1
 292 337 l 1,45,-1
356 493 m 2,71,-1
 292 493 l 1,72,-1
 292 385 l 1,73,-1
 360 385 l 2,74,75
 407 385 407 385 427 399 c 0,76,77
 446 412 446 412 446 439 c 0,78,79
 446 455 446 455 437 467 c 0,80,81
 427 481 427 481 412 487 c 0,82,83
 396 493 396 493 356 493 c 2,71,-1
EndSplineSet
Validated: 1
EndChar

StartChar: degree
Encoding: 176 176 112
Width: 409
GlyphClass: 1
Flags: W
LayerCount: 2
Fore
SplineSet
63 556 m 0,0,1
 63 612 63 612 104 653 c 128,-1,2
 145 694 145 694 203 694 c 0,3,4
 259 694 259 694 300 653 c 128,-1,5
 341 612 341 612 341 556 c 0,6,7
 341 499 341 499 300 458 c 128,-1,8
 259 417 259 417 203 417 c 0,9,10
 144 417 144 417 104 457 c 0,11,12
 63 498 63 498 63 556 c 0,0,1
119 556 m 0,13,14
 119 521 119 521 144 496 c 128,-1,15
 169 471 169 471 203 471 c 128,-1,16
 237 471 237 471 262 496 c 128,-1,17
 287 521 287 521 287 556 c 0,18,19
 287 590 287 590 263 615 c 0,20,21
 238 640 238 640 203 640 c 128,-1,22
 168 640 168 640 144 615 c 0,23,24
 119 590 119 590 119 556 c 0,13,14
EndSplineSet
Validated: 1
EndChar

StartChar: plusminus
Encoding: 177 177 113
Width: 562
GlyphClass: 1
Flags: W
LayerCount: 2
Fore
SplineSet
324 332 m 1,0,-1
 324 130 l 1,1,-1
 239 130 l 1,2,-1
 239 332 l 1,3,-1
 39 332 l 1,4,-1
 39 415 l 1,5,-1
 239 415 l 1,6,-1
 239 614 l 1,7,-1
 324 614 l 1,8,-1
 324 415 l 1,9,-1
 523 415 l 1,10,-1
 523 332 l 1,11,-1
 324 332 l 1,0,-1
39 84 m 1,12,-1
 523 84 l 1,13,-1
 523 0 l 1,14,-1
 39 0 l 1,15,-1
 39 84 l 1,12,-1
EndSplineSet
Validated: 1
EndChar

StartChar: Superscripttwo
Encoding: 178 178 114
Width: 340
GlyphClass: 1
Flags: W
LayerCount: 2
Fore
SplineSet
324 376 m 1,0,-1
 324 315 l 1,1,-1
 12 315 l 1,2,3
 15 341 15 341 36 373 c 0,4,5
 72 420 72 420 139 468 c 0,6,7
 208 518 208 518 225 535 c 0,8,9
 244 555 244 555 244 577 c 0,10,11
 244 602 244 602 226 617 c 128,-1,12
 208 632 208 632 174 632 c 0,13,14
 142 632 142 632 125 620 c 0,15,16
 108 606 108 606 98 574 c 1,17,-1
 23 583 l 1,18,19
 38 640 38 640 74 665 c 0,20,21
 109 691 109 691 176 691 c 0,22,23
 248 691 248 691 285 663 c 128,-1,24
 322 635 322 635 322 589 c 0,25,26
 322 548 322 548 293 510 c 0,27,28
 268 482 268 482 190 424 c 0,29,30
 152 399 152 399 131 376 c 1,31,-1
 324 376 l 1,0,-1
EndSplineSet
Validated: 1
EndChar

StartChar: Superscriptthree
Encoding: 179 179 115
Width: 340
GlyphClass: 1
Flags: W
LayerCount: 2
Fore
SplineSet
16 416 m 1,0,-1
 89 423 l 1,1,2
 99 393 99 393 116 382 c 0,3,4
 137 367 137 367 167 367 c 0,5,6
 201 367 201 367 223 386 c 128,-1,7
 245 405 245 405 245 433 c 0,8,9
 245 488 245 488 166 488 c 0,10,11
 155 488 155 488 150 487 c 0,12,13
 147 486 147 486 138 486 c 1,14,-1
 150 542 l 1,15,16
 188 542 188 542 208 556 c 0,17,18
 227 569 227 569 227 593 c 0,19,20
 227 612 227 612 212 625 c 0,21,22
 196 637 196 637 168 637 c 128,-1,23
 140 637 140 637 123 626 c 0,24,25
 106 616 106 616 96 587 c 1,26,-1
 25 598 l 1,27,28
 46 652 46 652 77 673 c 0,29,30
 109 693 109 693 168 693 c 0,31,32
 236 693 236 693 271 667 c 0,33,34
 305 642 305 642 305 599 c 0,35,36
 305 572 305 572 288 550 c 128,-1,37
 271 528 271 528 237 519 c 1,38,39
 323 496 323 496 323 424 c 0,40,41
 323 377 323 377 282 342 c 0,42,43
 242 308 242 308 171 308 c 0,44,45
 36 308 36 308 16 416 c 1,0,-1
EndSplineSet
Validated: 1
EndChar

StartChar: acute
Encoding: 180 180 116
Width: 340
GlyphClass: 1
Flags: W
LayerCount: 2
Fore
SplineSet
296 695 m 1,0,-1
 185 555 l 1,1,-1
 111 555 l 1,2,-1
 177 695 l 1,3,-1
 296 695 l 1,0,-1
EndSplineSet
Validated: 1
EndChar

StartChar: mu
Encoding: 181 181 117
Width: 588
GlyphClass: 1
Flags: W
LayerCount: 2
Fore
SplineSet
421 304 m 2,0,-1
 421 531 l 1,1,-1
 509 531 l 1,2,-1
 509 0 l 1,3,-1
 428 0 l 1,4,-1
 428 63 l 1,5,6
 402 21 402 21 377 8 c 0,7,8
 339 -12 339 -12 296 -12 c 128,-1,9
 253 -12 253 -12 222 4 c 0,10,11
 198 17 198 17 169 53 c 1,12,-1
 169 -204 l 1,13,-1
 80 -204 l 1,14,-1
 80 531 l 1,15,-1
 169 531 l 1,16,-1
 169 306 l 2,17,18
 169 184 169 184 181 146 c 0,19,20
 195 109 195 109 224 90 c 0,21,22
 254 69 254 69 292 69 c 0,23,24
 332 69 332 69 362 90 c 0,25,26
 394 112 394 112 408 147 c 0,27,28
 421 180 421 180 421 304 c 2,0,-1
EndSplineSet
Validated: 1
EndChar

StartChar: paragraph
Encoding: 182 182 118
Width: 549
GlyphClass: 1
Flags: W
LayerCount: 2
Fore
SplineSet
284 615 m 1,0,-1
 284 -166 l 1,1,-1
 209 -166 l 1,2,-1
 209 315 l 1,3,4
 122 318 122 318 73 369 c 0,5,6
 23 421 23 421 23 502 c 0,7,8
 23 591 23 591 79 644 c 0,9,10
 134 695 134 695 240 695 c 2,11,-1
 531 695 l 1,12,-1
 531 615 l 1,13,-1
 465 615 l 1,14,-1
 465 -166 l 1,15,-1
 387 -166 l 1,16,-1
 387 615 l 1,17,-1
 284 615 l 1,0,-1
EndSplineSet
Validated: 1
EndChar

StartChar: periodcentered
Encoding: 183 183 119
Width: 348
GlyphClass: 1
Flags: W
LayerCount: 2
Fore
SplineSet
225 410 m 1,0,-1
 225 307 l 1,1,-1
 123 307 l 1,2,-1
 123 410 l 1,3,-1
 225 410 l 1,0,-1
EndSplineSet
Validated: 1
EndChar

StartChar: cedilla
Encoding: 184 184 120
Width: 340
GlyphClass: 1
Flags: W
LayerCount: 2
Fore
SplineSet
108 -77 m 1,0,-1
 134 11 l 1,1,-1
 201 11 l 1,2,-1
 184 -42 l 1,3,4
 224 -46 224 -46 248 -67 c 0,5,6
 270 -88 270 -88 270 -116 c 0,7,8
 270 -154 270 -154 232 -183 c 0,9,10
 195 -211 195 -211 126 -211 c 0,11,12
 86 -211 86 -211 53 -205 c 1,13,-1
 59 -146 l 1,14,15
 72 -146 72 -146 83.5 -146.5 c 128,-1,16
 95 -147 95 -147 100 -147.5 c 128,-1,17
 105 -148 105 -148 106 -148 c 0,18,19
 153 -148 153 -148 172 -135 c 0,20,21
 186 -124 186 -124 186 -111 c 0,22,23
 186 -95 186 -95 172 -86 c 0,24,25
 157 -78 157 -78 108 -77 c 1,0,-1
EndSplineSet
Validated: 1
EndChar

StartChar: Superscriptone
Encoding: 185 185 121
Width: 339
GlyphClass: 1
Flags: W
LayerCount: 2
Fore
SplineSet
238 693 m 1,0,-1
 238 317 l 1,1,-1
 166 317 l 1,2,-1
 166 594 l 1,3,4
 115 554 115 554 53 538 c 1,5,-1
 53 599 l 1,6,7
 88 611 88 611 123 636 c 0,8,9
 159 662 159 662 184 693 c 1,10,-1
 238 693 l 1,0,-1
EndSplineSet
Validated: 1
EndChar

StartChar: ordmasculine
Encoding: 186 186 122
Width: 372
GlyphClass: 1
Flags: W
LayerCount: 2
Fore
SplineSet
68 644 m 0,0,1
 112 694 112 694 186 694 c 128,-1,2
 260 694 260 694 305 644 c 0,3,4
 350 593 350 593 350 506 c 0,5,6
 350 420 350 420 305 369 c 0,7,8
 258 318 258 318 187 318 c 0,9,10
 113 318 113 318 68 368 c 128,-1,11
 23 418 23 418 23 504 c 0,12,13
 23 593 23 593 68 644 c 0,0,1
186 628 m 0,14,15
 144 628 144 628 120 598 c 128,-1,16
 96 568 96 568 96 506 c 0,17,18
 96 445 96 445 121 416 c 0,19,20
 145 385 145 385 186 385 c 0,21,22
 228 385 228 385 252 416 c 0,23,24
 276 446 276 446 276 509 c 0,25,26
 276 568 276 568 252 598 c 0,27,28
 226 628 226 628 186 628 c 0,14,15
EndSplineSet
Validated: 1
EndChar

StartChar: guillemotright
Encoding: 187 187 123
Width: 568
GlyphClass: 1
Flags: W
LayerCount: 2
Fore
SplineSet
339 36 m 1,0,-1
 265 36 l 1,1,-1
 395 264 l 1,2,-1
 265 492 l 1,3,-1
 339 492 l 1,4,-1
 499 264 l 1,5,-1
 339 36 l 1,0,-1
145 36 m 1,6,-1
 70 36 l 1,7,-1
 202 264 l 1,8,-1
 70 492 l 1,9,-1
 145 492 l 1,10,-1
 302 264 l 1,11,-1
 145 36 l 1,6,-1
EndSplineSet
Validated: 1
EndChar

StartChar: onequarter
Encoding: 188 188 124
Width: 734
GlyphClass: 1
Flags: W
LayerCount: 2
Fore
SplineSet
117 715 m 1,0,-1
 175 715 l 1,1,-1
 175 328 l 1,2,-1
 98 328 l 1,3,-1
 98 610 l 1,4,5
 62 596 62 596 46 593 c 1,6,-1
 40 654 l 1,7,8
 59 655 59 655 85 677 c 0,9,10
 111 697 111 697 117 715 c 1,0,-1
62 -87 m 1,11,-1
 450 717 l 1,12,-1
 552 717 l 1,13,-1
 165 -87 l 1,14,-1
 62 -87 l 1,11,-1
649 165 m 1,15,-1
 699 165 l 1,16,-1
 699 106 l 1,17,-1
 649 106 l 1,18,-1
 649 1 l 1,19,-1
 573 1 l 1,20,-1
 573 106 l 1,21,-1
 394 106 l 1,22,-1
 586 388 l 1,23,-1
 649 388 l 1,24,-1
 649 165 l 1,15,-1
573 278 m 1,25,-1
 498 165 l 1,26,-1
 573 165 l 1,27,-1
 573 278 l 1,25,-1
EndSplineSet
Validated: 1
EndChar

StartChar: onehalf
Encoding: 189 189 125
Width: 746
GlyphClass: 1
Flags: W
LayerCount: 2
Fore
SplineSet
114 715 m 1,0,-1
 172 715 l 1,1,-1
 172 328 l 1,2,-1
 95 328 l 1,3,-1
 95 610 l 1,4,5
 59 596 59 596 43 593 c 1,6,-1
 37 654 l 1,7,8
 56 655 56 655 82 677 c 0,9,10
 108 697 108 697 114 715 c 1,0,-1
59 -87 m 1,11,-1
 446 717 l 1,12,-1
 549 717 l 1,13,-1
 162 -87 l 1,14,-1
 59 -87 l 1,11,-1
588 72 m 1,15,-1
 711 72 l 1,16,-1
 711 0 l 1,17,-1
 457 0 l 1,18,19
 519 83 519 83 570 161 c 0,20,21
 611 225 611 225 617 243 c 0,22,23
 625 265 625 265 625 280 c 0,24,25
 625 305 625 305 610 320 c 0,26,27
 593 334 593 334 566 334 c 0,28,29
 514 334 514 334 471 273 c 1,30,-1
 462 340 l 1,31,32
 476 362 476 362 507 379 c 0,33,34
 538 395 538 395 582 395 c 0,35,36
 639 395 639 395 668 366 c 0,37,38
 696 338 696 338 696 291 c 0,39,40
 696 218 696 218 588 72 c 1,15,-1
EndSplineSet
Validated: 1
EndChar

StartChar: threequarters
Encoding: 190 190 126
Width: 906
GlyphClass: 1
Flags: W
LayerCount: 2
Fore
SplineSet
144 319 m 0,0,1
 113 319 113 319 77 330 c 0,2,3
 39 341 39 341 33 350 c 1,4,-1
 51 418 l 1,5,6
 86 391 86 391 141 391 c 0,7,8
 221 391 221 391 221 444 c 0,9,10
 221 477 221 477 204 494 c 0,11,12
 188 510 188 510 145 510 c 2,13,-1
 92 510 l 1,14,-1
 98 566 l 1,15,-1
 126 566 l 2,16,17
 205 566 205 566 205 615 c 0,18,19
 205 660 205 660 143 660 c 0,20,21
 94 660 94 660 71 643 c 1,22,-1
 59 697 l 1,23,24
 85 723 85 723 153 723 c 0,25,26
 219 723 219 723 251 694 c 0,27,28
 282 664 282 664 282 620 c 0,29,30
 282 565 282 565 242 543 c 1,31,32
 297 510 297 510 297 447 c 0,33,34
 297 389 297 389 253 354 c 0,35,36
 207 319 207 319 144 319 c 0,0,1
237 -87 m 1,37,-1
 624 717 l 1,38,-1
 726 717 l 1,39,-1
 339 -87 l 1,40,-1
 237 -87 l 1,37,-1
821 165 m 1,41,-1
 871 165 l 1,42,-1
 871 106 l 1,43,-1
 821 106 l 1,44,-1
 821 1 l 1,45,-1
 745 1 l 1,46,-1
 745 106 l 1,47,-1
 566 106 l 1,48,-1
 758 388 l 1,49,-1
 821 388 l 1,50,-1
 821 165 l 1,41,-1
745 278 m 1,51,-1
 670 165 l 1,52,-1
 745 165 l 1,53,-1
 745 278 l 1,51,-1
EndSplineSet
Validated: 1
EndChar

StartChar: questiondown
Encoding: 191 191 127
Width: 451
GlyphClass: 1
Flags: W
LayerCount: 2
Fore
SplineSet
205 331 m 2,0,-1
 205 358 l 1,1,-1
 265 358 l 1,2,3
 268 316 268 316 268 312 c 0,4,5
 268 270 268 270 244 227 c 0,6,7
 219 181 219 181 192 153 c 0,8,9
 162 120 162 120 139 78 c 0,10,11
 115 33 115 33 115 -11 c 0,12,13
 115 -70 115 -70 153 -103 c 0,14,15
 190 -137 190 -137 246 -137 c 0,16,17
 271 -137 271 -137 291 -130 c 2,18,-1
 306 -125 l 1,19,-1
 407 -29 l 1,20,-1
 406 -136 l 1,21,22
 388 -165 388 -165 342 -186 c 0,23,24
 300 -205 300 -205 243 -205 c 0,25,26
 150 -205 150 -205 90 -145 c 0,27,28
 30 -86 30 -86 30 -13 c 0,29,30
 30 54 30 54 91 133 c 2,31,-1
 143 200 l 2,32,33
 206 280 206 280 205 331 c 2,0,-1
280 475 m 1,34,-1
 186 475 l 1,35,-1
 186 563 l 1,36,-1
 280 563 l 1,37,-1
 280 475 l 1,34,-1
EndSplineSet
Validated: 33
EndChar

StartChar: Agrave
Encoding: 192 192 128
Width: 630
GlyphClass: 1
Flags: W
LayerCount: 2
Fore
SplineSet
178 194 m 1,0,-1
 110 0 l 1,1,-1
 -47 0 l 1,2,-1
 37 84 l 1,3,-1
 264 717 l 1,4,-1
 367 717 l 1,5,-1
 594 83 l 1,6,-1
 677 0 l 1,7,-1
 521 0 l 1,8,-1
 453 194 l 1,9,-1
 178 194 l 1,0,-1
315 581 m 1,10,-1
 209 282 l 1,11,-1
 422 282 l 1,12,-1
 315 581 l 1,10,-1
220 870 m 1,13,-1
 412 772 l 1,14,-1
 412 730 l 1,15,-1
 220 796 l 1,16,-1
 220 870 l 1,13,-1
EndSplineSet
Validated: 1
EndChar

StartChar: Aacute
Encoding: 193 193 129
Width: 630
GlyphClass: 1
Flags: W
LayerCount: 2
Fore
SplineSet
220 772 m 1,0,-1
 412 870 l 1,1,-1
 412 796 l 1,2,-1
 220 730 l 1,3,-1
 220 772 l 1,0,-1
178 194 m 1,4,-1
 110 0 l 1,5,-1
 -47 0 l 1,6,-1
 37 84 l 1,7,-1
 264 717 l 1,8,-1
 367 717 l 1,9,-1
 594 83 l 1,10,-1
 677 0 l 1,11,-1
 521 0 l 1,12,-1
 453 194 l 1,13,-1
 178 194 l 1,4,-1
315 581 m 1,14,-1
 209 282 l 1,15,-1
 422 282 l 1,16,-1
 315 581 l 1,14,-1
EndSplineSet
Validated: 1
EndChar

StartChar: Acircumflex
Encoding: 194 194 130
Width: 630
GlyphClass: 1
Flags: W
LayerCount: 2
Fore
SplineSet
316 870 m 1,0,-1
 467 761 l 1,1,-1
 467 724 l 1,2,-1
 316 808 l 1,3,-1
 166 724 l 1,4,-1
 166 761 l 1,5,-1
 316 870 l 1,0,-1
178 194 m 1,6,-1
 110 0 l 1,7,-1
 -47 0 l 1,8,-1
 37 84 l 1,9,-1
 264 717 l 1,10,-1
 367 717 l 1,11,-1
 594 83 l 1,12,-1
 677 0 l 1,13,-1
 521 0 l 1,14,-1
 453 194 l 1,15,-1
 178 194 l 1,6,-1
315 581 m 1,16,-1
 209 282 l 1,17,-1
 422 282 l 1,18,-1
 315 581 l 1,16,-1
EndSplineSet
Validated: 1
EndChar

StartChar: Atilde
Encoding: 195 195 131
Width: 630
GlyphClass: 1
Flags: W
LayerCount: 2
Fore
SplineSet
384 766 m 0,0,1
 366 766 366 766 314 793 c 0,2,3
 260 819 260 819 249 819 c 0,4,5
 194 819 194 819 176 768 c 1,6,-1
 139 778 l 1,7,8
 151 820 151 820 181 846 c 0,9,10
 210 870 210 870 245 870 c 0,11,12
 262 870 262 870 319 845 c 128,-1,13
 376 820 376 820 388 820 c 0,14,15
 432 820 432 820 459 872 c 1,16,-1
 494 863 l 1,17,18
 483 819 483 819 453 793 c 0,19,20
 423 766 423 766 384 766 c 0,0,1
178 194 m 1,21,-1
 110 0 l 1,22,-1
 -47 0 l 1,23,-1
 37 84 l 1,24,-1
 264 717 l 1,25,-1
 367 717 l 1,26,-1
 594 83 l 1,27,-1
 677 0 l 1,28,-1
 521 0 l 1,29,-1
 453 194 l 1,30,-1
 178 194 l 1,21,-1
315 581 m 1,31,-1
 209 282 l 1,32,-1
 422 282 l 1,33,-1
 315 581 l 1,31,-1
EndSplineSet
Validated: 1
EndChar

StartChar: Adieresis
Encoding: 196 196 132
Width: 630
GlyphClass: 1
Flags: W
LayerCount: 2
Fore
SplineSet
372 870 m 1,0,-1
 443 870 l 1,1,-1
 443 767 l 1,2,-1
 372 767 l 1,3,-1
 372 870 l 1,0,-1
189 870 m 1,4,-1
 261 870 l 1,5,-1
 261 767 l 1,6,-1
 189 767 l 1,7,-1
 189 870 l 1,4,-1
178 194 m 1,8,-1
 110 0 l 1,9,-1
 -47 0 l 1,10,-1
 37 84 l 1,11,-1
 264 717 l 1,12,-1
 367 717 l 1,13,-1
 594 83 l 1,14,-1
 677 0 l 1,15,-1
 521 0 l 1,16,-1
 453 194 l 1,17,-1
 178 194 l 1,8,-1
315 581 m 1,18,-1
 209 282 l 1,19,-1
 422 282 l 1,20,-1
 315 581 l 1,18,-1
EndSplineSet
Validated: 1
EndChar

StartChar: Aring
Encoding: 197 197 133
Width: 630
GlyphClass: 1
Flags: W
LayerCount: 2
Fore
SplineSet
178 194 m 1,0,-1
 110 0 l 1,1,-1
 -47 0 l 1,2,-1
 37 84 l 1,3,-1
 264 717 l 1,4,-1
 367 717 l 1,5,-1
 594 83 l 1,6,-1
 677 0 l 1,7,-1
 521 0 l 1,8,-1
 453 194 l 1,9,-1
 178 194 l 1,0,-1
315 581 m 1,10,-1
 209 282 l 1,11,-1
 422 282 l 1,12,-1
 315 581 l 1,10,-1
324 687 m 2,13,-1
 316 687 l 2,14,15
 268 687 268 687 239 713 c 128,-1,16
 210 739 210 739 210 778 c 0,17,18
 210 820 210 820 241 845 c 0,19,20
 270 870 270 870 323 870 c 0,21,22
 370 870 370 870 396 843 c 0,23,24
 422 815 422 815 422 778 c 0,25,26
 422 740 422 740 397 714 c 0,27,28
 372 687 372 687 324 687 c 2,13,-1
273 822 m 0,29,30
 255 806 255 806 255 778 c 128,-1,31
 255 750 255 750 273 734 c 0,32,33
 292 717 292 717 316 717 c 0,34,35
 341 717 341 717 360 734 c 0,36,37
 378 750 378 750 378 778 c 0,38,39
 378 804 378 804 360 821 c 0,40,41
 341 838 341 838 316 838 c 0,42,43
 289 838 289 838 273 822 c 0,29,30
EndSplineSet
Validated: 5
EndChar

StartChar: AE
Encoding: 198 198 134
Width: 960
GlyphClass: 1
Flags: W
LayerCount: 2
Fore
SplineSet
944 88 m 1,0,-1
 944 0 l 1,1,-1
 438 0 l 1,2,-1
 498 59 l 1,3,-1
 498 194 l 1,4,-1
 240 194 l 1,5,-1
 171 0 l 1,6,-1
 14 0 l 1,7,-1
 98 84 l 1,8,-1
 326 717 l 1,9,-1
 428 717 l 1,10,-1
 498 522 l 1,11,-1
 498 717 l 1,12,-1
 935 717 l 1,13,-1
 935 629 l 1,14,-1
 595 629 l 1,15,-1
 595 409 l 1,16,-1
 865 409 l 1,17,-1
 865 321 l 1,18,-1
 595 321 l 1,19,-1
 595 88 l 1,20,-1
 944 88 l 1,0,-1
377 581 m 1,21,-1
 270 282 l 1,22,-1
 483 282 l 1,23,-1
 377 581 l 1,21,-1
EndSplineSet
Validated: 1
EndChar

StartChar: Ccedilla
Encoding: 199 199 135
Width: 630
GlyphClass: 1
Flags: W
LayerCount: 2
Fore
SplineSet
399 -14 m 0,0,1
 394 -14 394 -14 362 -12 c 1,2,-1
 360 -22 l 2,3,4
 358 -30 358 -30 359 -34 c 0,5,6
 361 -41 361 -41 370 -46 c 0,7,8
 413 -83 413 -83 424 -96 c 0,9,10
 437 -112 437 -112 437 -139 c 0,11,12
 437 -184 437 -184 410 -212 c 0,13,14
 382 -240 382 -240 327 -240 c 0,15,16
 277 -240 277 -240 230 -206 c 1,17,-1
 263 -154 l 1,18,19
 313 -181 313 -181 333 -177 c 1,20,21
 351 -169 351 -169 355 -144 c 0,22,23
 361 -120 361 -120 313 -91 c 0,24,25
 282 -76 282 -76 295 -22 c 2,26,-1
 300 -2 l 1,27,28
 274 3 274 3 254 12 c 0,29,30
 154 53 154 53 98 143 c 0,31,32
 40 234 40 234 40 358 c 0,33,34
 40 523 40 523 141 627 c 128,-1,35
 242 731 242 731 398 731 c 0,36,37
 508 731 508 731 597 689 c 1,38,-1
 588 608 l 1,39,-1
 588 536 l 1,40,-1
 492 632 l 1,41,42
 443 643 443 643 398 643 c 0,43,44
 281 643 281 643 214 564 c 0,45,46
 146 484 146 484 146 358 c 128,-1,47
 146 232 146 232 213 153 c 128,-1,48
 280 74 280 74 400 74 c 0,49,50
 432 74 432 74 460 79 c 2,51,-1
 485 84 l 2,52,53
 491 84 491 84 493 85 c 2,54,-1
 588 180 l 1,55,-1
 588 108 l 1,56,-1
 597 27 l 1,57,58
 510 -14 510 -14 399 -14 c 0,0,1
EndSplineSet
Validated: 33
EndChar

StartChar: Egrave
Encoding: 200 200 136
Width: 567
GlyphClass: 1
Flags: W
LayerCount: 2
Fore
SplineSet
528 88 m 1,0,-1
 528 0 l 1,1,-1
 23 0 l 1,2,-1
 82 59 l 1,3,-1
 82 717 l 1,4,-1
 519 717 l 1,5,-1
 519 629 l 1,6,-1
 179 629 l 1,7,-1
 179 409 l 1,8,-1
 450 409 l 1,9,-1
 450 321 l 1,10,-1
 179 321 l 1,11,-1
 179 88 l 1,12,-1
 528 88 l 1,0,-1
188 880 m 1,13,-1
 380 782 l 1,14,-1
 380 740 l 1,15,-1
 188 806 l 1,16,-1
 188 880 l 1,13,-1
EndSplineSet
Validated: 1
EndChar

StartChar: Eacute
Encoding: 201 201 137
Width: 567
GlyphClass: 1
Flags: W
LayerCount: 2
Fore
SplineSet
187 782 m 1,0,-1
 379 880 l 1,1,-1
 379 806 l 1,2,-1
 187 740 l 1,3,-1
 187 782 l 1,0,-1
528 88 m 1,4,-1
 528 0 l 1,5,-1
 23 0 l 1,6,-1
 82 59 l 1,7,-1
 82 717 l 1,8,-1
 519 717 l 1,9,-1
 519 629 l 1,10,-1
 179 629 l 1,11,-1
 179 409 l 1,12,-1
 450 409 l 1,13,-1
 450 321 l 1,14,-1
 179 321 l 1,15,-1
 179 88 l 1,16,-1
 528 88 l 1,4,-1
EndSplineSet
Validated: 1
EndChar

StartChar: Ecircumflex
Encoding: 202 202 138
Width: 567
GlyphClass: 1
Flags: W
LayerCount: 2
Fore
SplineSet
283 880 m 1,0,-1
 433 771 l 1,1,-1
 433 734 l 1,2,-1
 283 818 l 1,3,-1
 132 734 l 1,4,-1
 132 771 l 1,5,-1
 283 880 l 1,0,-1
528 88 m 1,6,-1
 528 0 l 1,7,-1
 23 0 l 1,8,-1
 82 59 l 1,9,-1
 82 717 l 1,10,-1
 519 717 l 1,11,-1
 519 629 l 1,12,-1
 179 629 l 1,13,-1
 179 409 l 1,14,-1
 450 409 l 1,15,-1
 450 321 l 1,16,-1
 179 321 l 1,17,-1
 179 88 l 1,18,-1
 528 88 l 1,6,-1
EndSplineSet
Validated: 1
EndChar

StartChar: Edieresis
Encoding: 203 203 139
Width: 567
GlyphClass: 1
Flags: W
LayerCount: 2
Fore
SplineSet
338 870 m 1,0,-1
 410 870 l 1,1,-1
 410 767 l 1,2,-1
 338 767 l 1,3,-1
 338 870 l 1,0,-1
156 870 m 1,4,-1
 227 870 l 1,5,-1
 227 767 l 1,6,-1
 156 767 l 1,7,-1
 156 870 l 1,4,-1
528 88 m 1,8,-1
 528 0 l 1,9,-1
 23 0 l 1,10,-1
 82 59 l 1,11,-1
 82 717 l 1,12,-1
 519 717 l 1,13,-1
 519 629 l 1,14,-1
 179 629 l 1,15,-1
 179 409 l 1,16,-1
 450 409 l 1,17,-1
 450 321 l 1,18,-1
 179 321 l 1,19,-1
 179 88 l 1,20,-1
 528 88 l 1,8,-1
EndSplineSet
Validated: 1
EndChar

StartChar: Igrave
Encoding: 204 204 140
Width: 261
GlyphClass: 1
Flags: W
LayerCount: 2
Fore
SplineSet
179 717 m 1,0,-1
 179 0 l 1,1,-1
 23 0 l 1,2,-1
 82 59 l 1,3,-1
 82 717 l 1,4,-1
 179 717 l 1,0,-1
36 880 m 1,5,-1
 227 782 l 1,6,-1
 227 740 l 1,7,-1
 36 806 l 1,8,-1
 36 880 l 1,5,-1
EndSplineSet
Validated: 1
EndChar

StartChar: Iacute
Encoding: 205 205 141
Width: 261
GlyphClass: 1
Flags: W
LayerCount: 2
Fore
SplineSet
37 782 m 1,0,-1
 228 880 l 1,1,-1
 228 806 l 1,2,-1
 37 740 l 1,3,-1
 37 782 l 1,0,-1
179 717 m 1,4,-1
 179 0 l 1,5,-1
 23 0 l 1,6,-1
 82 59 l 1,7,-1
 82 717 l 1,8,-1
 179 717 l 1,4,-1
EndSplineSet
Validated: 1
EndChar

StartChar: Icircumflex
Encoding: 206 206 142
Width: 261
GlyphClass: 1
Flags: W
LayerCount: 2
Fore
SplineSet
134 880 m 1,0,-1
 285 771 l 1,1,-1
 285 734 l 1,2,-1
 134 818 l 1,3,-1
 -16 734 l 1,4,-1
 -16 771 l 1,5,-1
 134 880 l 1,0,-1
179 717 m 1,6,-1
 179 0 l 1,7,-1
 23 0 l 1,8,-1
 82 59 l 1,9,-1
 82 717 l 1,10,-1
 179 717 l 1,6,-1
EndSplineSet
Validated: 1
EndChar

StartChar: Idieresis
Encoding: 207 207 143
Width: 261
GlyphClass: 1
Flags: W
LayerCount: 2
Fore
SplineSet
187 880 m 1,0,-1
 259 880 l 1,1,-1
 259 777 l 1,2,-1
 187 777 l 1,3,-1
 187 880 l 1,0,-1
5 880 m 1,4,-1
 77 880 l 1,5,-1
 77 777 l 1,6,-1
 5 777 l 1,7,-1
 5 880 l 1,4,-1
179 717 m 1,8,-1
 179 0 l 1,9,-1
 23 0 l 1,10,-1
 82 59 l 1,11,-1
 82 717 l 1,12,-1
 179 717 l 1,8,-1
EndSplineSet
Validated: 1
EndChar

StartChar: Eth
Encoding: 208 208 144
Width: 744
GlyphClass: 1
Flags: W
LayerCount: 2
Fore
SplineSet
347 0 m 2,0,-1
 23 0 l 1,1,-1
 82 59 l 1,2,-1
 82 324 l 1,3,-1
 20 324 l 1,4,-1
 20 412 l 1,5,-1
 82 412 l 1,6,-1
 82 717 l 1,7,-1
 347 717 l 2,8,9
 507 717 507 717 605 620 c 0,10,11
 703 522 703 522 703 358 c 0,12,13
 703 195 703 195 605 97 c 0,14,15
 508 0 508 0 347 0 c 2,0,-1
179 412 m 1,16,-1
 338 412 l 1,17,-1
 338 324 l 1,18,-1
 179 324 l 1,19,-1
 179 88 l 1,20,-1
 347 88 l 2,21,22
 466 88 466 88 532 161 c 0,23,24
 597 234 597 234 597 358 c 128,-1,25
 597 482 597 482 532 556 c 0,26,27
 466 629 466 629 347 629 c 2,28,-1
 179 629 l 1,29,-1
 179 412 l 1,16,-1
EndSplineSet
Validated: 1
EndChar

StartChar: Ntilde
Encoding: 209 209 145
Width: 720
GlyphClass: 1
Flags: W
LayerCount: 2
Fore
SplineSet
428 766 m 0,0,1
 410 766 410 766 358 793 c 0,2,3
 304 819 304 819 293 819 c 0,4,5
 238 819 238 819 220 768 c 1,6,-1
 183 778 l 1,7,8
 195 820 195 820 225 846 c 0,9,10
 254 870 254 870 289 870 c 0,11,12
 306 870 306 870 363 845 c 128,-1,13
 420 820 420 820 432 820 c 0,14,15
 476 820 476 820 503 872 c 1,16,-1
 538 863 l 1,17,18
 527 819 527 819 497 793 c 0,19,20
 467 766 467 766 428 766 c 0,0,1
179 566 m 1,21,-1
 179 0 l 1,22,-1
 14 0 l 1,23,-1
 82 68 l 1,24,-1
 82 717 l 1,25,-1
 187 717 l 1,26,-1
 541 180 l 1,27,-1
 541 717 l 1,28,-1
 639 717 l 1,29,-1
 639 74 l 1,30,-1
 713 0 l 1,31,-1
 556 0 l 1,32,-1
 179 566 l 1,21,-1
EndSplineSet
Validated: 1
EndChar

StartChar: Ograve
Encoding: 210 210 146
Width: 786
GlyphClass: 1
Flags: W
LayerCount: 2
Fore
SplineSet
647 87 m 0,0,1
 549 -14 549 -14 393 -14 c 0,2,3
 236 -14 236 -14 138 88 c 0,4,5
 40 191 40 191 40 358 c 0,6,7
 40 524 40 524 139 628 c 0,8,9
 238 731 238 731 393 731 c 0,10,11
 549 731 549 731 648 628 c 0,12,13
 746 524 746 524 746 358 c 0,14,15
 746 189 746 189 647 87 c 0,0,1
575 563 m 0,16,17
 512 643 512 643 393 643 c 0,18,19
 276 643 276 643 212 564 c 0,20,21
 146 484 146 484 146 358 c 128,-1,22
 146 232 146 232 212 153 c 0,23,24
 276 74 276 74 393 74 c 0,25,26
 511 74 511 74 575 153 c 0,27,28
 640 233 640 233 640 358 c 128,-1,29
 640 483 640 483 575 563 c 0,16,17
298 880 m 1,30,-1
 489 782 l 1,31,-1
 489 740 l 1,32,-1
 298 806 l 1,33,-1
 298 880 l 1,30,-1
EndSplineSet
Validated: 1
EndChar

StartChar: Oacute
Encoding: 211 211 147
Width: 786
GlyphClass: 1
Flags: W
LayerCount: 2
Fore
SplineSet
297 782 m 1,0,-1
 488 880 l 1,1,-1
 488 806 l 1,2,-1
 297 740 l 1,3,-1
 297 782 l 1,0,-1
647 87 m 0,4,5
 549 -14 549 -14 393 -14 c 0,6,7
 236 -14 236 -14 138 88 c 0,8,9
 40 191 40 191 40 358 c 0,10,11
 40 524 40 524 139 628 c 0,12,13
 238 731 238 731 393 731 c 0,14,15
 549 731 549 731 648 628 c 0,16,17
 746 524 746 524 746 358 c 0,18,19
 746 189 746 189 647 87 c 0,4,5
575 563 m 0,20,21
 512 643 512 643 393 643 c 0,22,23
 276 643 276 643 212 564 c 0,24,25
 146 484 146 484 146 358 c 128,-1,26
 146 232 146 232 212 153 c 0,27,28
 276 74 276 74 393 74 c 0,29,30
 511 74 511 74 575 153 c 0,31,32
 640 233 640 233 640 358 c 128,-1,33
 640 483 640 483 575 563 c 0,20,21
EndSplineSet
Validated: 1
EndChar

StartChar: Ocircumflex
Encoding: 212 212 148
Width: 786
GlyphClass: 1
Flags: W
LayerCount: 2
Fore
SplineSet
393 880 m 1,0,-1
 544 771 l 1,1,-1
 544 734 l 1,2,-1
 393 818 l 1,3,-1
 243 734 l 1,4,-1
 243 771 l 1,5,-1
 393 880 l 1,0,-1
647 87 m 0,6,7
 549 -14 549 -14 393 -14 c 0,8,9
 236 -14 236 -14 138 88 c 0,10,11
 40 191 40 191 40 358 c 0,12,13
 40 524 40 524 139 628 c 0,14,15
 238 731 238 731 393 731 c 0,16,17
 549 731 549 731 648 628 c 0,18,19
 746 524 746 524 746 358 c 0,20,21
 746 189 746 189 647 87 c 0,6,7
575 563 m 0,22,23
 512 643 512 643 393 643 c 0,24,25
 276 643 276 643 212 564 c 0,26,27
 146 484 146 484 146 358 c 128,-1,28
 146 232 146 232 212 153 c 0,29,30
 276 74 276 74 393 74 c 0,31,32
 511 74 511 74 575 153 c 0,33,34
 640 233 640 233 640 358 c 128,-1,35
 640 483 640 483 575 563 c 0,22,23
EndSplineSet
Validated: 1
EndChar

StartChar: Otilde
Encoding: 213 213 149
Width: 786
GlyphClass: 1
Flags: W
LayerCount: 2
Fore
SplineSet
461 766 m 0,0,1
 444 766 444 766 391 793 c 0,2,3
 337 819 337 819 326 819 c 0,4,5
 271 819 271 819 253 768 c 1,6,-1
 216 778 l 1,7,8
 228 820 228 820 258 846 c 0,9,10
 286 870 286 870 322 870 c 0,11,12
 339 870 339 870 396 845 c 128,-1,13
 453 820 453 820 465 820 c 0,14,15
 509 820 509 820 536 872 c 1,16,-1
 570 863 l 1,17,18
 559 819 559 819 530 793 c 0,19,20
 500 766 500 766 461 766 c 0,0,1
647 87 m 0,21,22
 549 -14 549 -14 393 -14 c 0,23,24
 236 -14 236 -14 138 88 c 0,25,26
 40 191 40 191 40 358 c 0,27,28
 40 524 40 524 139 628 c 0,29,30
 238 731 238 731 393 731 c 0,31,32
 549 731 549 731 648 628 c 0,33,34
 746 524 746 524 746 358 c 0,35,36
 746 189 746 189 647 87 c 0,21,22
575 563 m 0,37,38
 512 643 512 643 393 643 c 0,39,40
 276 643 276 643 212 564 c 0,41,42
 146 484 146 484 146 358 c 128,-1,43
 146 232 146 232 212 153 c 0,44,45
 276 74 276 74 393 74 c 0,46,47
 511 74 511 74 575 153 c 0,48,49
 640 233 640 233 640 358 c 128,-1,50
 640 483 640 483 575 563 c 0,37,38
EndSplineSet
Validated: 1
EndChar

StartChar: Odieresis
Encoding: 214 214 150
Width: 786
GlyphClass: 1
Flags: W
LayerCount: 2
Fore
SplineSet
449 870 m 1,0,-1
 520 870 l 1,1,-1
 520 767 l 1,2,-1
 449 767 l 1,3,-1
 449 870 l 1,0,-1
266 870 m 1,4,-1
 338 870 l 1,5,-1
 338 767 l 1,6,-1
 266 767 l 1,7,-1
 266 870 l 1,4,-1
647 87 m 0,8,9
 549 -14 549 -14 393 -14 c 0,10,11
 236 -14 236 -14 138 88 c 0,12,13
 40 191 40 191 40 358 c 0,14,15
 40 524 40 524 139 628 c 0,16,17
 238 731 238 731 393 731 c 0,18,19
 549 731 549 731 648 628 c 0,20,21
 746 524 746 524 746 358 c 0,22,23
 746 189 746 189 647 87 c 0,8,9
575 563 m 0,24,25
 512 643 512 643 393 643 c 0,26,27
 276 643 276 643 212 564 c 0,28,29
 146 484 146 484 146 358 c 128,-1,30
 146 232 146 232 212 153 c 0,31,32
 276 74 276 74 393 74 c 0,33,34
 511 74 511 74 575 153 c 0,35,36
 640 233 640 233 640 358 c 128,-1,37
 640 483 640 483 575 563 c 0,24,25
EndSplineSet
Validated: 1
EndChar

StartChar: multiply
Encoding: 215 215 151
Width: 449
GlyphClass: 1
Flags: W
LayerCount: 2
Fore
SplineSet
387 409 m 1,0,-1
 260 284 l 1,1,-1
 387 159 l 1,2,-1
 350 122 l 1,3,-1
 224 248 l 1,4,-1
 99 122 l 1,5,-1
 62 159 l 1,6,-1
 188 284 l 1,7,-1
 62 409 l 1,8,-1
 99 445 l 1,9,-1
 224 319 l 1,10,-1
 350 445 l 1,11,-1
 387 409 l 1,0,-1
EndSplineSet
Validated: 1
EndChar

StartChar: Oslash
Encoding: 216 216 152
Width: 786
GlyphClass: 1
Flags: W
LayerCount: 2
Fore
SplineSet
392 -12 m 0,0,1
 298 -12 298 -12 212 32 c 1,2,-1
 169 -31 l 1,3,-1
 74 -31 l 1,4,-1
 148 77 l 1,5,6
 40 191 40 191 40 358 c 0,7,8
 40 524 40 524 139 628 c 0,9,10
 238 731 238 731 393 731 c 0,11,12
 484 731 484 731 569 688 c 1,13,-1
 601 733 l 1,14,-1
 695 733 l 1,15,-1
 633 642 l 1,16,17
 746 529 746 529 746 357 c 0,18,19
 746 193 746 193 648 90 c 0,20,21
 549 -12 549 -12 392 -12 c 0,0,1
577 561 m 1,22,-1
 266 108 l 1,23,24
 340 78 340 78 393 78 c 0,25,26
 510 78 510 78 573 156 c 0,27,28
 636 232 636 232 636 360 c 0,29,30
 636 490 636 490 577 561 c 1,22,-1
392 640 m 0,31,32
 278 640 278 640 215 562 c 0,33,34
 151 485 151 485 151 357 c 0,35,36
 151 257 151 257 207 160 c 1,37,-1
 515 611 l 1,38,39
 445 640 445 640 392 640 c 0,31,32
EndSplineSet
Validated: 1
EndChar

StartChar: Ugrave
Encoding: 217 217 153
Width: 743
GlyphClass: 1
Flags: W
LayerCount: 2
Fore
SplineSet
74 304 m 2,0,-1
 74 717 l 1,1,-1
 213 717 l 1,2,-1
 171 675 l 1,3,-1
 171 351 l 2,4,5
 171 301 171 301 175 269 c 0,6,7
 180 227 180 227 192 194 c 0,8,9
 206 155 206 155 226 131 c 128,-1,10
 246 107 246 107 284 90 c 0,11,12
 320 74 320 74 371 74 c 0,13,14
 419 74 419 74 458 91 c 0,15,16
 496 108 496 108 516 132 c 0,17,18
 536 157 536 157 550 196 c 0,19,20
 561 231 561 231 566 270 c 0,21,22
 570 302 570 302 570 351 c 2,23,-1
 570 673 l 1,24,-1
 526 717 l 1,25,-1
 668 717 l 1,26,-1
 668 304 l 2,27,28
 668 152 668 152 593 69 c 128,-1,29
 518 -14 518 -14 371 -14 c 128,-1,30
 224 -14 224 -14 149 69 c 128,-1,31
 74 152 74 152 74 304 c 2,0,-1
275 880 m 1,32,-1
 467 782 l 1,33,-1
 467 740 l 1,34,-1
 275 806 l 1,35,-1
 275 880 l 1,32,-1
EndSplineSet
Validated: 1
EndChar

StartChar: Uacute
Encoding: 218 218 154
Width: 743
GlyphClass: 1
Flags: W
LayerCount: 2
Fore
SplineSet
275 782 m 1,0,-1
 467 880 l 1,1,-1
 467 806 l 1,2,-1
 275 740 l 1,3,-1
 275 782 l 1,0,-1
74 304 m 2,4,-1
 74 717 l 1,5,-1
 213 717 l 1,6,-1
 171 675 l 1,7,-1
 171 351 l 2,8,9
 171 301 171 301 175 269 c 0,10,11
 180 227 180 227 192 194 c 0,12,13
 206 155 206 155 226 131 c 128,-1,14
 246 107 246 107 284 90 c 0,15,16
 320 74 320 74 371 74 c 0,17,18
 419 74 419 74 458 91 c 0,19,20
 496 108 496 108 516 132 c 0,21,22
 536 157 536 157 550 196 c 0,23,24
 561 231 561 231 566 270 c 0,25,26
 570 302 570 302 570 351 c 2,27,-1
 570 673 l 1,28,-1
 526 717 l 1,29,-1
 668 717 l 1,30,-1
 668 304 l 2,31,32
 668 152 668 152 593 69 c 128,-1,33
 518 -14 518 -14 371 -14 c 128,-1,34
 224 -14 224 -14 149 69 c 128,-1,35
 74 152 74 152 74 304 c 2,4,-1
EndSplineSet
Validated: 1
EndChar

StartChar: Ucircumflex
Encoding: 219 219 155
Width: 743
GlyphClass: 1
Flags: W
LayerCount: 2
Fore
SplineSet
371 880 m 1,0,-1
 521 771 l 1,1,-1
 521 734 l 1,2,-1
 371 818 l 1,3,-1
 220 734 l 1,4,-1
 220 771 l 1,5,-1
 371 880 l 1,0,-1
74 304 m 2,6,-1
 74 717 l 1,7,-1
 213 717 l 1,8,-1
 171 675 l 1,9,-1
 171 351 l 2,10,11
 171 301 171 301 175 269 c 0,12,13
 180 227 180 227 192 194 c 0,14,15
 206 155 206 155 226 131 c 128,-1,16
 246 107 246 107 284 90 c 0,17,18
 320 74 320 74 371 74 c 0,19,20
 419 74 419 74 458 91 c 0,21,22
 496 108 496 108 516 132 c 0,23,24
 536 157 536 157 550 196 c 0,25,26
 561 231 561 231 566 270 c 0,27,28
 570 302 570 302 570 351 c 2,29,-1
 570 673 l 1,30,-1
 526 717 l 1,31,-1
 668 717 l 1,32,-1
 668 304 l 2,33,34
 668 152 668 152 593 69 c 128,-1,35
 518 -14 518 -14 371 -14 c 128,-1,36
 224 -14 224 -14 149 69 c 128,-1,37
 74 152 74 152 74 304 c 2,6,-1
EndSplineSet
Validated: 1
EndChar

StartChar: Udieresis
Encoding: 220 220 156
Width: 743
GlyphClass: 1
Flags: W
LayerCount: 2
Fore
SplineSet
427 870 m 1,0,-1
 499 870 l 1,1,-1
 499 767 l 1,2,-1
 427 767 l 1,3,-1
 427 870 l 1,0,-1
245 870 m 1,4,-1
 316 870 l 1,5,-1
 316 767 l 1,6,-1
 245 767 l 1,7,-1
 245 870 l 1,4,-1
74 304 m 2,8,-1
 74 717 l 1,9,-1
 213 717 l 1,10,-1
 171 675 l 1,11,-1
 171 351 l 2,12,13
 171 301 171 301 175 269 c 0,14,15
 180 227 180 227 192 194 c 0,16,17
 206 155 206 155 226 131 c 128,-1,18
 246 107 246 107 284 90 c 0,19,20
 320 74 320 74 371 74 c 0,21,22
 419 74 419 74 458 91 c 0,23,24
 496 108 496 108 516 132 c 0,25,26
 536 157 536 157 550 196 c 0,27,28
 561 231 561 231 566 270 c 0,29,30
 570 302 570 302 570 351 c 2,31,-1
 570 673 l 1,32,-1
 526 717 l 1,33,-1
 668 717 l 1,34,-1
 668 304 l 2,35,36
 668 152 668 152 593 69 c 128,-1,37
 518 -14 518 -14 371 -14 c 128,-1,38
 224 -14 224 -14 149 69 c 128,-1,39
 74 152 74 152 74 304 c 2,8,-1
EndSplineSet
Validated: 1
EndChar

StartChar: Yacute
Encoding: 221 221 157
Width: 580
GlyphClass: 1
Flags: W
LayerCount: 2
Fore
SplineSet
207 782 m 1,0,-1
 398 880 l 1,1,-1
 398 806 l 1,2,-1
 207 740 l 1,3,-1
 207 782 l 1,0,-1
341 53 m 1,4,-1
 394 0 l 1,5,-1
 185 0 l 1,6,-1
 240 54 l 1,7,-1
 240 331 l 1,8,-1
 -3 717 l 1,9,-1
 99 717 l 1,10,-1
 290 419 l 1,11,-1
 480 717 l 1,12,-1
 583 717 l 1,13,-1
 341 331 l 1,14,-1
 341 53 l 1,4,-1
EndSplineSet
Validated: 1
EndChar

StartChar: Thorn
Encoding: 222 222 158
Width: 583
GlyphClass: 1
Flags: W
LayerCount: 2
Fore
SplineSet
340 128 m 2,0,-1
 184 128 l 1,1,-1
 184 0 l 1,2,-1
 82 0 l 1,3,-1
 82 717 l 1,4,-1
 184 717 l 1,5,-1
 184 594 l 1,6,-1
 311 594 l 2,7,8
 364 594 364 594 407 586 c 0,9,10
 448 578 448 578 485 556 c 128,-1,11
 522 534 522 534 542 487 c 0,12,13
 561 442 561 442 561 371 c 0,14,15
 561 307 561 307 541 256 c 0,16,17
 519 205 519 205 486 180 c 0,18,19
 451 152 451 152 415 141 c 0,20,21
 379 128 379 128 340 128 c 2,0,-1
293 507 m 2,22,-1
 184 507 l 1,23,-1
 184 215 l 1,24,-1
 322 215 l 2,25,26
 460 215 460 215 460 367 c 0,27,28
 460 444 460 444 424 476 c 0,29,30
 387 507 387 507 293 507 c 2,22,-1
EndSplineSet
Validated: 1
EndChar

StartChar: germandbls
Encoding: 223 223 159
Width: 570
GlyphClass: 1
Flags: W
LayerCount: 2
Fore
SplineSet
336 -10 m 0,0,1
 333 -10 333 -10 285 -7 c 1,2,-1
 285 72 l 1,3,4
 328 72 328 72 340 73 c 0,5,6
 348 73 348 73 384 75 c 0,7,8
 407 76 407 76 422 82 c 0,9,10
 432 86 432 86 447 94 c 0,11,12
 460 102 460 102 465 115 c 256,13,14
 470 128 470 128 470 145 c 0,15,16
 470 177 470 177 452 207 c 0,17,18
 433 239 433 239 409 260 c 0,19,20
 375 290 375 290 358 304 c 0,21,22
 334 322 334 322 314 344 c 0,23,24
 296 364 296 364 296 380 c 0,25,26
 296 395 296 395 313 420 c 0,27,28
 328 441 328 441 351 468 c 0,29,30
 373 491 373 491 389 527 c 0,31,32
 406 563 406 563 406 598 c 0,33,34
 406 686 406 686 304 686 c 0,35,36
 246 686 246 686 221 659 c 0,37,38
 196 633 196 633 196 561 c 2,39,-1
 196 -139 l 1,40,-1
 103 -139 l 1,41,-1
 103 430 l 1,42,-1
 16 430 l 1,43,-1
 29 502 l 1,44,-1
 103 502 l 1,45,-1
 103 591 l 2,46,47
 103 675 103 675 161 721 c 0,48,49
 220 768 220 768 306 768 c 0,50,51
 387 768 387 768 443 727 c 0,52,53
 499 685 499 685 499 600 c 0,54,55
 499 546 499 546 474 500 c 0,56,57
 448 454 448 454 423 425 c 0,58,59
 398 397 398 397 398 387 c 128,-1,60
 398 377 398 377 424 354 c 0,61,62
 450 332 450 332 481 306 c 128,-1,63
 512 280 512 280 538 237 c 0,64,65
 564 193 564 193 564 146 c 0,66,67
 564 91 564 91 530 56 c 0,68,69
 495 18 495 18 447 5 c 0,70,71
 398 -10 398 -10 336 -10 c 0,0,1
EndSplineSet
Validated: 1
EndChar

StartChar: agrave
Encoding: 224 224 160
Width: 491
GlyphClass: 1
Flags: W
LayerCount: 2
Fore
SplineSet
70 323 m 1,0,-1
 70 460 l 1,1,2
 137 512 137 512 240 512 c 0,3,4
 336 512 336 512 377 458 c 0,5,6
 417 403 417 403 417 271 c 2,7,-1
 417 169 l 2,8,9
 417 109 417 109 428 85 c 0,10,11
 438 63 438 63 474 63 c 2,12,-1
 483 63 l 1,13,-1
 469 -10 l 1,14,-1
 462 -10 l 2,15,16
 402 -10 402 -10 377 5 c 0,17,18
 353 19 353 19 333 63 c 1,19,20
 270 -10 270 -10 179 -10 c 0,21,22
 108 -10 108 -10 67 30 c 0,23,24
 25 70 25 70 25 135 c 0,25,26
 25 184 25 184 52 220 c 128,-1,27
 79 256 79 256 126 276 c 0,28,29
 171 295 171 295 221 304 c 0,30,31
 267 312 267 312 325 314 c 1,32,33
 325 380 325 380 300 405 c 128,-1,34
 275 430 275 430 215 430 c 0,35,36
 197 430 197 430 172 425 c 1,37,-1
 70 323 l 1,0,-1
325 131 m 1,38,-1
 325 251 l 1,39,40
 211 246 211 246 167 222 c 0,41,42
 119 196 119 196 119 140 c 0,43,44
 119 63 119 63 197 63 c 0,45,46
 234 63 234 63 268 82 c 0,47,48
 303 100 303 100 325 131 c 1,38,-1
151 750 m 1,49,-1
 342 652 l 1,50,-1
 342 610 l 1,51,-1
 151 676 l 1,52,-1
 151 750 l 1,49,-1
EndSplineSet
Validated: 1
EndChar

StartChar: aacute
Encoding: 225 225 161
Width: 491
GlyphClass: 1
Flags: W
LayerCount: 2
Fore
SplineSet
150 652 m 1,0,-1
 341 750 l 1,1,-1
 341 676 l 1,2,-1
 150 610 l 1,3,-1
 150 652 l 1,0,-1
70 323 m 1,4,-1
 70 460 l 1,5,6
 137 512 137 512 240 512 c 0,7,8
 336 512 336 512 377 458 c 0,9,10
 417 403 417 403 417 271 c 2,11,-1
 417 169 l 2,12,13
 417 109 417 109 428 85 c 0,14,15
 438 63 438 63 474 63 c 2,16,-1
 483 63 l 1,17,-1
 469 -10 l 1,18,-1
 462 -10 l 2,19,20
 402 -10 402 -10 377 5 c 0,21,22
 353 19 353 19 333 63 c 1,23,24
 270 -10 270 -10 179 -10 c 0,25,26
 108 -10 108 -10 67 30 c 0,27,28
 25 70 25 70 25 135 c 0,29,30
 25 184 25 184 52 220 c 128,-1,31
 79 256 79 256 126 276 c 0,32,33
 171 295 171 295 221 304 c 0,34,35
 267 312 267 312 325 314 c 1,36,37
 325 380 325 380 300 405 c 128,-1,38
 275 430 275 430 215 430 c 0,39,40
 197 430 197 430 172 425 c 1,41,-1
 70 323 l 1,4,-1
325 131 m 1,42,-1
 325 251 l 1,43,44
 211 246 211 246 167 222 c 0,45,46
 119 196 119 196 119 140 c 0,47,48
 119 63 119 63 197 63 c 0,49,50
 234 63 234 63 268 82 c 0,51,52
 303 100 303 100 325 131 c 1,42,-1
EndSplineSet
Validated: 1
EndChar

StartChar: acircumflex
Encoding: 226 226 162
Width: 491
GlyphClass: 1
Flags: W
LayerCount: 2
Fore
SplineSet
246 763 m 1,0,-1
 396 654 l 1,1,-1
 396 617 l 1,2,-1
 246 701 l 1,3,-1
 95 617 l 1,4,-1
 95 654 l 1,5,-1
 246 763 l 1,0,-1
70 323 m 1,6,-1
 70 460 l 1,7,8
 137 512 137 512 240 512 c 0,9,10
 336 512 336 512 377 458 c 0,11,12
 417 403 417 403 417 271 c 2,13,-1
 417 169 l 2,14,15
 417 109 417 109 428 85 c 0,16,17
 438 63 438 63 474 63 c 2,18,-1
 483 63 l 1,19,-1
 469 -10 l 1,20,-1
 462 -10 l 2,21,22
 402 -10 402 -10 377 5 c 0,23,24
 353 19 353 19 333 63 c 1,25,26
 270 -10 270 -10 179 -10 c 0,27,28
 108 -10 108 -10 67 30 c 0,29,30
 25 70 25 70 25 135 c 0,31,32
 25 184 25 184 52 220 c 128,-1,33
 79 256 79 256 126 276 c 0,34,35
 171 295 171 295 221 304 c 0,36,37
 267 312 267 312 325 314 c 1,38,39
 325 380 325 380 300 405 c 128,-1,40
 275 430 275 430 215 430 c 0,41,42
 197 430 197 430 172 425 c 1,43,-1
 70 323 l 1,6,-1
325 131 m 1,44,-1
 325 251 l 1,45,46
 211 246 211 246 167 222 c 0,47,48
 119 196 119 196 119 140 c 0,49,50
 119 63 119 63 197 63 c 0,51,52
 234 63 234 63 268 82 c 0,53,54
 303 100 303 100 325 131 c 1,44,-1
EndSplineSet
Validated: 1
EndChar

StartChar: atilde
Encoding: 227 227 163
Width: 491
GlyphClass: 1
Flags: W
LayerCount: 2
Fore
SplineSet
310 613 m 0,0,1
 292 613 292 613 240 640 c 0,2,3
 186 666 186 666 175 666 c 0,4,5
 120 666 120 666 102 615 c 1,6,-1
 66 625 l 1,7,8
 77 667 77 667 107 693 c 0,9,10
 136 717 136 717 171 717 c 0,11,12
 188 717 188 717 245 692 c 128,-1,13
 302 667 302 667 314 667 c 0,14,15
 358 667 358 667 385 719 c 1,16,-1
 420 710 l 1,17,18
 409 666 409 666 379 640 c 0,19,20
 349 613 349 613 310 613 c 0,0,1
70 323 m 1,21,-1
 70 460 l 1,22,23
 137 512 137 512 240 512 c 0,24,25
 336 512 336 512 377 458 c 0,26,27
 417 403 417 403 417 271 c 2,28,-1
 417 169 l 2,29,30
 417 109 417 109 428 85 c 0,31,32
 438 63 438 63 474 63 c 2,33,-1
 483 63 l 1,34,-1
 469 -10 l 1,35,-1
 462 -10 l 2,36,37
 402 -10 402 -10 377 5 c 0,38,39
 353 19 353 19 333 63 c 1,40,41
 270 -10 270 -10 179 -10 c 0,42,43
 108 -10 108 -10 67 30 c 0,44,45
 25 70 25 70 25 135 c 0,46,47
 25 184 25 184 52 220 c 128,-1,48
 79 256 79 256 126 276 c 0,49,50
 171 295 171 295 221 304 c 0,51,52
 267 312 267 312 325 314 c 1,53,54
 325 380 325 380 300 405 c 128,-1,55
 275 430 275 430 215 430 c 0,56,57
 197 430 197 430 172 425 c 1,58,-1
 70 323 l 1,21,-1
325 131 m 1,59,-1
 325 251 l 1,60,61
 211 246 211 246 167 222 c 0,62,63
 119 196 119 196 119 140 c 0,64,65
 119 63 119 63 197 63 c 0,66,67
 234 63 234 63 268 82 c 0,68,69
 303 100 303 100 325 131 c 1,59,-1
EndSplineSet
Validated: 1
EndChar

StartChar: adieresis
Encoding: 228 228 164
Width: 491
GlyphClass: 1
Flags: W
LayerCount: 2
Fore
SplineSet
301 717 m 1,0,-1
 373 717 l 1,1,-1
 373 614 l 1,2,-1
 301 614 l 1,3,-1
 301 717 l 1,0,-1
119 717 m 1,4,-1
 190 717 l 1,5,-1
 190 614 l 1,6,-1
 119 614 l 1,7,-1
 119 717 l 1,4,-1
70 323 m 1,8,-1
 70 460 l 1,9,10
 137 512 137 512 240 512 c 0,11,12
 336 512 336 512 377 458 c 0,13,14
 417 403 417 403 417 271 c 2,15,-1
 417 169 l 2,16,17
 417 109 417 109 428 85 c 0,18,19
 438 63 438 63 474 63 c 2,20,-1
 483 63 l 1,21,-1
 469 -10 l 1,22,-1
 462 -10 l 2,23,24
 402 -10 402 -10 377 5 c 0,25,26
 353 19 353 19 333 63 c 1,27,28
 270 -10 270 -10 179 -10 c 0,29,30
 108 -10 108 -10 67 30 c 0,31,32
 25 70 25 70 25 135 c 0,33,34
 25 184 25 184 52 220 c 128,-1,35
 79 256 79 256 126 276 c 0,36,37
 171 295 171 295 221 304 c 0,38,39
 267 312 267 312 325 314 c 1,40,41
 325 380 325 380 300 405 c 128,-1,42
 275 430 275 430 215 430 c 0,43,44
 197 430 197 430 172 425 c 1,45,-1
 70 323 l 1,8,-1
325 131 m 1,46,-1
 325 251 l 1,47,48
 211 246 211 246 167 222 c 0,49,50
 119 196 119 196 119 140 c 0,51,52
 119 63 119 63 197 63 c 0,53,54
 234 63 234 63 268 82 c 0,55,56
 303 100 303 100 325 131 c 1,46,-1
EndSplineSet
Validated: 1
EndChar

StartChar: aring
Encoding: 229 229 165
Width: 491
GlyphClass: 1
Flags: W
LayerCount: 2
Fore
SplineSet
70 323 m 1,0,-1
 70 460 l 1,1,2
 137 512 137 512 240 512 c 0,3,4
 336 512 336 512 377 458 c 0,5,6
 417 403 417 403 417 271 c 2,7,-1
 417 169 l 2,8,9
 417 109 417 109 428 85 c 0,10,11
 438 63 438 63 474 63 c 2,12,-1
 483 63 l 1,13,-1
 469 -10 l 1,14,-1
 462 -10 l 2,15,16
 402 -10 402 -10 377 5 c 0,17,18
 353 19 353 19 333 63 c 1,19,20
 270 -10 270 -10 179 -10 c 0,21,22
 108 -10 108 -10 67 30 c 0,23,24
 25 70 25 70 25 135 c 0,25,26
 25 184 25 184 52 220 c 128,-1,27
 79 256 79 256 126 276 c 0,28,29
 171 295 171 295 221 304 c 0,30,31
 267 312 267 312 325 314 c 1,32,33
 325 380 325 380 300 405 c 128,-1,34
 275 430 275 430 215 430 c 0,35,36
 197 430 197 430 172 425 c 1,37,-1
 70 323 l 1,0,-1
254 590 m 2,38,-1
 247 590 l 2,39,40
 198 590 198 590 169 616 c 128,-1,41
 140 642 140 642 140 681 c 0,42,43
 140 723 140 723 171 748 c 0,44,45
 200 773 200 773 253 773 c 0,46,47
 300 773 300 773 326 746 c 0,48,49
 352 718 352 718 352 681 c 0,50,51
 352 643 352 643 327 617 c 0,52,53
 302 590 302 590 254 590 c 2,38,-1
325 131 m 1,54,-1
 325 251 l 1,55,56
 211 246 211 246 167 222 c 0,57,58
 119 196 119 196 119 140 c 0,59,60
 119 63 119 63 197 63 c 0,61,62
 234 63 234 63 268 82 c 0,63,64
 303 100 303 100 325 131 c 1,54,-1
185 681 m 128,-1,66
 185 654 185 654 203 637 c 0,67,68
 222 620 222 620 247 620 c 0,69,70
 271 620 271 620 290 637 c 0,71,72
 308 654 308 654 308 681 c 128,-1,73
 308 708 308 708 291 725 c 0,74,75
 274 741 274 741 247 741 c 0,76,77
 222 741 222 741 203 724 c 0,78,65
 185 708 185 708 185 681 c 128,-1,66
EndSplineSet
Validated: 1
EndChar

StartChar: ae
Encoding: 230 230 166
Width: 817
GlyphClass: 1
Flags: W
LayerCount: 2
Fore
SplineSet
782 251 m 1,0,-1
 438 251 l 1,1,2
 438 159 438 159 484 112 c 0,3,4
 529 63 529 63 607 63 c 0,5,6
 642 63 642 63 663 70 c 0,7,8
 688 77 688 77 744 101 c 1,9,-1
 762 31 l 1,10,11
 675 -10 675 -10 595 -10 c 0,12,13
 443 -10 443 -10 389 105 c 1,14,15
 362 47 362 47 307 17 c 0,16,17
 252 -14 252 -14 176 -14 c 128,-1,18
 100 -14 100 -14 62 21 c 0,19,20
 23 56 23 56 23 121 c 0,21,22
 23 299 23 299 331 314 c 1,23,24
 322 377 322 377 295 404 c 0,25,26
 266 430 266 430 210 430 c 0,27,28
 158 430 158 430 85 400 c 1,29,-1
 77 472 l 1,30,31
 160 512 160 512 237 512 c 0,32,33
 289 512 289 512 339 483 c 0,34,35
 388 455 388 455 399 389 c 1,36,37
 418 449 418 449 471 481 c 0,38,39
 521 512 521 512 591 512 c 0,40,41
 682 512 682 512 734 458 c 0,42,43
 786 405 786 405 786 307 c 0,44,45
 786 276 786 276 782 251 c 1,0,-1
698 314 m 1,46,47
 698 430 698 430 587 430 c 128,-1,48
 476 430 476 430 446 314 c 1,49,-1
 698 314 l 1,46,47
339 251 m 1,50,51
 288 251 288 251 238 240 c 0,52,53
 192 230 192 230 154 200 c 0,54,55
 117 172 117 172 117 129 c 0,56,57
 117 63 117 63 197 63 c 0,58,59
 259 63 259 63 300 100 c 0,60,61
 341 136 341 136 341 203 c 0,62,63
 341 219 341 219 339 251 c 1,50,51
EndSplineSet
Validated: 1
EndChar

StartChar: ccedilla
Encoding: 231 231 167
Width: 464
GlyphClass: 1
Flags: W
LayerCount: 2
Fore
SplineSet
284 -10 m 0,0,1
 266 -10 266 -10 261 -9 c 1,2,-1
 258 -22 l 2,3,4
 258 -25 258 -25 257 -27 c 128,-1,5
 256 -29 256 -29 256 -32 c 128,-1,6
 256 -35 256 -35 257 -36 c 0,7,8
 259 -40 259 -40 261 -41 c 0,9,10
 264 -44 264 -44 267 -46 c 0,11,12
 310 -81 310 -81 322 -96 c 0,13,14
 335 -112 335 -112 335 -139 c 0,15,16
 335 -184 335 -184 307 -212 c 128,-1,17
 279 -240 279 -240 224 -240 c 0,18,19
 175 -240 175 -240 128 -206 c 1,20,-1
 161 -154 l 1,21,22
 210 -181 210 -181 230 -177 c 1,23,24
 249 -169 249 -169 253 -144 c 0,25,26
 259 -120 259 -120 211 -91 c 0,27,28
 180 -76 180 -76 193 -22 c 2,29,-1
 199 1 l 1,30,-1
 177 9 l 1,31,32
 108 40 108 40 71 103 c 0,33,34
 34 165 34 165 34 252 c 0,35,36
 34 370 34 370 100 441 c 0,37,38
 165 512 165 512 283 512 c 0,39,40
 380 512 380 512 437 482 c 1,41,-1
 426 417 l 1,42,-1
 426 338 l 1,43,-1
 337 427 l 1,44,45
 314 430 314 430 293 430 c 0,46,47
 128 430 128 430 128 252 c 0,48,49
 128 164 128 164 170 118 c 0,50,51
 211 71 211 71 293 71 c 0,52,53
 299 71 299 71 331 73 c 1,54,-1
 426 168 l 1,55,-1
 426 89 l 1,56,-1
 436 28 l 1,57,58
 380 -10 380 -10 284 -10 c 0,0,1
EndSplineSet
Validated: 33
EndChar

StartChar: egrave
Encoding: 232 232 168
Width: 524
GlyphClass: 1
Flags: W
LayerCount: 2
Fore
SplineSet
489 251 m 1,0,-1
 126 251 l 1,1,2
 143 72 143 72 314 72 c 0,3,4
 342 72 342 72 367 75 c 1,5,-1
 462 170 l 1,6,-1
 462 83 l 1,7,-1
 471 29 l 1,8,9
 382 -10 382 -10 303 -10 c 0,10,11
 178 -10 178 -10 105 65 c 0,12,13
 32 138 32 138 32 255 c 0,14,15
 32 365 32 365 100 439 c 0,16,17
 167 512 167 512 278 512 c 0,18,19
 375 512 375 512 435 455 c 0,20,21
 494 398 494 398 494 300 c 0,22,23
 494 276 494 276 489 251 c 1,0,-1
275 430 m 0,24,25
 163 430 163 430 134 314 c 1,26,-1
 398 314 l 1,27,28
 398 430 398 430 275 430 c 0,24,25
165 750 m 1,29,-1
 356 652 l 1,30,-1
 356 610 l 1,31,-1
 165 676 l 1,32,-1
 165 750 l 1,29,-1
EndSplineSet
Validated: 1
EndChar

StartChar: eacute
Encoding: 233 233 169
Width: 524
GlyphClass: 1
Flags: W
LayerCount: 2
Fore
SplineSet
166 652 m 1,0,-1
 357 750 l 1,1,-1
 357 676 l 1,2,-1
 166 610 l 1,3,-1
 166 652 l 1,0,-1
489 251 m 1,4,-1
 126 251 l 1,5,6
 143 72 143 72 314 72 c 0,7,8
 342 72 342 72 367 75 c 1,9,-1
 462 170 l 1,10,-1
 462 83 l 1,11,-1
 471 29 l 1,12,13
 382 -10 382 -10 303 -10 c 0,14,15
 178 -10 178 -10 105 65 c 0,16,17
 32 138 32 138 32 255 c 0,18,19
 32 365 32 365 100 439 c 0,20,21
 167 512 167 512 278 512 c 0,22,23
 375 512 375 512 435 455 c 0,24,25
 494 398 494 398 494 300 c 0,26,27
 494 276 494 276 489 251 c 1,4,-1
275 430 m 0,28,29
 163 430 163 430 134 314 c 1,30,-1
 398 314 l 1,31,32
 398 430 398 430 275 430 c 0,28,29
EndSplineSet
Validated: 1
EndChar

StartChar: ecircumflex
Encoding: 234 234 170
Width: 524
GlyphClass: 1
Flags: W
LayerCount: 2
Fore
SplineSet
261 763 m 1,0,-1
 412 654 l 1,1,-1
 412 617 l 1,2,-1
 261 701 l 1,3,-1
 111 617 l 1,4,-1
 111 654 l 1,5,-1
 261 763 l 1,0,-1
489 251 m 1,6,-1
 126 251 l 1,7,8
 143 72 143 72 314 72 c 0,9,10
 342 72 342 72 367 75 c 1,11,-1
 462 170 l 1,12,-1
 462 83 l 1,13,-1
 471 29 l 1,14,15
 382 -10 382 -10 303 -10 c 0,16,17
 178 -10 178 -10 105 65 c 0,18,19
 32 138 32 138 32 255 c 0,20,21
 32 365 32 365 100 439 c 0,22,23
 167 512 167 512 278 512 c 0,24,25
 375 512 375 512 435 455 c 0,26,27
 494 398 494 398 494 300 c 0,28,29
 494 276 494 276 489 251 c 1,6,-1
275 430 m 0,30,31
 163 430 163 430 134 314 c 1,32,-1
 398 314 l 1,33,34
 398 430 398 430 275 430 c 0,30,31
EndSplineSet
Validated: 1
EndChar

StartChar: edieresis
Encoding: 235 235 171
Width: 524
GlyphClass: 1
Flags: W
LayerCount: 2
Fore
SplineSet
316 717 m 1,0,-1
 388 717 l 1,1,-1
 388 614 l 1,2,-1
 316 614 l 1,3,-1
 316 717 l 1,0,-1
134 717 m 1,4,-1
 206 717 l 1,5,-1
 206 614 l 1,6,-1
 134 614 l 1,7,-1
 134 717 l 1,4,-1
489 251 m 1,8,-1
 126 251 l 1,9,10
 143 72 143 72 314 72 c 0,11,12
 342 72 342 72 367 75 c 1,13,-1
 462 170 l 1,14,-1
 462 83 l 1,15,-1
 471 29 l 1,16,17
 382 -10 382 -10 303 -10 c 0,18,19
 178 -10 178 -10 105 65 c 0,20,21
 32 138 32 138 32 255 c 0,22,23
 32 365 32 365 100 439 c 0,24,25
 167 512 167 512 278 512 c 0,26,27
 375 512 375 512 435 455 c 0,28,29
 494 398 494 398 494 300 c 0,30,31
 494 276 494 276 489 251 c 1,8,-1
275 430 m 0,32,33
 163 430 163 430 134 314 c 1,34,-1
 398 314 l 1,35,36
 398 430 398 430 275 430 c 0,32,33
EndSplineSet
Validated: 1
EndChar

StartChar: igrave
Encoding: 236 236 172
Width: 217
GlyphClass: 1
Flags: W
LayerCount: 2
Fore
SplineSet
62 502 m 1,0,-1
 155 502 l 1,1,-1
 155 0 l 1,2,-1
 62 0 l 1,3,-1
 62 502 l 1,0,-1
13 750 m 1,4,-1
 205 652 l 1,5,-1
 205 610 l 1,6,-1
 13 676 l 1,7,-1
 13 750 l 1,4,-1
EndSplineSet
Validated: 1
EndChar

StartChar: iacute
Encoding: 237 237 173
Width: 217
GlyphClass: 1
Flags: W
LayerCount: 2
Fore
SplineSet
62 502 m 1,0,-1
 155 502 l 1,1,-1
 155 0 l 1,2,-1
 62 0 l 1,3,-1
 62 502 l 1,0,-1
14 652 m 1,4,-1
 206 750 l 1,5,-1
 206 676 l 1,6,-1
 14 610 l 1,7,-1
 14 652 l 1,4,-1
EndSplineSet
Validated: 1
EndChar

StartChar: icircumflex
Encoding: 238 238 174
Width: 217
GlyphClass: 1
Flags: W
LayerCount: 2
Fore
SplineSet
62 502 m 1,0,-1
 155 502 l 1,1,-1
 155 0 l 1,2,-1
 62 0 l 1,3,-1
 62 502 l 1,0,-1
111 763 m 1,4,-1
 261 654 l 1,5,-1
 261 617 l 1,6,-1
 111 701 l 1,7,-1
 -40 617 l 1,8,-1
 -40 654 l 1,9,-1
 111 763 l 1,4,-1
EndSplineSet
Validated: 1
EndChar

StartChar: idieresis
Encoding: 239 239 175
Width: 217
GlyphClass: 1
Flags: W
LayerCount: 2
Fore
SplineSet
62 502 m 1,0,-1
 155 502 l 1,1,-1
 155 0 l 1,2,-1
 62 0 l 1,3,-1
 62 502 l 1,0,-1
165 717 m 1,4,-1
 237 717 l 1,5,-1
 237 614 l 1,6,-1
 165 614 l 1,7,-1
 165 717 l 1,4,-1
-17 717 m 1,8,-1
 54 717 l 1,9,-1
 54 614 l 1,10,-1
 -17 614 l 1,11,-1
 -17 717 l 1,8,-1
EndSplineSet
Validated: 1
EndChar

StartChar: eth
Encoding: 240 240 176
Width: 529
GlyphClass: 1
Flags: W
LayerCount: 2
Fore
SplineSet
255 -12 m 0,0,1
 158 -12 158 -12 93 50 c 0,2,3
 29 111 29 111 29 206 c 0,4,5
 29 297 29 297 88 367 c 0,6,7
 146 436 146 436 245 436 c 0,8,9
 333 436 333 436 383 380 c 1,10,11
 376 432 376 432 350 491 c 0,12,13
 325 549 325 549 295 573 c 1,14,15
 217 519 217 519 151 510 c 1,16,-1
 120 566 l 1,17,18
 186 575 186 575 251 620 c 1,19,20
 190 675 190 675 127 675 c 1,21,-1
 160 718 l 1,22,23
 235 718 235 718 312 662 c 1,24,25
 344 689 344 689 373 727 c 1,26,-1
 420 715 l 1,27,28
 396 680 396 680 349 629 c 1,29,30
 415 569 415 569 456 468 c 0,31,32
 496 369 496 369 496 263 c 0,33,34
 496 188 496 188 475 132 c 0,35,36
 452 75 452 75 417 46 c 0,37,38
 378 15 378 15 340 2 c 0,39,40
 298 -12 298 -12 255 -12 c 0,0,1
260 351 m 0,41,42
 203 351 203 351 167 312 c 0,43,44
 131 272 131 272 131 215 c 0,45,46
 131 154 131 154 167 113 c 0,47,48
 201 73 201 73 259 73 c 0,49,50
 314 73 314 73 348 112 c 0,51,52
 382 150 382 150 382 213 c 128,-1,53
 382 276 382 276 349 313 c 0,54,55
 314 351 314 351 260 351 c 0,41,42
EndSplineSet
Validated: 1
EndChar

StartChar: ntilde
Encoding: 241 241 177
Width: 572
GlyphClass: 1
Flags: W
LayerCount: 2
Fore
SplineSet
354 613 m 0,0,1
 336 613 336 613 284 640 c 0,2,3
 230 666 230 666 219 666 c 0,4,5
 164 666 164 666 146 615 c 1,6,-1
 110 625 l 1,7,8
 121 667 121 667 151 693 c 0,9,10
 180 717 180 717 215 717 c 0,11,12
 232 717 232 717 289 692 c 128,-1,13
 346 667 346 667 358 667 c 0,14,15
 402 667 402 667 429 719 c 1,16,-1
 464 710 l 1,17,18
 453 666 453 666 423 640 c 0,19,20
 393 613 393 613 354 613 c 0,0,1
155 365 m 1,21,-1
 155 0 l 1,22,-1
 10 0 l 1,23,-1
 62 52 l 1,24,-1
 62 502 l 1,25,-1
 134 502 l 1,26,-1
 144 449 l 1,27,28
 216 512 216 512 310 512 c 0,29,30
 515 512 515 512 515 276 c 2,31,-1
 515 52 l 1,32,-1
 567 0 l 1,33,-1
 423 0 l 1,34,-1
 423 276 l 2,35,36
 423 356 423 356 393 394 c 0,37,38
 362 430 362 430 292 430 c 0,39,40
 193 430 193 430 155 365 c 1,21,-1
EndSplineSet
Validated: 1
EndChar

StartChar: ograve
Encoding: 242 242 178
Width: 563
GlyphClass: 1
Flags: W
LayerCount: 2
Fore
SplineSet
463 63 m 0,0,1
 397 -10 397 -10 282 -10 c 0,2,3
 169 -10 169 -10 101 64 c 128,-1,4
 33 138 33 138 33 251 c 0,5,6
 33 365 33 365 101 439 c 0,7,8
 168 512 168 512 282 512 c 0,9,10
 394 512 394 512 462 438 c 128,-1,11
 530 364 530 364 530 251 c 0,12,13
 530 136 530 136 463 63 c 0,0,1
395 383 m 128,-1,15
 354 430 354 430 282 430 c 0,16,17
 208 430 208 430 168 384 c 0,18,19
 127 337 127 337 127 251 c 0,20,21
 127 166 127 166 168 119 c 128,-1,22
 209 72 209 72 282 72 c 0,23,24
 356 72 356 72 396 120 c 0,25,26
 436 166 436 166 436 251 c 128,-1,14
 436 336 436 336 395 383 c 128,-1,15
185 750 m 1,27,-1
 377 652 l 1,28,-1
 377 610 l 1,29,-1
 185 676 l 1,30,-1
 185 750 l 1,27,-1
EndSplineSet
Validated: 1
EndChar

StartChar: oacute
Encoding: 243 243 179
Width: 563
GlyphClass: 1
Flags: W
LayerCount: 2
Fore
SplineSet
185 652 m 1,0,-1
 377 750 l 1,1,-1
 377 676 l 1,2,-1
 185 610 l 1,3,-1
 185 652 l 1,0,-1
463 63 m 0,4,5
 397 -10 397 -10 282 -10 c 0,6,7
 169 -10 169 -10 101 64 c 128,-1,8
 33 138 33 138 33 251 c 0,9,10
 33 365 33 365 101 439 c 0,11,12
 168 512 168 512 282 512 c 0,13,14
 394 512 394 512 462 438 c 128,-1,15
 530 364 530 364 530 251 c 0,16,17
 530 136 530 136 463 63 c 0,4,5
395 383 m 128,-1,19
 354 430 354 430 282 430 c 0,20,21
 208 430 208 430 168 384 c 0,22,23
 127 337 127 337 127 251 c 0,24,25
 127 166 127 166 168 119 c 128,-1,26
 209 72 209 72 282 72 c 0,27,28
 356 72 356 72 396 120 c 0,29,30
 436 166 436 166 436 251 c 128,-1,18
 436 336 436 336 395 383 c 128,-1,19
EndSplineSet
Validated: 1
EndChar

StartChar: ocircumflex
Encoding: 244 244 180
Width: 563
GlyphClass: 1
Flags: W
LayerCount: 2
Fore
SplineSet
282 763 m 1,0,-1
 432 654 l 1,1,-1
 432 617 l 1,2,-1
 282 701 l 1,3,-1
 131 617 l 1,4,-1
 131 654 l 1,5,-1
 282 763 l 1,0,-1
463 63 m 0,6,7
 397 -10 397 -10 282 -10 c 0,8,9
 169 -10 169 -10 101 64 c 128,-1,10
 33 138 33 138 33 251 c 0,11,12
 33 365 33 365 101 439 c 0,13,14
 168 512 168 512 282 512 c 0,15,16
 394 512 394 512 462 438 c 128,-1,17
 530 364 530 364 530 251 c 0,18,19
 530 136 530 136 463 63 c 0,6,7
395 383 m 128,-1,21
 354 430 354 430 282 430 c 0,22,23
 208 430 208 430 168 384 c 0,24,25
 127 337 127 337 127 251 c 0,26,27
 127 166 127 166 168 119 c 128,-1,28
 209 72 209 72 282 72 c 0,29,30
 356 72 356 72 396 120 c 0,31,32
 436 166 436 166 436 251 c 128,-1,20
 436 336 436 336 395 383 c 128,-1,21
EndSplineSet
Validated: 1
EndChar

StartChar: otilde
Encoding: 245 245 181
Width: 563
GlyphClass: 1
Flags: W
LayerCount: 2
Fore
SplineSet
349 613 m 0,0,1
 332 613 332 613 279 640 c 0,2,3
 225 666 225 666 214 666 c 0,4,5
 159 666 159 666 141 615 c 1,6,-1
 104 625 l 1,7,8
 116 667 116 667 146 693 c 0,9,10
 174 717 174 717 210 717 c 0,11,12
 227 717 227 717 284 692 c 128,-1,13
 341 667 341 667 353 667 c 0,14,15
 397 667 397 667 424 719 c 1,16,-1
 459 710 l 1,17,18
 448 666 448 666 418 640 c 0,19,20
 388 613 388 613 349 613 c 0,0,1
463 63 m 0,21,22
 397 -10 397 -10 282 -10 c 0,23,24
 169 -10 169 -10 101 64 c 128,-1,25
 33 138 33 138 33 251 c 0,26,27
 33 365 33 365 101 439 c 0,28,29
 168 512 168 512 282 512 c 0,30,31
 394 512 394 512 462 438 c 128,-1,32
 530 364 530 364 530 251 c 0,33,34
 530 136 530 136 463 63 c 0,21,22
395 383 m 128,-1,36
 354 430 354 430 282 430 c 0,37,38
 208 430 208 430 168 384 c 0,39,40
 127 337 127 337 127 251 c 0,41,42
 127 166 127 166 168 119 c 128,-1,43
 209 72 209 72 282 72 c 0,44,45
 356 72 356 72 396 120 c 0,46,47
 436 166 436 166 436 251 c 128,-1,35
 436 336 436 336 395 383 c 128,-1,36
EndSplineSet
Validated: 1
EndChar

StartChar: odieresis
Encoding: 246 246 182
Width: 563
GlyphClass: 1
Flags: W
LayerCount: 2
Fore
SplineSet
337 717 m 1,0,-1
 409 717 l 1,1,-1
 409 614 l 1,2,-1
 337 614 l 1,3,-1
 337 717 l 1,0,-1
155 717 m 1,4,-1
 226 717 l 1,5,-1
 226 614 l 1,6,-1
 155 614 l 1,7,-1
 155 717 l 1,4,-1
463 63 m 0,8,9
 397 -10 397 -10 282 -10 c 0,10,11
 169 -10 169 -10 101 64 c 128,-1,12
 33 138 33 138 33 251 c 0,13,14
 33 365 33 365 101 439 c 0,15,16
 168 512 168 512 282 512 c 0,17,18
 394 512 394 512 462 438 c 128,-1,19
 530 364 530 364 530 251 c 0,20,21
 530 136 530 136 463 63 c 0,8,9
395 383 m 128,-1,23
 354 430 354 430 282 430 c 0,24,25
 208 430 208 430 168 384 c 0,26,27
 127 337 127 337 127 251 c 0,28,29
 127 166 127 166 168 119 c 128,-1,30
 209 72 209 72 282 72 c 0,31,32
 356 72 356 72 396 120 c 0,33,34
 436 166 436 166 436 251 c 128,-1,22
 436 336 436 336 395 383 c 128,-1,23
EndSplineSet
Validated: 1
EndChar

StartChar: divide
Encoding: 247 247 183
Width: 606
GlyphClass: 1
Flags: W
LayerCount: 2
Fore
SplineSet
253 547 m 1,0,-1
 344 547 l 1,1,-1
 344 451 l 1,2,-1
 253 451 l 1,3,-1
 253 547 l 1,0,-1
68 327 m 1,4,-1
 539 327 l 1,5,-1
 539 251 l 1,6,-1
 68 251 l 1,7,-1
 68 327 l 1,4,-1
253 117 m 1,8,-1
 344 117 l 1,9,-1
 344 20 l 1,10,-1
 253 20 l 1,11,-1
 253 117 l 1,8,-1
EndSplineSet
Validated: 1
EndChar

StartChar: oslash
Encoding: 248 248 184
Width: 583
GlyphClass: 1
Flags: W
LayerCount: 2
Fore
SplineSet
293 -13 m 0,0,1
 265 -13 265 -13 205 -2 c 1,2,-1
 185 -41 l 1,3,-1
 113 -41 l 1,4,-1
 145 27 l 1,5,6
 34 108 34 108 34 250 c 0,7,8
 34 362 34 362 105 438 c 0,9,10
 176 513 176 513 292 513 c 0,11,12
 328 513 328 513 378 501 c 1,13,-1
 397 542 l 1,14,-1
 473 542 l 1,15,-1
 438 474 l 1,16,17
 552 388 552 388 552 249 c 0,18,19
 552 134 552 134 482 61 c 0,20,21
 411 -13 411 -13 293 -13 c 0,0,1
404 402 m 1,22,-1
 238 65 l 1,23,24
 286 58 286 58 294 58 c 0,25,26
 368 58 368 58 411 113 c 0,27,28
 453 167 453 167 453 249 c 0,29,30
 453 297 453 297 440 340 c 0,31,32
 426 386 426 386 404 402 c 1,22,-1
291 441 m 0,33,34
 220 441 220 441 176 388 c 0,35,36
 133 335 133 335 133 249 c 0,37,38
 133 177 133 177 180 97 c 1,39,-1
 345 434 l 1,40,41
 311 441 311 441 291 441 c 0,33,34
EndSplineSet
Validated: 1
EndChar

StartChar: ugrave
Encoding: 249 249 185
Width: 536
GlyphClass: 1
Flags: W
LayerCount: 2
Fore
SplineSet
57 450 m 1,0,-1
 5 502 l 1,1,-1
 150 502 l 1,2,-1
 150 236 l 2,3,4
 150 72 150 72 266 72 c 0,5,6
 346 72 346 72 382 129 c 1,7,-1
 382 502 l 1,8,-1
 528 502 l 1,9,-1
 474 447 l 1,10,-1
 474 0 l 1,11,-1
 392 0 l 1,12,-1
 382 55 l 1,13,14
 335 -10 335 -10 243 -10 c 0,15,16
 57 -10 57 -10 57 210 c 2,17,-1
 57 450 l 1,0,-1
189 750 m 1,18,-1
 381 652 l 1,19,-1
 381 610 l 1,20,-1
 189 676 l 1,21,-1
 189 750 l 1,18,-1
EndSplineSet
Validated: 1
EndChar

StartChar: uacute
Encoding: 250 250 186
Width: 536
GlyphClass: 1
Flags: W
LayerCount: 2
Fore
SplineSet
189 652 m 1,0,-1
 381 750 l 1,1,-1
 381 676 l 1,2,-1
 189 610 l 1,3,-1
 189 652 l 1,0,-1
57 450 m 1,4,-1
 5 502 l 1,5,-1
 150 502 l 1,6,-1
 150 236 l 2,7,8
 150 72 150 72 266 72 c 0,9,10
 346 72 346 72 382 129 c 1,11,-1
 382 502 l 1,12,-1
 528 502 l 1,13,-1
 474 447 l 1,14,-1
 474 0 l 1,15,-1
 392 0 l 1,16,-1
 382 55 l 1,17,18
 335 -10 335 -10 243 -10 c 0,19,20
 57 -10 57 -10 57 210 c 2,21,-1
 57 450 l 1,4,-1
EndSplineSet
Validated: 1
EndChar

StartChar: ucircumflex
Encoding: 251 251 187
Width: 536
GlyphClass: 1
Flags: W
LayerCount: 2
Fore
SplineSet
286 763 m 1,0,-1
 436 654 l 1,1,-1
 436 617 l 1,2,-1
 286 701 l 1,3,-1
 135 617 l 1,4,-1
 135 654 l 1,5,-1
 286 763 l 1,0,-1
57 450 m 1,6,-1
 5 502 l 1,7,-1
 150 502 l 1,8,-1
 150 236 l 2,9,10
 150 72 150 72 266 72 c 0,11,12
 346 72 346 72 382 129 c 1,13,-1
 382 502 l 1,14,-1
 528 502 l 1,15,-1
 474 447 l 1,16,-1
 474 0 l 1,17,-1
 392 0 l 1,18,-1
 382 55 l 1,19,20
 335 -10 335 -10 243 -10 c 0,21,22
 57 -10 57 -10 57 210 c 2,23,-1
 57 450 l 1,6,-1
EndSplineSet
Validated: 1
EndChar

StartChar: udieresis
Encoding: 252 252 188
Width: 536
GlyphClass: 1
Flags: W
LayerCount: 2
Fore
SplineSet
341 717 m 1,0,-1
 413 717 l 1,1,-1
 413 614 l 1,2,-1
 341 614 l 1,3,-1
 341 717 l 1,0,-1
159 717 m 1,4,-1
 230 717 l 1,5,-1
 230 614 l 1,6,-1
 159 614 l 1,7,-1
 159 717 l 1,4,-1
57 450 m 1,8,-1
 5 502 l 1,9,-1
 150 502 l 1,10,-1
 150 236 l 2,11,12
 150 72 150 72 266 72 c 0,13,14
 346 72 346 72 382 129 c 1,15,-1
 382 502 l 1,16,-1
 528 502 l 1,17,-1
 474 447 l 1,18,-1
 474 0 l 1,19,-1
 392 0 l 1,20,-1
 382 55 l 1,21,22
 335 -10 335 -10 243 -10 c 0,23,24
 57 -10 57 -10 57 210 c 2,25,-1
 57 450 l 1,8,-1
EndSplineSet
Validated: 1
EndChar

StartChar: yacute
Encoding: 253 253 189
Width: 517
GlyphClass: 1
Flags: W
LayerCount: 2
Fore
SplineSet
163 652 m 1,0,-1
 354 750 l 1,1,-1
 354 676 l 1,2,-1
 163 610 l 1,3,-1
 163 652 l 1,0,-1
266 129 m 1,4,-1
 408 502 l 1,5,-1
 549 502 l 1,6,-1
 482 435 l 1,7,-1
 203 -248 l 1,8,-1
 100 -248 l 1,9,-1
 216 23 l 1,10,-1
 36 434 l 1,11,-1
 -31 502 l 1,12,-1
 110 502 l 1,13,-1
 266 129 l 1,4,-1
EndSplineSet
Validated: 1
EndChar

StartChar: thorn
Encoding: 254 254 190
Width: 593
GlyphClass: 1
Flags: W
LayerCount: 2
Fore
SplineSet
309 -10 m 0,0,1
 205 -10 205 -10 154 57 c 1,2,-1
 154 -247 l 1,3,-1
 61 -247 l 1,4,-1
 61 768 l 1,5,-1
 154 768 l 1,6,-1
 154 449 l 1,7,8
 217 512 217 512 315 512 c 0,9,10
 426 512 426 512 493 437 c 0,11,12
 561 361 561 361 561 251 c 0,13,14
 561 139 561 139 493 65 c 0,15,16
 426 -10 426 -10 309 -10 c 0,0,1
146 251 m 0,17,18
 146 163 146 163 186 114 c 0,19,20
 225 63 225 63 301 63 c 0,21,22
 379 63 379 63 424 115 c 0,23,24
 468 167 468 167 468 251 c 0,25,26
 468 334 468 334 424 383 c 0,27,28
 380 430 380 430 301 430 c 0,29,30
 223 430 223 430 185 383 c 0,31,32
 146 336 146 336 146 251 c 0,17,18
EndSplineSet
Validated: 1
EndChar

StartChar: ydieresis
Encoding: 255 255 191
Width: 517
GlyphClass: 1
Flags: W
LayerCount: 2
Fore
SplineSet
312 717 m 1,0,-1
 384 717 l 1,1,-1
 384 614 l 1,2,-1
 312 614 l 1,3,-1
 312 717 l 1,0,-1
130 717 m 1,4,-1
 202 717 l 1,5,-1
 202 614 l 1,6,-1
 130 614 l 1,7,-1
 130 717 l 1,4,-1
266 129 m 1,8,-1
 408 502 l 1,9,-1
 549 502 l 1,10,-1
 482 435 l 1,11,-1
 203 -248 l 1,12,-1
 100 -248 l 1,13,-1
 216 23 l 1,14,-1
 36 434 l 1,15,-1
 -31 502 l 1,16,-1
 110 502 l 1,17,-1
 266 129 l 1,8,-1
EndSplineSet
Validated: 1
EndChar

StartChar: OE
Encoding: 338 338 192
Width: 1024
GlyphClass: 1
Flags: W
LayerCount: 2
Fore
SplineSet
649 318 m 1,0,-1
 649 81 l 1,1,-1
 988 81 l 1,2,-1
 988 -1 l 1,3,-1
 558 -1 l 1,4,-1
 558 100 l 1,5,6
 492 -12 492 -12 359 -12 c 0,7,8
 210 -12 210 -12 132 97 c 0,9,10
 65 194 65 194 65 348 c 0,11,12
 65 500 65 500 135 603 c 0,13,14
 207 707 207 707 359 707 c 0,15,16
 492 707 492 707 558 601 c 1,17,-1
 558 695 l 1,18,-1
 973 695 l 1,19,-1
 973 612 l 1,20,-1
 649 612 l 1,21,-1
 649 400 l 1,22,-1
 947 400 l 1,23,-1
 947 318 l 1,24,-1
 649 318 l 1,0,-1
359 632 m 0,25,26
 309 632 309 632 260 601 c 0,27,28
 165 538 165 538 165 341 c 0,29,30
 165 197 165 197 221 129 c 0,31,32
 278 61 278 61 359 61 c 0,33,34
 439 61 439 61 496 129 c 0,35,36
 553 196 553 196 553 353 c 0,37,38
 553 498 553 498 496 564 c 0,39,40
 439 632 439 632 359 632 c 0,25,26
EndSplineSet
Validated: 1
EndChar

StartChar: oe
Encoding: 339 339 193
Width: 966
GlyphClass: 1
Flags: W
LayerCount: 2
Fore
SplineSet
489 97 m 1,0,1
 411 -2 411 -2 291 -2 c 0,2,3
 179 -2 179 -2 110 70 c 128,-1,4
 41 142 41 142 41 269 c 0,5,6
 41 351 41 351 70 420 c 0,7,8
 98 485 98 485 158 520 c 0,9,10
 216 553 216 553 292 553 c 0,11,12
 359 553 359 553 411 525 c 0,13,14
 462 496 462 496 489 452 c 1,15,16
 521 499 521 499 572 526 c 0,17,18
 622 553 622 553 683 553 c 0,19,20
 794 553 794 553 861 477 c 0,21,22
 930 400 930 400 929 252 c 1,23,-1
 537 252 l 1,24,25
 538 169 538 169 583 121 c 128,-1,26
 628 73 628 73 694 73 c 0,27,28
 798 73 798 73 831 183 c 1,29,-1
 922 170 l 1,30,31
 899 86 899 86 841 43 c 0,32,33
 782 -2 782 -2 693 -2 c 0,34,35
 556 -2 556 -2 489 97 c 1,0,1
133 276 m 0,36,37
 133 183 133 183 169 135 c 0,38,39
 216 73 216 73 289 73 c 0,40,41
 353 73 353 73 399 125 c 128,-1,42
 445 177 445 177 445 278 c 0,43,44
 445 374 445 374 401 427 c 0,45,46
 358 479 358 479 289 479 c 0,47,48
 222 482 222 482 177 423 c 0,49,50
 131 366 131 366 133 276 c 0,36,37
540 326 m 1,51,-1
 834 326 l 1,52,53
 828 400 828 400 789 440 c 0,54,55
 748 479 748 479 689 479 c 0,56,57
 628 479 628 479 587 438 c 128,-1,58
 546 397 546 397 540 326 c 1,51,-1
EndSplineSet
Validated: 33
EndChar

StartChar: Scaron
Encoding: 352 352 194
Width: 598
GlyphClass: 1
Flags: W
LayerCount: 2
Fore
SplineSet
54 31 m 1,0,-1
 52 31 l 1,1,-1
 52 168 l 1,2,-1
 94 126 l 1,3,4
 179 74 179 74 289 74 c 0,5,6
 367 74 367 74 413 102 c 0,7,8
 460 131 460 131 460 184 c 0,9,10
 460 238 460 238 417 266 c 0,11,12
 372 295 372 295 274 329 c 2,13,-1
 203 352 l 2,14,15
 117 381 117 381 80 422 c 0,16,17
 41 464 41 464 41 524 c 0,18,19
 41 549 41 549 49 578 c 0,20,21
 58 608 58 608 75 633 c 0,22,23
 92 660 92 660 121 683 c 0,24,25
 151 705 151 705 195 718 c 0,26,27
 240 731 240 731 299 731 c 0,28,29
 356 731 356 731 423 717 c 0,30,31
 484 703 484 703 524 682 c 1,32,-1
 524 545 l 1,33,-1
 469 599 l 1,34,35
 370 643 370 643 308 643 c 0,36,37
 242 643 242 643 195 616 c 0,38,39
 147 589 147 589 147 538 c 0,40,41
 147 496 147 496 183 470 c 0,42,43
 216 446 216 446 302 418 c 0,44,45
 467 370 467 370 524 307 c 0,46,47
 546 286 546 286 555 257 c 0,48,49
 563 228 563 228 566 185 c 0,50,51
 566 -11 566 -11 287 -14 c 0,52,53
 138 -14 138 -14 54 31 c 1,0,-1
299 802 m 1,54,-1
 450 880 l 1,55,-1
 450 838 l 1,56,-1
 299 736 l 1,57,-1
 148 838 l 1,58,-1
 148 880 l 1,59,-1
 299 802 l 1,54,-1
EndSplineSet
Validated: 1
EndChar

StartChar: scaron
Encoding: 353 353 195
Width: 423
GlyphClass: 1
Flags: W
LayerCount: 2
Fore
SplineSet
33 34 m 1,0,-1
 33 171 l 1,1,-1
 121 83 l 1,2,3
 162 72 162 72 201 72 c 0,4,5
 301 72 301 72 301 134 c 0,6,7
 301 192 301 192 201 217 c 0,8,9
 153 228 153 228 124 241 c 0,10,11
 93 253 93 253 70 284 c 0,12,13
 44 316 44 316 43 361 c 0,14,15
 43 429 43 429 91 471 c 0,16,17
 140 512 140 512 231 512 c 0,18,19
 300 512 300 512 368 479 c 1,20,-1
 368 342 l 1,21,-1
 274 435 l 1,22,23
 259 439 259 439 233 439 c 0,24,25
 136 439 136 439 136 372 c 0,26,27
 136 339 136 339 158 326 c 0,28,29
 180 311 180 311 253 289 c 0,30,31
 396 248 396 248 396 139 c 0,32,33
 396 77 396 77 353 34 c 0,34,35
 309 -10 309 -10 205 -10 c 0,36,37
 95 -10 95 -10 33 34 c 1,0,-1
204 680 m 1,38,-1
 354 758 l 1,39,-1
 354 716 l 1,40,-1
 204 614 l 1,41,-1
 53 716 l 1,42,-1
 53 758 l 1,43,-1
 204 680 l 1,38,-1
EndSplineSet
Validated: 1
EndChar

StartChar: Ydieresis
Encoding: 376 376 196
Width: 580
GlyphClass: 1
Flags: W
LayerCount: 2
Fore
SplineSet
341 53 m 1,0,-1
 394 0 l 1,1,-1
 185 0 l 1,2,-1
 240 54 l 1,3,-1
 240 331 l 1,4,-1
 -3 717 l 1,5,-1
 99 717 l 1,6,-1
 290 419 l 1,7,-1
 480 717 l 1,8,-1
 583 717 l 1,9,-1
 341 331 l 1,10,-1
 341 53 l 1,0,-1
358 870 m 1,11,-1
 430 870 l 1,12,-1
 430 767 l 1,13,-1
 358 767 l 1,14,-1
 358 870 l 1,11,-1
176 870 m 1,15,-1
 248 870 l 1,16,-1
 248 767 l 1,17,-1
 176 767 l 1,18,-1
 176 870 l 1,15,-1
EndSplineSet
Validated: 1
EndChar

StartChar: Zcaron
Encoding: 381 381 197
Width: 562
GlyphClass: 1
Flags: W
LayerCount: 2
Fore
SplineSet
55 580 m 1,0,-1
 55 717 l 1,1,-1
 555 717 l 1,2,-1
 169 88 l 1,3,-1
 460 88 l 1,4,-1
 509 137 l 1,5,-1
 509 0 l 1,6,-1
 9 0 l 1,7,-1
 394 629 l 1,8,-1
 104 629 l 1,9,-1
 55 580 l 1,0,-1
290 802 m 1,10,-1
 440 880 l 1,11,-1
 440 838 l 1,12,-1
 290 736 l 1,13,-1
 139 838 l 1,14,-1
 139 880 l 1,15,-1
 290 802 l 1,10,-1
EndSplineSet
Validated: 1
EndChar

StartChar: zcaron
Encoding: 382 382 198
Width: 482
GlyphClass: 1
Flags: W
LayerCount: 2
Fore
SplineSet
33 367 m 1,0,-1
 33 502 l 1,1,-1
 457 502 l 1,2,-1
 189 72 l 1,3,-1
 390 72 l 1,4,-1
 452 133 l 1,5,-1
 452 0 l 1,6,-1
 23 0 l 1,7,-1
 290 430 l 1,8,-1
 96 430 l 1,9,-1
 33 367 l 1,0,-1
243 680 m 1,10,-1
 393 758 l 1,11,-1
 393 716 l 1,12,-1
 243 614 l 1,13,-1
 92 716 l 1,14,-1
 92 758 l 1,15,-1
 243 680 l 1,10,-1
EndSplineSet
Validated: 1
EndChar

StartChar: florin
Encoding: 402 402 199
Width: 569
GlyphClass: 1
Flags: W
LayerCount: 2
Fore
SplineSet
28 -153 m 1,0,-1
 46 -83 l 1,1,2
 90 -93 90 -93 120 -93 c 0,3,4
 148 -93 148 -93 161 -80 c 0,5,6
 174 -66 174 -66 182 -26 c 2,7,-1
 269 440 l 1,8,-1
 171 440 l 1,9,-1
 182 503 l 1,10,-1
 281 503 l 1,11,-1
 293 561 l 2,12,13
 304 616 304 616 314 636 c 0,14,15
 346 695 346 695 432 695 c 0,16,17
 468 695 468 695 538 678 c 1,18,-1
 520 609 l 1,19,20
 462 621 462 621 444 621 c 0,21,22
 415 621 415 621 403 608 c 0,23,24
 390 595 390 595 381 549 c 2,25,-1
 371 503 l 1,26,-1
 471 503 l 1,27,-1
 460 440 l 1,28,-1
 358 440 l 1,29,-1
 265 -48 l 2,30,31
 253 -112 253 -112 224 -138 c 128,-1,32
 195 -164 195 -164 138 -164 c 0,33,34
 99 -164 99 -164 28 -153 c 1,0,-1
EndSplineSet
Validated: 1
EndChar

StartChar: MODIFIERLETTERSMALLR
Encoding: 691 691 200
Width: 340
GlyphClass: 1
Flags: W
LayerCount: 2
Fore
SplineSet
108 311 m 1,0,-1
 55 311 l 1,1,-1
 72 329 l 1,2,-1
 90 346 l 1,3,-1
 90 509 l 1,4,-1
 90 672 l 1,5,-1
 117 672 l 1,6,-1
 144 672 l 1,7,-1
 148 642 l 1,8,-1
 152 612 l 1,9,10
 186 651 186 651 213 668 c 0,11,12
 242 685 242 685 274 685 c 2,13,-1
 277 685 l 1,14,-1
 280 685 l 1,15,-1
 273 649 l 1,16,-1
 265 612 l 1,17,-1
 254 612 l 1,18,-1
 243 612 l 2,19,20
 221 612 221 612 195 598 c 0,21,22
 169 583 169 583 160 566 c 1,23,-1
 160 439 l 1,24,-1
 160 311 l 1,25,-1
 108 311 l 1,0,-1
EndSplineSet
Validated: 1
EndChar

StartChar: circumflex
Encoding: 710 710 201
Width: 340
GlyphClass: 1
Flags: W
LayerCount: 2
Fore
SplineSet
329 554 m 1,0,-1
 227 554 l 1,1,-1
 172 639 l 1,2,-1
 116 554 l 1,3,-1
 12 554 l 1,4,-1
 121 694 l 1,5,-1
 216 694 l 1,6,-1
 329 554 l 1,0,-1
EndSplineSet
Validated: 1
EndChar

StartChar: tilde
Encoding: 732 732 202
Width: 340
GlyphClass: 1
Flags: W
LayerCount: 2
Fore
SplineSet
70 579 m 1,0,-1
 3 579 l 1,1,2
 3 630 3 630 32 662 c 0,3,4
 59 693 59 693 105 693 c 0,5,6
 135 693 135 693 189 666 c 0,7,8
 220 651 220 651 237 651 c 256,9,10
 254 651 254 651 262 660 c 0,11,12
 268 668 268 668 273 694 c 1,13,-1
 338 694 l 1,14,15
 336 638 336 638 311 610 c 0,16,17
 284 581 284 581 240 581 c 0,18,19
 210 581 210 581 157 608 c 0,20,21
 123 627 123 627 108 627 c 0,22,23
 91 627 91 627 81 614 c 0,24,25
 70 600 70 600 70 579 c 1,0,-1
EndSplineSet
Validated: 1
EndChar

StartChar: MODIFIERLETTERSMALLE
Encoding: 7497 7497 203
Width: 340
GlyphClass: 1
Flags: W
LayerCount: 2
Fore
SplineSet
198 469 m 1,0,-1
 83 469 l 1,1,2
 87 413 87 413 118 384 c 0,3,4
 147 356 147 356 202 356 c 0,5,6
 214 356 214 356 219 357 c 2,7,-1
 236 357 l 1,8,-1
 266 388 l 1,9,-1
 296 418 l 1,10,-1
 296 390 l 1,11,-1
 296 363 l 1,12,-1
 299 345 l 1,13,-1
 302 328 l 1,14,15
 275 317 275 317 247 310 c 0,16,17
 220 304 220 304 195 304 c 0,18,19
 116 304 116 304 69 352 c 0,20,21
 23 398 23 398 23 472 c 0,22,23
 23 542 23 542 65 588 c 0,24,25
 109 635 109 635 179 635 c 0,26,27
 240 635 240 635 278 599 c 256,28,29
 316 563 316 563 316 500 c 2,30,-1
 316 483 l 2,31,32
 316 481 316 481 315.5 476 c 128,-1,33
 315 471 315 471 314 469 c 2,34,-1
 198 469 l 1,0,-1
88 510 m 1,35,-1
 172 510 l 1,36,-1
 256 510 l 1,37,38
 256 544 256 544 236 564 c 0,39,40
 217 583 217 583 178 583 c 0,41,42
 142 583 142 583 120 565 c 0,43,44
 97 545 97 545 88 510 c 1,35,-1
EndSplineSet
Validated: 1
EndChar

StartChar: endash
Encoding: 8211 8211 204
Width: 565
GlyphClass: 1
Flags: W
LayerCount: 2
Fore
SplineSet
567 301 m 1,0,-1
 567 229 l 1,1,-1
 -2 229 l 1,2,-1
 -2 301 l 1,3,-1
 567 301 l 1,0,-1
EndSplineSet
Validated: 1
EndChar

StartChar: emdash
Encoding: 8212 8212 205
Width: 1024
GlyphClass: 1
Flags: W
LayerCount: 2
Fore
SplineSet
1024 301 m 1,0,-1
 1024 229 l 1,1,-1
 0 229 l 1,2,-1
 0 301 l 1,3,-1
 1024 301 l 1,0,-1
EndSplineSet
Validated: 1
EndChar

StartChar: quoteleft
Encoding: 8216 8216 207
Width: 190
GlyphClass: 1
Flags: W
LayerCount: 2
Fore
SplineSet
146 568 m 1,0,-1
 44 568 l 1,1,-1
 44 656 l 1,2,-1
 124 768 l 1,3,-1
 147 755 l 1,4,-1
 112 666 l 1,5,-1
 146 656 l 1,6,-1
 146 568 l 1,0,-1
EndSplineSet
Validated: 1
EndChar

StartChar: quoteright
Encoding: 8217 8217 208
Width: 173
GlyphClass: 1
Flags: W
LayerCount: 2
Fore
SplineSet
44 768 m 1,0,-1
 146 768 l 1,1,-1
 146 680 l 1,2,-1
 67 568 l 1,3,-1
 43 582 l 1,4,-1
 79 671 l 1,5,-1
 44 680 l 1,6,-1
 44 768 l 1,0,-1
EndSplineSet
Validated: 1
EndChar

StartChar: quotesinglbase
Encoding: 8218 8218 209
Width: 186
GlyphClass: 1
Flags: W
LayerCount: 2
Fore
SplineSet
90 0 m 1,0,-1
 43 0 l 1,1,-1
 43 104 l 1,2,-1
 140 104 l 1,3,-1
 140 22 l 2,4,5
 140 -46 140 -46 125 -75 c 0,6,7
 104 -115 104 -115 57 -135 c 1,8,-1
 36 -100 l 1,9,10
 89 -77 89 -77 90 0 c 1,0,-1
EndSplineSet
Validated: 1
EndChar

StartChar: quotedblleft
Encoding: 8220 8220 210
Width: 405
GlyphClass: 1
Flags: W
LayerCount: 2
Fore
SplineSet
146 568 m 1,0,-1
 44 568 l 1,1,-1
 44 656 l 1,2,-1
 124 768 l 1,3,-1
 147 755 l 1,4,-1
 112 666 l 1,5,-1
 146 656 l 1,6,-1
 146 568 l 1,0,-1
361 568 m 1,7,-1
 259 568 l 1,8,-1
 259 656 l 1,9,-1
 339 768 l 1,10,-1
 362 755 l 1,11,-1
 327 666 l 1,12,-1
 361 656 l 1,13,-1
 361 568 l 1,7,-1
EndSplineSet
Validated: 1
EndChar

StartChar: quotedblright
Encoding: 8221 8221 211
Width: 388
GlyphClass: 1
Flags: W
LayerCount: 2
Fore
SplineSet
259 768 m 1,0,-1
 361 768 l 1,1,-1
 361 680 l 1,2,-1
 282 568 l 1,3,-1
 258 582 l 1,4,-1
 294 671 l 1,5,-1
 259 680 l 1,6,-1
 259 768 l 1,0,-1
44 768 m 1,7,-1
 146 768 l 1,8,-1
 146 680 l 1,9,-1
 67 568 l 1,10,-1
 43 582 l 1,11,-1
 79 671 l 1,12,-1
 44 680 l 1,13,-1
 44 768 l 1,7,-1
EndSplineSet
Validated: 1
EndChar

StartChar: quotedblbase
Encoding: 8222 8222 212
Width: 340
GlyphClass: 1
Flags: W
LayerCount: 2
Fore
SplineSet
90 0 m 1,0,-1
 43 0 l 1,1,-1
 43 104 l 1,2,-1
 140 104 l 1,3,-1
 140 22 l 2,4,5
 140 -46 140 -46 125 -75 c 0,6,7
 104 -115 104 -115 57 -135 c 1,8,-1
 36 -100 l 1,9,10
 89 -77 89 -77 90 0 c 1,0,-1
246 0 m 1,11,-1
 199 0 l 1,12,-1
 199 104 l 1,13,-1
 295 104 l 1,14,-1
 295 22 l 2,15,16
 295 -46 295 -46 280 -75 c 0,17,18
 259 -116 259 -116 213 -135 c 1,19,-1
 190 -100 l 1,20,21
 242 -78 242 -78 246 0 c 1,11,-1
EndSplineSet
Validated: 1
EndChar

StartChar: dagger
Encoding: 8224 8224 213
Width: 569
GlyphClass: 1
Flags: W
LayerCount: 2
Fore
SplineSet
324 425 m 1,0,-1
 324 -152 l 1,1,-1
 238 -152 l 1,2,-1
 238 425 l 1,3,-1
 49 425 l 1,4,-1
 49 502 l 1,5,-1
 238 502 l 1,6,-1
 238 694 l 1,7,-1
 324 694 l 1,8,-1
 324 502 l 1,9,-1
 515 502 l 1,10,-1
 515 425 l 1,11,-1
 324 425 l 1,0,-1
EndSplineSet
Validated: 1
EndChar

StartChar: daggerdbl
Encoding: 8225 8225 214
Width: 569
GlyphClass: 1
Flags: W
LayerCount: 2
Fore
SplineSet
328 12 m 1,0,-1
 328 -142 l 1,1,-1
 238 -142 l 1,2,-1
 238 12 l 1,3,-1
 37 12 l 1,4,-1
 37 92 l 1,5,-1
 238 92 l 1,6,-1
 238 455 l 1,7,-1
 37 455 l 1,8,-1
 37 536 l 1,9,-1
 238 536 l 1,10,-1
 238 693 l 1,11,-1
 328 693 l 1,12,-1
 328 536 l 1,13,-1
 529 536 l 1,14,-1
 529 455 l 1,15,-1
 328 455 l 1,16,-1
 328 92 l 1,17,-1
 529 92 l 1,18,-1
 529 12 l 1,19,-1
 328 12 l 1,0,-1
EndSplineSet
Validated: 1
EndChar

StartChar: bullet
Encoding: 8226 8226 215
Width: 359
GlyphClass: 1
Flags: W
LayerCount: 2
Fore
SplineSet
91 269 m 128,-1,1
 54 306 54 306 54 359 c 128,-1,2
 54 412 54 412 91 449 c 0,3,4
 128 485 128 485 181 485 c 256,5,6
 234 485 234 485 270 449 c 0,7,8
 308 411 308 411 308 359 c 128,-1,9
 308 307 308 307 270 269 c 0,10,11
 233 232 233 232 181 232 c 0,12,0
 128 232 128 232 91 269 c 128,-1,1
EndSplineSet
Validated: 1
EndChar

StartChar: ellipsis
Encoding: 8230 8230 216
Width: 1025
GlyphClass: 1
Flags: W
LayerCount: 2
Fore
SplineSet
222 102 m 1,0,-1
 222 0 l 1,1,-1
 120 0 l 1,2,-1
 120 102 l 1,3,-1
 222 102 l 1,0,-1
563 102 m 1,4,-1
 563 0 l 1,5,-1
 461 0 l 1,6,-1
 461 102 l 1,7,-1
 563 102 l 1,4,-1
905 102 m 1,8,-1
 905 0 l 1,9,-1
 802 0 l 1,10,-1
 802 102 l 1,11,-1
 905 102 l 1,8,-1
EndSplineSet
Validated: 1
EndChar

StartChar: perthousand
Encoding: 8240 8240 217
Width: 1024
GlyphClass: 1
Flags: W
LayerCount: 2
Fore
SplineSet
527 723 m 1,0,-1
 226 0 l 1,1,-1
 160 0 l 1,2,-1
 461 723 l 1,3,-1
 527 723 l 1,0,-1
18 540 m 0,4,5
 18 630 18 630 57 674 c 0,6,7
 94 717 94 717 162 717 c 0,8,9
 228 717 228 717 267 673 c 0,10,11
 305 629 305 629 305 542 c 0,12,13
 305 356 305 356 163 356 c 0,14,15
 96 356 96 356 57 402 c 256,16,17
 18 448 18 448 18 540 c 0,4,5
92 536 m 0,18,19
 92 468 92 468 111 442 c 0,20,21
 129 415 129 415 165 415 c 0,22,23
 194 415 194 415 210 436 c 0,24,25
 231 463 231 463 231 537 c 0,26,27
 231 610 231 610 210 638 c 0,28,29
 194 659 194 659 163 659 c 256,30,31
 132 659 132 659 115 638 c 0,32,33
 92 609 92 609 92 536 c 0,18,19
382 182 m 0,34,35
 382 272 382 272 420 316 c 128,-1,36
 458 360 458 360 525 360 c 128,-1,37
 592 360 592 360 631 316 c 256,38,39
 670 272 670 272 670 184 c 0,40,41
 670 0 670 0 526 0 c 0,42,43
 458 0 458 0 421 45 c 0,44,45
 382 88 382 88 382 182 c 0,34,35
456 178 m 0,46,47
 456 111 456 111 474 84 c 128,-1,48
 492 57 492 57 528 57 c 0,49,50
 558 57 558 57 574 79 c 0,51,52
 596 108 596 108 596 179 c 0,53,54
 596 251 596 251 573 280 c 0,55,56
 557 302 557 302 526 302 c 0,57,58
 494 302 494 302 478 281 c 0,59,60
 456 253 456 253 456 178 c 0,46,47
720 182 m 0,61,62
 720 272 720 272 758 316 c 128,-1,63
 796 360 796 360 862 360 c 0,64,65
 929 360 929 360 968 316 c 256,66,67
 1007 272 1007 272 1007 184 c 0,68,69
 1007 0 1007 0 863 0 c 0,70,71
 796 0 796 0 758 45 c 0,72,73
 720 91 720 91 720 182 c 0,61,62
794 178 m 0,74,75
 794 111 794 111 812 84 c 128,-1,76
 830 57 830 57 865 57 c 0,77,78
 895 57 895 57 911 79 c 0,79,80
 933 108 933 108 933 179 c 0,81,82
 933 251 933 251 910 280 c 0,83,84
 894 302 894 302 863 302 c 128,-1,85
 832 302 832 302 816 281 c 0,86,87
 794 253 794 253 794 178 c 0,74,75
EndSplineSet
Validated: 1
EndChar

StartChar: guilsinglleft
Encoding: 8249 8249 218
Width: 340
GlyphClass: 1
Flags: W
LayerCount: 2
Fore
SplineSet
204 492 m 1,0,-1
 278 492 l 1,1,-1
 145 263 l 1,2,-1
 278 36 l 1,3,-1
 204 36 l 1,4,-1
 46 263 l 1,5,-1
 204 492 l 1,0,-1
EndSplineSet
Validated: 1
EndChar

StartChar: guilsinglright
Encoding: 8250 8250 219
Width: 340
GlyphClass: 1
Flags: W
LayerCount: 2
Fore
SplineSet
121 36 m 1,0,-1
 46 36 l 1,1,-1
 178 265 l 1,2,-1
 46 492 l 1,3,-1
 121 492 l 1,4,-1
 272 268 l 1,5,-1
 121 36 l 1,0,-1
EndSplineSet
Validated: 1
EndChar

StartChar: SUPERSCRIPTFOUR
Encoding: 8308 8308 220
Width: 340
GlyphClass: 1
Flags: W
LayerCount: 2
Fore
SplineSet
273 469 m 1,0,-1
 323 469 l 1,1,-1
 323 410 l 1,2,-1
 273 410 l 1,3,-1
 273 305 l 1,4,-1
 197 305 l 1,5,-1
 197 410 l 1,6,-1
 18 410 l 1,7,-1
 210 692 l 1,8,-1
 273 692 l 1,9,-1
 273 469 l 1,0,-1
197 582 m 1,10,-1
 122 469 l 1,11,-1
 197 469 l 1,12,-1
 197 582 l 1,10,-1
EndSplineSet
Validated: 1
EndChar

StartChar: Euro
Encoding: 8364 8364 221
Width: 737
GlyphClass: 1
Flags: W
LayerCount: 2
Fore
SplineSet
522 -14 m 0,0,1
 405 -14 405 -14 317 45 c 0,2,3
 229 103 229 103 189 206 c 2,4,-1
 183 220 l 1,5,-1
 34 220 l 1,6,-1
 58 291 l 1,7,-1
 167 291 l 1,8,9
 163 316 163 316 163 358 c 2,10,-1
 163 378 l 1,11,-1
 65 378 l 1,12,-1
 87 449 l 1,13,-1
 171 449 l 1,14,15
 179 483 179 483 189 510 c 0,16,17
 228 614 228 614 316 672 c 0,18,19
 405 731 405 731 521 731 c 0,20,21
 632 731 632 731 720 689 c 1,22,-1
 711 608 l 1,23,-1
 711 536 l 1,24,-1
 614 632 l 1,25,26
 565 643 565 643 521 643 c 0,27,28
 433 643 433 643 373 598 c 0,29,30
 313 552 313 552 286 472 c 1,31,-1
 280 449 l 1,32,-1
 549 449 l 1,33,-1
 524 378 l 1,34,-1
 269 378 l 1,35,-1
 269 358 l 2,36,37
 269 333 269 333 274 291 c 1,38,-1
 528 291 l 1,39,-1
 504 220 l 1,40,-1
 295 220 l 1,41,42
 309 187 309 187 334 155 c 0,43,44
 404 74 404 74 523 74 c 0,45,46
 555 74 555 74 583 79 c 2,47,-1
 608 84 l 2,48,49
 613 84 613 84 615 85 c 2,50,-1
 711 180 l 1,51,-1
 711 108 l 1,52,-1
 720 27 l 1,53,54
 633 -14 633 -14 522 -14 c 0,0,1
EndSplineSet
Validated: 1
EndChar

StartChar: NUMEROSIGN
Encoding: 8470 8470 222
Width: 960
GlyphClass: 1
Flags: W
LayerCount: 2
Fore
SplineSet
648 -8 m 2,0,1
 628 -5 628 -5 605 6 c 0,2,3
 583 17 583 17 567 36 c 0,4,5
 536 74 536 74 523 120 c 0,6,7
 508 170 508 170 507 217 c 2,8,-1
 507 280 l 2,9,10
 508 333 508 333 525 383 c 0,11,12
 542 431 542 431 576 470 c 0,13,14
 596 491 596 491 624 502 c 0,15,16
 644 509 644 509 667 509 c 0,17,18
 676 509 676 509 681 508 c 0,19,20
 702 504 702 504 723 493 c 0,21,22
 742 482 742 482 758 467 c 0,23,24
 791 427 791 427 806 378 c 0,25,26
 821 328 821 328 824 277 c 2,27,-1
 824 221 l 2,28,29
 821 170 821 170 806 117 c 0,30,31
 789 64 789 64 754 26 c 0,32,33
 732 6 732 6 705 -2 c 0,34,35
 684 -8 684 -8 660 -8 c 2,36,-1
 648 -8 l 2,0,1
138 1 m 1,37,-1
 36 1 l 1,38,-1
 36 2 l 1,39,-1
 76 68 l 1,40,-1
 76 712 l 1,41,-1
 143 712 l 1,42,-1
 368 184 l 1,43,-1
 369 185 l 1,44,-1
 369 712 l 1,45,-1
 433 712 l 1,46,-1
 433 73 l 1,47,-1
 480 1 l 1,48,-1
 380 1 l 1,49,-1
 139 559 l 1,50,-1
 138 558 l 1,51,-1
 138 1 l 1,37,-1
944 1 m 1,52,-1
 883 1 l 1,53,-1
 883 86 l 1,54,-1
 944 86 l 1,55,-1
 944 1 l 1,52,-1
677 71 m 1,56,-1
 702 81 l 2,57,58
 716 88 716 88 726 102 c 0,59,60
 738 118 738 118 745 130 c 0,61,62
 757 158 757 158 762 197 c 0,63,64
 766 232 766 232 765 266 c 0,65,66
 763 306 763 306 755 341 c 0,67,68
 744 377 744 377 719 407 c 0,69,70
 707 418 707 418 688 423 c 0,71,72
 673 427 673 427 653 425 c 0,73,74
 640 424 640 424 627 417 c 0,75,76
 615 410 615 410 605 398 c 0,77,78
 583 368 583 368 576 339 c 0,79,80
 568 310 568 310 566 274 c 2,81,-1
 566 226 l 2,82,83
 568 184 568 184 577 153 c 0,84,85
 588 118 588 118 614 90 c 0,86,87
 628 79 628 79 643 75 c 0,88,89
 661 70 661 70 677 71 c 1,56,-1
EndSplineSet
Validated: 33
EndChar

StartChar: trademark
Encoding: 8482 8482 223
Width: 1022
GlyphClass: 1
Flags: W
LayerCount: 2
Fore
SplineSet
304 640 m 1,0,-1
 304 326 l 1,1,-1
 243 326 l 1,2,-1
 243 640 l 1,3,-1
 123 640 l 1,4,-1
 123 694 l 1,5,-1
 424 694 l 1,6,-1
 424 640 l 1,7,-1
 304 640 l 1,0,-1
522 640 m 1,8,-1
 522 326 l 1,9,-1
 465 326 l 1,10,-1
 465 694 l 1,11,-1
 556 694 l 1,12,-1
 649 399 l 1,13,-1
 739 694 l 1,14,-1
 828 694 l 1,15,-1
 828 326 l 1,16,-1
 772 326 l 1,17,-1
 772 635 l 1,18,-1
 677 326 l 1,19,-1
 621 326 l 1,20,-1
 522 640 l 1,8,-1
EndSplineSet
Validated: 1
EndChar

StartChar: CIRCLEDDIGITONE
Encoding: 9312 9312 224
Width: 980
GlyphClass: 1
Flags: W
LayerCount: 2
Fore
SplineSet
488 374 m 1,0,-1
 410 374 l 1,1,-1
 448 472 l 1,2,-1
 488 570 l 1,3,-1
 526 472 l 1,4,-1
 566 374 l 1,5,-1
 488 374 l 1,0,-1
309 839 m 0,6,7
 394 875 394 875 490 875 c 128,-1,8
 586 875 586 875 671 839 c 0,9,10
 758 801 758 801 821 738 c 0,11,12
 886 673 886 673 922 588 c 0,13,14
 958 502 958 502 958 407 c 256,15,16
 958 312 958 312 922 227 c 256,17,18
 886 142 886 142 821 77 c 128,-1,19
 756 12 756 12 671 -24 c 0,20,21
 587 -61 587 -61 490 -61 c 128,-1,22
 393 -61 393 -61 309 -24 c 0,23,24
 224 12 224 12 159 77 c 128,-1,25
 94 142 94 142 58 227 c 256,26,27
 22 312 22 312 22 407 c 256,28,29
 22 502 22 502 58 588 c 0,30,31
 94 673 94 673 159 738 c 0,32,33
 222 801 222 801 309 839 c 0,6,7
620 243 m 1,34,-1
 644 184 l 1,35,-1
 690 184 l 1,36,-1
 734 184 l 1,37,-1
 630 429 l 1,38,-1
 524 674 l 1,39,-1
 490 674 l 1,40,-1
 454 674 l 1,41,-1
 348 429 l 1,42,-1
 242 184 l 1,43,-1
 288 184 l 1,44,-1
 332 184 l 1,45,-1
 356 243 l 1,46,-1
 380 301 l 1,47,-1
 488 301 l 1,48,-1
 596 301 l 1,49,-1
 620 243 l 1,34,-1
EndSplineSet
Validated: 1
EndChar

StartChar: CIRCLEDDIGITTWO
Encoding: 9313 9313 225
Width: 980
GlyphClass: 1
Flags: W
LayerCount: 2
Fore
SplineSet
578 516 m 0,0,1
 578 485 578 485 555 468 c 0,2,3
 532 450 532 450 492 450 c 2,4,-1
 412 450 l 1,5,-1
 412 580 l 1,6,-1
 482 580 l 2,7,8
 578 580 578 580 578 516 c 0,0,1
412 378 m 1,9,-1
 494 378 l 2,10,11
 548 378 548 378 574 361 c 0,12,13
 600 343 600 343 600 306 c 0,14,15
 600 284 600 284 589 267 c 0,16,17
 579 252 579 252 559 244 c 0,18,19
 541 237 541 237 524 234 c 0,20,21
 508 231 508 231 488 231 c 2,22,-1
 412 231 l 1,23,-1
 412 378 l 1,9,-1
309 839 m 0,24,25
 394 875 394 875 490 875 c 128,-1,26
 586 875 586 875 671 839 c 0,27,28
 758 801 758 801 821 738 c 0,29,30
 886 673 886 673 922 588 c 0,31,32
 958 502 958 502 958 407 c 256,33,34
 958 312 958 312 922 227 c 256,35,36
 886 142 886 142 821 77 c 128,-1,37
 756 12 756 12 671 -24 c 0,38,39
 587 -61 587 -61 490 -61 c 128,-1,40
 393 -61 393 -61 309 -24 c 0,41,42
 224 12 224 12 159 77 c 128,-1,43
 94 142 94 142 58 227 c 256,44,45
 22 312 22 312 22 407 c 256,46,47
 22 502 22 502 58 588 c 0,48,49
 94 673 94 673 159 738 c 0,50,51
 222 801 222 801 309 839 c 0,24,25
414 160 m 1,52,-1
 496 160 l 2,53,54
 582 160 582 160 632 198 c 128,-1,55
 682 236 682 236 682 302 c 0,56,57
 682 346 682 346 658 378 c 0,58,59
 634 409 634 409 594 421 c 1,60,61
 624 436 624 436 642 463 c 0,62,63
 660 488 660 488 660 523 c 0,64,65
 660 600 660 600 594 631 c 0,66,67
 559 649 559 649 502 651 c 2,68,-1
 416 651 l 1,69,-1
 332 651 l 1,70,-1
 332 405 l 1,71,-1
 332 160 l 1,72,-1
 414 160 l 1,52,-1
EndSplineSet
Validated: 1
EndChar

StartChar: CIRCLEDDIGITTHREE
Encoding: 9314 9314 226
Width: 980
GlyphClass: 1
Flags: W
LayerCount: 2
Fore
SplineSet
363 709 m 0,0,1
 424 735 424 735 490 735 c 128,-1,2
 556 735 556 735 617 709 c 0,3,4
 676 683 676 683 722 639 c 0,5,6
 769 591 769 591 792 534 c 0,7,8
 818 473 818 473 818 407 c 0,9,10
 818 342 818 342 792 281 c 0,11,12
 769 223 769 223 722 176 c 0,13,14
 675 130 675 130 617 105 c 0,15,16
 558 80 558 80 490 80 c 128,-1,17
 422 80 422 80 363 105 c 0,18,19
 305 130 305 130 258 176 c 0,20,21
 211 223 211 223 188 281 c 0,22,23
 162 342 162 342 162 407 c 0,24,25
 162 473 162 473 188 534 c 0,26,27
 211 591 211 591 258 639 c 0,28,29
 304 683 304 683 363 709 c 0,0,1
532 304 m 1,30,-1
 577 236 l 1,31,-1
 612 236 l 1,32,-1
 648 236 l 1,33,-1
 585 326 l 1,34,-1
 524 416 l 1,35,-1
 578 498 l 1,36,-1
 633 579 l 1,37,-1
 599 579 l 1,38,-1
 566 579 l 1,39,-1
 528 519 l 1,40,-1
 490 459 l 1,41,-1
 452 519 l 1,42,-1
 413 579 l 1,43,-1
 378 579 l 1,44,-1
 344 579 l 1,45,-1
 399 498 l 1,46,-1
 455 417 l 1,47,-1
 393 327 l 1,48,-1
 332 236 l 1,49,-1
 367 236 l 1,50,-1
 402 236 l 1,51,-1
 445 304 l 1,52,-1
 489 372 l 1,53,-1
 532 304 l 1,30,-1
EndSplineSet
Validated: 1
EndChar

StartChar: CIRCLEDDIGITFOUR
Encoding: 9315 9315 227
Width: 980
GlyphClass: 1
Flags: W
LayerCount: 2
Fore
SplineSet
363 709 m 0,0,1
 424 735 424 735 490 735 c 128,-1,2
 556 735 556 735 617 709 c 0,3,4
 677 683 677 683 722 638 c 0,5,6
 768 592 768 592 793 533 c 0,7,8
 818 472 818 472 818 407 c 128,-1,9
 818 342 818 342 793 281 c 0,10,11
 768 222 768 222 722 176 c 0,12,13
 677 131 677 131 617 105 c 0,14,15
 556 79 556 79 490 79 c 128,-1,16
 424 79 424 79 363 105 c 0,17,18
 303 131 303 131 258 176 c 0,19,20
 212 222 212 222 187 281 c 0,21,22
 162 342 162 342 162 407 c 128,-1,23
 162 472 162 472 187 533 c 0,24,25
 212 592 212 592 258 638 c 0,26,27
 303 683 303 683 363 709 c 0,0,1
521 305 m 1,28,-1
 521 379 l 1,29,-1
 587 478 l 1,30,-1
 651 577 l 1,31,-1
 616 577 l 1,32,-1
 581 577 l 1,33,-1
 536 505 l 1,34,-1
 491 433 l 1,35,-1
 447 505 l 1,36,-1
 403 577 l 1,37,-1
 365 577 l 1,38,-1
 329 577 l 1,39,-1
 395 478 l 1,40,-1
 459 379 l 1,41,-1
 459 305 l 1,42,-1
 459 230 l 1,43,-1
 490 230 l 1,44,-1
 521 230 l 1,45,-1
 521 305 l 1,28,-1
EndSplineSet
Validated: 1
EndChar

StartChar: CIRCLEDDIGITFIVE
Encoding: 9316 9316 228
Width: 980
GlyphClass: 1
Flags: W
LayerCount: 2
Fore
SplineSet
628 823 m 1,0,-1
 962 823 l 1,1,-1
 965 822 l 2,2,3
 966 819 966 819 966 818 c 2,4,-1
 966 407 l 1,5,-1
 966 -4 l 1,6,-1
 965 -7 l 2,7,8
 963 -9 963 -9 962 -9 c 2,9,-1
 490 -9 l 1,10,-1
 18 -9 l 1,11,-1
 15 -7 l 2,12,13
 14 -5 14 -5 14 -4 c 2,14,-1
 14 269 l 1,15,-1
 14 543 l 2,16,17
 14 659 14 659 96 741 c 128,-1,18
 178 823 178 823 294 823 c 2,19,-1
 628 823 l 1,0,-1
502 156 m 1,20,-1
 652 156 l 1,21,-1
 652 194 l 1,22,-1
 652 231 l 1,23,-1
 544 231 l 1,24,-1
 434 231 l 1,25,-1
 434 445 l 1,26,-1
 434 658 l 1,27,-1
 394 658 l 1,28,-1
 352 658 l 1,29,-1
 352 407 l 1,30,-1
 352 156 l 1,31,-1
 502 156 l 1,20,-1
EndSplineSet
Validated: 1
EndChar

StartChar: CIRCLEDDIGITSIX
Encoding: 9317 9317 229
Width: 980
GlyphClass: 1
Flags: W
LayerCount: 2
Fore
SplineSet
544 211 m 1,0,-1
 575 156 l 1,1,-1
 599 156 l 1,2,-1
 624 156 l 1,3,-1
 649 156 l 1,4,-1
 674 156 l 1,5,-1
 640 213 l 1,6,-1
 606 269 l 1,7,-1
 571 326 l 1,8,-1
 537 382 l 1,9,10
 564 388 564 388 585 400 c 128,-1,11
 606 412 606 412 621 430 c 128,-1,12
 636 448 636 448 643 468 c 0,13,14
 651 492 651 492 651 516 c 0,15,16
 651 561 651 561 632 590 c 0,17,18
 616 617 616 617 586 633 c 0,19,20
 559 648 559 648 527 653 c 0,21,22
 499 658 499 658 470 658 c 2,23,-1
 429 658 l 1,24,-1
 388 658 l 1,25,-1
 347 658 l 1,26,-1
 307 658 l 1,27,-1
 307 533 l 1,28,-1
 307 407 l 1,29,-1
 307 282 l 1,30,-1
 307 156 l 1,31,-1
 327 156 l 1,32,-1
 348 156 l 1,33,-1
 369 156 l 1,34,-1
 389 156 l 1,35,-1
 389 211 l 1,36,-1
 389 265 l 1,37,-1
 389 319 l 1,38,-1
 389 373 l 1,39,-1
 405 373 l 1,40,-1
 420 373 l 1,41,-1
 435 373 l 1,42,-1
 451 373 l 1,43,-1
 482 319 l 1,44,-1
 513 265 l 1,45,-1
 544 211 l 1,0,-1
519 823 m 1,46,-1
 686 823 l 2,47,48
 744 823 744 823 795 801 c 0,49,50
 845 780 845 780 884 741 c 0,51,52
 922 703 922 703 945 652 c 0,53,54
 967 601 967 601 967 543 c 2,55,-1
 967 406 l 1,56,-1
 967 269 l 1,57,-1
 967 133 l 1,58,-1
 967 -4 l 1,59,-1
 967 -6 l 1,60,-1
 966 -7 l 1,61,-1
 964 -8 l 1,62,-1
 962 -9 l 1,63,-1
 726 -9 l 1,64,-1
 490 -9 l 1,65,-1
 254 -9 l 1,66,-1
 18 -9 l 1,67,-1
 16 -8 l 1,68,-1
 15 -7 l 1,69,-1
 14 -6 l 1,70,-1
 13 -4 l 1,71,-1
 13 202 l 1,72,-1
 13 407 l 1,73,-1
 13 613 l 1,74,-1
 13 819 l 1,75,-1
 14 821 l 1,76,-1
 15 822 l 1,77,-1
 16 823 l 1,78,-1
 18 823 l 1,79,-1
 185 823 l 1,80,-1
 352 823 l 1,81,-1
 519 823 l 1,46,-1
567 516 m 0,82,83
 567 481 567 481 541 463 c 0,84,85
 514 445 514 445 460 445 c 2,86,-1
 425 445 l 1,87,-1
 389 445 l 1,88,-1
 389 515 l 1,89,-1
 389 586 l 1,90,-1
 427 586 l 1,91,-1
 465 586 l 2,92,93
 508 586 508 586 534 572 c 0,94,95
 567 556 567 556 567 516 c 0,82,83
EndSplineSet
Validated: 1
EndChar

StartChar: CIRCLEDDIGITSEVEN
Encoding: 9318 9318 230
Width: 980
GlyphClass: 1
Flags: W
LayerCount: 2
Fore
SplineSet
722 175 m 0,0,1
 674 129 674 129 615 105 c 0,2,3
 552 79 552 79 490 79 c 128,-1,4
 428 79 428 79 365 105 c 0,5,6
 306 129 306 129 258 175 c 0,7,8
 212 222 212 222 188 282 c 0,9,10
 162 345 162 345 162 407 c 128,-1,11
 162 469 162 469 188 532 c 0,12,13
 212 592 212 592 258 639 c 0,14,15
 306 685 306 685 365 709 c 0,16,17
 428 735 428 735 490 735 c 128,-1,18
 552 735 552 735 615 709 c 0,19,20
 674 685 674 685 722 639 c 0,21,22
 768 592 768 592 792 532 c 0,23,24
 818 469 818 469 818 407 c 128,-1,25
 818 345 818 345 792 282 c 0,26,27
 768 222 768 222 722 175 c 0,0,1
640 301 m 1,28,29
 611 300 611 300 524.5 299 c 128,-1,30
 438 298 438 298 409 298 c 1,31,32
 445 336 445 336 481 372 c 0,33,34
 595 492 595 492 630 530 c 1,35,-1
 630 584 l 1,36,-1
 353 584 l 1,37,-1
 353 530 l 1,38,39
 378 530 378 530 453 531 c 128,-1,40
 528 532 528 532 553 532 c 1,41,42
 508 484 508 484 491 467 c 0,43,44
 453 425 453 425 336 299 c 1,45,-1
 336 245 l 1,46,-1
 640 245 l 1,47,-1
 640 301 l 1,28,29
EndSplineSet
Validated: 1
EndChar

StartChar: CIRCLEDDIGITEIGHT
Encoding: 9319 9319 231
Width: 980
GlyphClass: 1
Flags: W
LayerCount: 2
Fore
SplineSet
821 76 m 128,-1,1
 757 12 757 12 669 -24 c 0,2,3
 580 -61 580 -61 490 -61 c 128,-1,4
 400 -61 400 -61 311 -24 c 0,5,6
 223 12 223 12 159 76 c 128,-1,7
 95 140 95 140 59 228 c 0,8,9
 22 317 22 317 22 407 c 128,-1,10
 22 497 22 497 59 586 c 0,11,12
 95 674 95 674 159 738 c 128,-1,13
 223 802 223 802 311 838 c 0,14,15
 400 875 400 875 490 875 c 128,-1,16
 580 875 580 875 669 838 c 0,17,18
 757 802 757 802 821 738 c 128,-1,19
 885 674 885 674 921 586 c 0,20,21
 958 497 958 497 958 407 c 128,-1,22
 958 317 958 317 921 228 c 0,23,0
 885 140 885 140 821 76 c 128,-1,1
611 177 m 0,24,25
 652 186 652 186 680 209 c 0,26,27
 707 231 707 231 719 270 c 0,28,29
 730 309 730 309 730 370 c 1,30,-1
 642 370 l 1,31,32
 642 328 642 328 636 305 c 128,-1,33
 630 282 630 282 613 269 c 0,34,35
 595 256 595 256 568 251 c 0,36,37
 544 247 544 247 492 247 c 0,38,39
 452 247 452 247 439 248 c 0,40,41
 419 249 419 249 401 257 c 0,42,43
 389 262 389 262 375 275 c 1,44,45
 363 293 363 293 359 306 c 0,46,47
 352 327 352 327 351 352 c 0,48,49
 349 369 349 369 349 418 c 128,-1,50
 349 467 349 467 351 484 c 0,51,52
 351 506 351 506 358 532 c 0,53,54
 362 547 362 547 372 565 c 1,55,56
 386 579 386 579 398 584 c 0,57,58
 417 593 417 593 436 594 c 0,59,60
 457 597 457 597 491 597 c 2,61,-1
 504 597 l 2,62,63
 584 597 584 597 611 576 c 128,-1,64
 638 555 638 555 638 491 c 1,65,-1
 728 491 l 1,66,67
 728 528 728 528 723 560 c 0,68,69
 717 590 717 590 705 609 c 0,70,71
 693 629 693 629 676 642 c 0,72,73
 661 654 661 654 633 662 c 0,74,75
 606 670 606 670 577 671 c 0,76,77
 547 674 547 674 504 674 c 0,78,79
 456 674 456 674 438 673 c 0,80,81
 410 671 410 671 385 667 c 0,82,83
 359 663 359 663 342 655 c 2,84,-1
 311 634 l 2,85,86
 294 620 294 620 287 603 c 0,87,88
 278 583 278 583 272 557 c 0,89,90
 265 527 265 527 264 496 c 0,91,92
 262 474 262 474 262 417 c 0,93,94
 262 373 262 373 266 327 c 0,95,96
 269 289 269 289 279 261 c 0,97,98
 287 233 287 233 304 215 c 0,99,100
 317 200 317 200 345 187 c 0,101,102
 374 176 374 176 405 173 c 0,103,104
 434 169 434 169 490 169 c 2,105,-1
 502 169 l 2,106,107
 566 169 566 169 611 177 c 0,24,25
EndSplineSet
Validated: 1
EndChar

StartChar: CIRCLEDDIGITNINE
Encoding: 9320 9320 232
Width: 980
GlyphClass: 1
Flags: W
LayerCount: 2
Fore
SplineSet
952 562 m 2,0,1
 955 562 955 562 956 561 c 0,2,3
 958 559 958 559 958 557 c 2,4,-1
 958 257 l 2,5,6
 958 256 958 256 956 254 c 128,-1,7
 954 252 954 252 952 252 c 2,8,-1
 644 252 l 1,9,-1
 644 -56 l 1,10,-1
 643 -59 l 2,11,12
 641 -61 641 -61 640 -61 c 2,13,-1
 340 -61 l 1,14,-1
 337 -59 l 2,15,16
 336 -57 336 -57 336 -56 c 2,17,-1
 336 252 l 1,18,-1
 28 252 l 2,19,20
 26 252 26 252 24 254 c 128,-1,21
 22 256 22 256 22 257 c 2,22,-1
 22 557 l 2,23,24
 22 559 22 559 24 561 c 0,25,26
 25 562 25 562 28 562 c 2,27,-1
 336 562 l 1,28,-1
 336 870 l 1,29,-1
 337 874 l 2,30,31
 339 875 339 875 340 875 c 2,32,-1
 640 875 l 1,33,-1
 643 874 l 2,34,35
 644 871 644 871 644 870 c 2,36,-1
 644 562 l 1,37,-1
 952 562 l 2,0,1
575 157 m 2,38,-1
 405 157 l 2,39,40
 403 157 403 157 401 155 c 128,-1,41
 399 153 399 153 401 151 c 2,42,-1
 486 3 l 2,43,44
 488 1 488 1 490 1 c 128,-1,45
 492 1 492 1 494 3 c 2,46,-1
 579 151 l 2,47,48
 581 153 581 153 579 155 c 128,-1,49
 577 157 577 157 575 157 c 2,38,-1
740 492 m 2,50,-1
 740 322 l 2,51,52
 740 320 740 320 742 318 c 128,-1,53
 744 316 744 316 746 318 c 2,54,-1
 894 403 l 2,55,56
 896 405 896 405 896 407 c 128,-1,57
 896 409 896 409 894 411 c 2,58,-1
 746 496 l 2,59,60
 744 498 744 498 742 496 c 128,-1,61
 740 494 740 494 740 492 c 2,50,-1
405 657 m 2,62,-1
 575 657 l 2,63,64
 577 657 577 657 579 659 c 128,-1,65
 581 661 581 661 579 663 c 2,66,-1
 494 811 l 2,67,68
 492 813 492 813 490 813 c 128,-1,69
 488 813 488 813 486 811 c 2,70,-1
 401 663 l 2,71,72
 399 661 399 661 401 659 c 128,-1,73
 403 657 403 657 405 657 c 2,62,-1
240 322 m 2,74,-1
 240 492 l 2,75,76
 240 494 240 494 238 496 c 128,-1,77
 236 498 236 498 234 496 c 2,78,-1
 86 411 l 2,79,80
 84 409 84 409 84 407 c 128,-1,81
 84 405 84 405 86 403 c 2,82,-1
 234 318 l 2,83,84
 236 316 236 316 238 318 c 128,-1,85
 240 320 240 320 240 322 c 2,74,-1
EndSplineSet
Validated: 1
EndChar

StartChar: CIRCLEDNUMBERTEN
Encoding: 9321 9321 233
Width: 980
GlyphClass: 1
Flags: W
LayerCount: 2
Fore
SplineSet
518 388 m 1,0,-1
 558 317 l 1,1,-1
 596 317 l 1,2,-1
 634 317 l 1,3,-1
 588 391 l 1,4,-1
 544 465 l 1,5,6
 576 474 576 474 595 498 c 0,7,8
 614 521 614 521 614 555 c 0,9,10
 614 601 614 601 582 627 c 0,11,12
 551 652 551 652 492 652 c 2,13,-1
 438 652 l 1,14,-1
 382 652 l 1,15,-1
 382 485 l 1,16,-1
 382 317 l 1,17,-1
 414 317 l 1,18,-1
 444 317 l 1,19,-1
 444 388 l 1,20,-1
 444 458 l 1,21,-1
 462 458 l 1,22,-1
 478 458 l 1,23,-1
 518 388 l 1,0,-1
354 771 m 0,24,25
 417 796 417 796 490 796 c 128,-1,26
 563 796 563 796 626 771 c 0,27,28
 690 746 690 746 738 702 c 0,29,30
 785 659 785 659 813 599 c 0,31,32
 840 540 840 540 840 475 c 128,-1,33
 840 410 840 410 813 351 c 0,34,35
 785 291 785 291 738 248 c 0,36,37
 690 204 690 204 626 179 c 0,38,39
 563 154 563 154 490 154 c 128,-1,40
 417 154 417 154 354 179 c 0,41,42
 290 204 290 204 242 248 c 0,43,44
 195 291 195 291 167 351 c 0,45,46
 140 410 140 410 140 475 c 128,-1,47
 140 540 140 540 167 599 c 0,48,49
 195 659 195 659 242 702 c 0,50,51
 290 746 290 746 354 771 c 0,24,25
468 596 m 1,52,-1
 490 596 l 2,53,54
 520 596 520 596 536 586 c 128,-1,55
 552 576 552 576 552 555 c 0,56,57
 552 539 552 539 544 531 c 0,58,59
 527 514 527 514 486 514 c 2,60,-1
 466 514 l 1,61,-1
 444 514 l 1,62,-1
 444 555 l 1,63,-1
 444 596 l 1,64,-1
 468 596 l 1,52,-1
326 94 m 0,65,66
 404 64 404 64 490 64 c 128,-1,67
 576 64 576 64 654 94 c 0,68,69
 733 124 733 124 791 178 c 0,70,71
 850 231 850 231 883 302 c 0,72,73
 916 372 916 372 916 451 c 128,-1,74
 916 530 916 530 883 600 c 0,75,76
 851 669 851 669 791 724 c 0,77,78
 732 777 732 777 654 807 c 128,-1,79
 576 837 576 837 490 837 c 128,-1,80
 404 837 404 837 326 807 c 128,-1,81
 248 777 248 777 189 724 c 0,82,83
 129 669 129 669 97 600 c 0,84,85
 64 530 64 530 64 451 c 128,-1,86
 64 372 64 372 97 302 c 0,87,88
 130 231 130 231 189 178 c 0,89,90
 247 124 247 124 326 94 c 0,65,66
313 862 m 0,91,92
 399 893 399 893 490 893 c 128,-1,93
 581 893 581 893 667 862 c 0,94,95
 755 830 755 830 822 772 c 0,96,97
 890 714 890 714 932 629 c 0,98,99
 972 548 972 548 972 447 c 0,100,101
 972 194 972 194 830 52 c 0,102,103
 763 -13 763 -13 677 -46 c 0,104,105
 590 -79 590 -79 490 -79 c 128,-1,106
 390 -79 390 -79 303 -46 c 0,107,108
 217 -13 217 -13 150 52 c 0,109,110
 8 194 8 194 8 447 c 0,111,112
 8 548 8 548 48 629 c 0,113,114
 90 714 90 714 158 772 c 0,115,116
 225 830 225 830 313 862 c 0,91,92
EndSplineSet
Validated: 1
EndChar

StartChar: CIRCLEDNUMBERELEVEN
Encoding: 9322 9322 234
Width: 980
GlyphClass: 1
Flags: W
LayerCount: 2
Fore
SplineSet
952 562 m 2,0,1
 955 562 955 562 956 561 c 0,2,3
 958 559 958 559 958 557 c 2,4,-1
 958 257 l 2,5,6
 958 256 958 256 956 254 c 128,-1,7
 954 252 954 252 952 252 c 2,8,-1
 644 252 l 1,9,-1
 644 -56 l 1,10,-1
 643 -59 l 2,11,12
 641 -61 641 -61 640 -61 c 2,13,-1
 340 -61 l 1,14,-1
 337 -59 l 2,15,16
 336 -57 336 -57 336 -56 c 2,17,-1
 336 252 l 1,18,-1
 28 252 l 2,19,20
 26 252 26 252 24 254 c 128,-1,21
 22 256 22 256 22 257 c 2,22,-1
 22 557 l 2,23,24
 22 559 22 559 24 561 c 0,25,26
 25 562 25 562 28 562 c 2,27,-1
 336 562 l 1,28,-1
 336 870 l 1,29,-1
 337 874 l 2,30,31
 339 875 339 875 340 875 c 2,32,-1
 640 875 l 1,33,-1
 643 874 l 2,34,35
 644 871 644 871 644 870 c 2,36,-1
 644 562 l 1,37,-1
 952 562 l 2,0,1
240 322 m 2,38,-1
 240 492 l 2,39,40
 240 494 240 494 238 496 c 128,-1,41
 236 498 236 498 234 496 c 2,42,-1
 86 411 l 2,43,44
 84 409 84 409 84 407 c 128,-1,45
 84 405 84 405 86 403 c 2,46,-1
 234 318 l 2,47,48
 236 316 236 316 238 318 c 128,-1,49
 240 320 240 320 240 322 c 2,38,-1
820 361 m 1,50,-1
 894 403 l 2,51,52
 896 405 896 405 896 407 c 128,-1,53
 896 409 896 409 894 411 c 2,54,-1
 820 453 l 1,55,-1
 746 496 l 2,56,57
 744 498 744 498 742 496 c 128,-1,58
 740 494 740 494 740 492 c 2,59,-1
 740 322 l 2,60,61
 740 320 740 320 742 318 c 128,-1,62
 744 316 744 316 746 318 c 2,63,-1
 820 361 l 1,50,-1
EndSplineSet
Validated: 1
EndChar

StartChar: CIRCLEDNUMBERTWELVE
Encoding: 9323 9323 235
Width: 980
GlyphClass: 1
Flags: W
LayerCount: 2
Fore
SplineSet
952 562 m 2,0,1
 955 562 955 562 956 561 c 0,2,3
 958 559 958 559 958 557 c 2,4,-1
 958 257 l 2,5,6
 958 256 958 256 956 254 c 128,-1,7
 954 252 954 252 952 252 c 2,8,-1
 644 252 l 1,9,-1
 644 -56 l 1,10,-1
 643 -59 l 2,11,12
 641 -61 641 -61 640 -61 c 2,13,-1
 340 -61 l 1,14,-1
 337 -59 l 2,15,16
 336 -57 336 -57 336 -56 c 2,17,-1
 336 252 l 1,18,-1
 28 252 l 2,19,20
 26 252 26 252 24 254 c 128,-1,21
 22 256 22 256 22 257 c 2,22,-1
 22 557 l 2,23,24
 22 559 22 559 24 561 c 0,25,26
 25 562 25 562 28 562 c 2,27,-1
 336 562 l 1,28,-1
 336 870 l 1,29,-1
 337 874 l 2,30,31
 339 875 339 875 340 875 c 2,32,-1
 640 875 l 1,33,-1
 643 874 l 2,34,35
 644 871 644 871 644 870 c 2,36,-1
 644 562 l 1,37,-1
 952 562 l 2,0,1
444 737 m 1,38,-1
 402 664 l 2,39,40
 400 662 400 662 401 660 c 0,41,42
 402 657 402 657 406 657 c 2,43,-1
 574 657 l 2,44,45
 577 657 577 657 579 659 c 0,46,47
 580 660 580 660 578 664 c 2,48,-1
 494 810 l 2,49,50
 494 812 494 812 491 813 c 0,51,52
 488 813 488 813 486 810 c 2,53,-1
 444 737 l 1,38,-1
536 77 m 1,54,-1
 578 150 l 2,55,56
 580 152 580 152 579 155 c 0,57,58
 577 157 577 157 574 157 c 2,59,-1
 406 157 l 2,60,61
 403 157 403 157 401 155 c 0,62,63
 400 154 400 154 402 150 c 2,64,-1
 444 77 l 1,65,-1
 486 4 l 2,66,67
 488 2 488 2 490 2 c 0,68,69
 492 0 492 0 494 4 c 2,70,-1
 536 77 l 1,54,-1
EndSplineSet
Validated: 1
EndChar

StartChar: CIRCLEDNUMBERTHIRTEE
Encoding: 9324 9324 236
Width: 980
GlyphClass: 1
Flags: W
LayerCount: 2
Fore
SplineSet
745 32 m 1,0,-1
 711 32 l 1,1,-1
 708 46 l 1,2,-1
 704 63 l 1,3,-1
 700 77 l 1,4,-1
 695 92 l 1,5,-1
 686 103 l 1,6,-1
 670 106 l 1,7,-1
 608 106 l 1,8,-1
 608 32 l 1,9,-1
 576 32 l 1,10,-1
 576 216 l 1,11,-1
 680 216 l 1,12,-1
 708 213 l 1,13,-1
 724 202 l 1,14,-1
 733 186 l 1,15,-1
 735 164 l 1,16,-1
 735 155 l 1,17,-1
 733 144 l 1,18,-1
 730 132 l 1,19,-1
 722 123 l 1,20,-1
 710 116 l 1,21,-1
 718 112 l 1,22,-1
 724 106 l 1,23,-1
 728 97 l 1,24,-1
 733 82 l 1,25,-1
 738 62 l 2,26,27
 742 46 742 46 745 32 c 1,0,-1
158 32 m 2,28,-1
 153 32 l 1,29,-1
 116 35 l 1,30,-1
 92 43 l 1,31,-1
 79 56 l 1,32,-1
 73 73 l 1,33,-1
 72 95 l 1,34,-1
 105 95 l 1,35,-1
 105 85 l 1,36,-1
 107 76 l 1,37,-1
 111 70 l 1,38,-1
 117 66 l 1,39,-1
 127 64 l 1,40,-1
 139 62 l 1,41,-1
 145 62 l 1,42,-1
 154 62 l 1,43,-1
 159 62 l 1,44,-1
 183 63 l 1,45,-1
 197 69 l 1,46,-1
 203 77 l 1,47,-1
 204 88 l 1,48,-1
 199 106 l 1,49,-1
 183 113 l 1,50,51
 165 115 165 115 147 116 c 2,52,-1
 113 120 l 2,53,54
 98 122 98 122 81 134 c 1,55,56
 72 153 72 153 72 167 c 0,57,58
 72 198 72 198 89 210 c 256,59,60
 106 222 106 222 152 222 c 2,61,-1
 158 222 l 1,62,-1
 195 219 l 1,63,-1
 216 208 l 1,64,-1
 228 190 l 1,65,66
 231 174 231 174 231 163 c 1,67,-1
 198 163 l 1,68,-1
 198 168 l 1,69,-1
 197 178 l 1,70,-1
 192 186 l 1,71,-1
 179 191 l 1,72,-1
 156 193 l 1,73,-1
 153 193 l 1,74,-1
 129 192 l 1,75,-1
 115 188 l 1,76,-1
 107 183 l 1,77,-1
 104 177 l 1,78,-1
 104 169 l 1,79,-1
 105 158 l 1,80,-1
 110 152 l 1,81,-1
 116 149 l 1,82,-1
 126 147 l 2,83,84
 139 146 139 146 154 144 c 0,85,86
 188 141 188 141 188 141 c 2,87,88
 196 140 196 140 205.5 136 c 128,-1,89
 215 132 215 132 220 129 c 2,90,-1
 225 126 l 1,91,92
 237 106 237 106 237 88 c 2,93,-1
 230 56 l 1,94,95
 217 42 217 42 206 38 c 0,96,97
 188 32 188 32 158 32 c 2,28,-1
346 32 m 1,98,-1
 313 32 l 1,99,-1
 313 185 l 1,100,-1
 243 185 l 1,101,-1
 243 214 l 1,102,-1
 415 214 l 1,103,-1
 415 185 l 1,104,-1
 346 185 l 1,105,-1
 346 32 l 1,98,-1
509 98 m 1,106,107
 491 140 491 140 475 182 c 1,108,109
 470 171 470 171 457 140 c 128,-1,110
 444 109 444 109 440 98 c 1,111,-1
 509 98 l 1,106,107
568 32 m 1,112,-1
 533 32 l 1,113,-1
 519 69 l 1,114,-1
 430 69 l 1,115,-1
 415 32 l 1,116,-1
 380 32 l 1,117,118
 418 124 418 124 456 214 c 1,119,-1
 493 214 l 1,120,121
 504 187 504 187 535 112 c 128,-1,122
 566 37 566 37 568 32 c 1,112,-1
703 160 m 2,123,-1
 703 163 l 1,124,-1
 697 182 l 1,125,126
 686 187 686 187 675 187 c 2,127,-1
 608 187 l 1,128,-1
 608 135 l 1,129,-1
 673 135 l 1,130,-1
 695 140 l 1,131,132
 702 150 702 150 703 160 c 2,123,-1
845 32 m 1,133,-1
 812 32 l 1,134,-1
 812 185 l 1,135,-1
 742 185 l 1,136,-1
 742 214 l 1,137,-1
 914 214 l 1,138,-1
 914 185 l 1,139,-1
 845 185 l 1,140,-1
 845 32 l 1,133,-1
170 279 m 2,141,142
 138 279 138 279 109 292 c 0,143,144
 78 304 78 304 56 326 c 0,145,146
 37 345 37 345 22 378 c 0,147,148
 9 412 9 412 9 439 c 0,149,150
 9 467 9 467 22 501 c 0,151,152
 37 534 37 534 56 553 c 0,153,154
 81 576 81 576 109 587 c 0,155,156
 138 600 138 600 170 600 c 2,157,-1
 765 600 l 1,158,-1
 810 600 l 2,159,160
 842 600 842 600 871 587 c 0,161,162
 899 576 899 576 924 553 c 0,163,164
 943 534 943 534 958 501 c 0,165,166
 971 467 971 467 971 439 c 0,167,168
 971 412 971 412 958 378 c 0,169,170
 943 345 943 345 924 326 c 0,171,172
 902 304 902 304 871 292 c 0,173,174
 842 279 842 279 810 279 c 2,175,-1
 170 279 l 2,141,142
EndSplineSet
Validated: 1
EndChar

StartChar: CIRCLEDNUMBERFOURTEE
Encoding: 9325 9325 237
Width: 980
GlyphClass: 1
Flags: W
LayerCount: 2
Fore
SplineSet
83 173 m 128,-1,1
 20 281 20 281 20 409 c 128,-1,2
 20 537 20 537 83 645 c 128,-1,3
 146 753 146 753 254 816 c 128,-1,4
 362 879 362 879 490 879 c 128,-1,5
 618 879 618 879 726 816 c 128,-1,6
 834 753 834 753 897 645 c 128,-1,7
 960 537 960 537 960 409 c 128,-1,8
 960 281 960 281 897 173 c 128,-1,9
 834 65 834 65 726 2 c 128,-1,10
 618 -61 618 -61 490 -61 c 128,-1,11
 362 -61 362 -61 254 2 c 128,-1,0
 146 65 146 65 83 173 c 128,-1,1
225 359 m 1,12,-1
 755 359 l 1,13,-1
 755 459 l 1,14,-1
 225 459 l 1,15,-1
 225 359 l 1,12,-1
EndSplineSet
Validated: 1
EndChar

StartChar: CIRCLEDNUMBERFIFTEEN
Encoding: 9326 9326 238
Width: 980
GlyphClass: 1
Flags: W
LayerCount: 2
Fore
SplineSet
952 562 m 2,0,1
 955 562 955 562 956 561 c 0,2,3
 958 559 958 559 958 557 c 2,4,-1
 958 257 l 2,5,6
 958 256 958 256 956 254 c 128,-1,7
 954 252 954 252 952 252 c 2,8,-1
 644 252 l 1,9,-1
 644 -56 l 1,10,-1
 643 -59 l 2,11,12
 641 -61 641 -61 640 -61 c 2,13,-1
 340 -61 l 1,14,-1
 337 -59 l 2,15,16
 336 -57 336 -57 336 -56 c 2,17,-1
 336 252 l 1,18,-1
 28 252 l 2,19,20
 26 252 26 252 24 254 c 128,-1,21
 22 256 22 256 22 257 c 2,22,-1
 22 557 l 2,23,24
 22 559 22 559 24 561 c 0,25,26
 25 562 25 562 28 562 c 2,27,-1
 336 562 l 1,28,-1
 336 870 l 1,29,-1
 337 874 l 2,30,31
 339 875 339 875 340 875 c 2,32,-1
 640 875 l 1,33,-1
 643 874 l 2,34,35
 644 871 644 871 644 870 c 2,36,-1
 644 562 l 1,37,-1
 952 562 l 2,0,1
740 492 m 2,38,-1
 740 322 l 2,39,40
 740 320 740 320 742 318 c 128,-1,41
 744 316 744 316 746 318 c 2,42,-1
 894 403 l 2,43,44
 896 405 896 405 896 407 c 128,-1,45
 896 409 896 409 894 411 c 2,46,-1
 746 496 l 2,47,48
 744 498 744 498 742 496 c 128,-1,49
 740 494 740 494 740 492 c 2,38,-1
240 322 m 2,50,-1
 240 492 l 2,51,52
 240 494 240 494 238 496 c 128,-1,53
 236 498 236 498 234 496 c 2,54,-1
 86 411 l 2,55,56
 84 409 84 409 84 407 c 128,-1,57
 84 405 84 405 86 403 c 2,58,-1
 234 318 l 2,59,60
 236 316 236 316 238 318 c 128,-1,61
 240 320 240 320 240 322 c 2,50,-1
EndSplineSet
Validated: 1
EndChar

StartChar: CIRCLEDNUMBERSIXTEEN
Encoding: 9327 9327 239
Width: 980
GlyphClass: 1
Flags: W
LayerCount: 2
Fore
SplineSet
952 562 m 2,0,1
 955 562 955 562 956 561 c 0,2,3
 958 559 958 559 958 557 c 2,4,-1
 958 257 l 2,5,6
 958 256 958 256 956 254 c 128,-1,7
 954 252 954 252 952 252 c 2,8,-1
 644 252 l 1,9,-1
 644 -56 l 1,10,-1
 643 -59 l 2,11,12
 641 -61 641 -61 640 -61 c 2,13,-1
 340 -61 l 1,14,-1
 337 -59 l 2,15,16
 336 -57 336 -57 336 -56 c 2,17,-1
 336 252 l 1,18,-1
 28 252 l 2,19,20
 26 252 26 252 24 254 c 128,-1,21
 22 256 22 256 22 257 c 2,22,-1
 22 557 l 2,23,24
 22 559 22 559 24 561 c 0,25,26
 25 562 25 562 28 562 c 2,27,-1
 336 562 l 1,28,-1
 336 870 l 1,29,-1
 337 874 l 2,30,31
 339 875 339 875 340 875 c 2,32,-1
 640 875 l 1,33,-1
 643 874 l 2,34,35
 644 871 644 871 644 870 c 2,36,-1
 644 562 l 1,37,-1
 952 562 l 2,0,1
575 157 m 2,38,-1
 405 157 l 2,39,40
 403 157 403 157 401 155 c 128,-1,41
 399 153 399 153 401 151 c 2,42,-1
 486 3 l 2,43,44
 488 1 488 1 490 1 c 128,-1,45
 492 1 492 1 494 3 c 2,46,-1
 579 151 l 2,47,48
 581 153 581 153 579 155 c 128,-1,49
 577 157 577 157 575 157 c 2,38,-1
405 657 m 2,50,-1
 575 657 l 2,51,52
 577 657 577 657 579 659 c 128,-1,53
 581 661 581 661 579 663 c 2,54,-1
 494 811 l 2,55,56
 492 813 492 813 490 813 c 128,-1,57
 488 813 488 813 486 811 c 2,58,-1
 401 663 l 2,59,60
 399 661 399 661 401 659 c 128,-1,61
 403 657 403 657 405 657 c 2,50,-1
EndSplineSet
Validated: 1
EndChar

StartChar: CIRCLEDNUMBERSEVENTE
Encoding: 9328 9328 240
Width: 980
GlyphClass: 1
Flags: W
LayerCount: 2
Fore
SplineSet
952 562 m 2,0,1
 955 562 955 562 956 561 c 0,2,3
 958 559 958 559 958 557 c 2,4,-1
 958 257 l 2,5,6
 958 256 958 256 956 254 c 128,-1,7
 954 252 954 252 952 252 c 2,8,-1
 644 252 l 1,9,-1
 644 -56 l 1,10,-1
 643 -59 l 2,11,12
 641 -61 641 -61 640 -61 c 2,13,-1
 340 -61 l 1,14,-1
 337 -59 l 2,15,16
 336 -57 336 -57 336 -56 c 2,17,-1
 336 252 l 1,18,-1
 28 252 l 2,19,20
 26 252 26 252 24 254 c 128,-1,21
 22 256 22 256 22 257 c 2,22,-1
 22 557 l 2,23,24
 22 559 22 559 24 561 c 0,25,26
 25 562 25 562 28 562 c 2,27,-1
 336 562 l 1,28,-1
 336 870 l 1,29,-1
 337 874 l 2,30,31
 339 875 339 875 340 875 c 2,32,-1
 640 875 l 1,33,-1
 643 874 l 2,34,35
 644 871 644 871 644 870 c 2,36,-1
 644 562 l 1,37,-1
 952 562 l 2,0,1
575 157 m 2,38,-1
 405 157 l 2,39,40
 403 157 403 157 401 155 c 128,-1,41
 399 153 399 153 401 151 c 2,42,-1
 486 3 l 2,43,44
 488 1 488 1 490 1 c 128,-1,45
 492 1 492 1 494 3 c 2,46,-1
 579 151 l 2,47,48
 581 153 581 153 579 155 c 128,-1,49
 577 157 577 157 575 157 c 2,38,-1
740 492 m 2,50,-1
 740 322 l 2,51,52
 740 320 740 320 742 318 c 128,-1,53
 744 316 744 316 746 318 c 2,54,-1
 894 403 l 2,55,56
 896 405 896 405 896 407 c 128,-1,57
 896 409 896 409 894 411 c 2,58,-1
 746 496 l 2,59,60
 744 498 744 498 742 496 c 128,-1,61
 740 494 740 494 740 492 c 2,50,-1
405 657 m 2,62,-1
 575 657 l 2,63,64
 577 657 577 657 579 659 c 128,-1,65
 581 661 581 661 579 663 c 2,66,-1
 494 811 l 2,67,68
 492 813 492 813 490 813 c 128,-1,69
 488 813 488 813 486 811 c 2,70,-1
 401 663 l 2,71,72
 399 661 399 661 401 659 c 128,-1,73
 403 657 403 657 405 657 c 2,62,-1
240 322 m 2,74,-1
 240 492 l 2,75,76
 240 494 240 494 238 496 c 128,-1,77
 236 498 236 498 234 496 c 2,78,-1
 86 411 l 2,79,80
 84 409 84 409 84 407 c 128,-1,81
 84 405 84 405 86 403 c 2,82,-1
 234 318 l 2,83,84
 236 316 236 316 238 318 c 128,-1,85
 240 320 240 320 240 322 c 2,74,-1
EndSplineSet
Validated: 1
EndChar

StartChar: CIRCLEDNUMBERTWENTY
Encoding: 9331 9331 241
Width: 636
GlyphClass: 1
Flags: W
LayerCount: 2
Fore
SplineSet
561 676 m 2,0,-1
 405 562 l 2,1,2
 401 561 401 561 401 553 c 2,3,-1
 401 389 l 1,4,-1
 402 387 l 1,5,-1
 549 387 l 2,6,7
 564 387 564 387 564 373 c 0,8,9
 564 358 564 358 549 358 c 2,10,-1
 402 358 l 1,11,-1
 401 357 l 1,12,-1
 401 294 l 1,13,-1
 402 293 l 1,14,-1
 549 293 l 2,15,16
 564 293 564 293 564 267 c 0,17,18
 564 264 564 264 549 264 c 2,19,-1
 402 264 l 2,20,21
 401 263 401 263 401 262 c 2,22,-1
 401 114 l 2,23,24
 401 111 401 111 403 107 c 2,25,-1
 438 72 l 2,26,27
 451 61 451 61 437 50 c 2,28,-1
 371 4 l 2,29,30
 360 -4 360 -4 352 5 c 2,31,-1
 326 31 l 2,32,33
 318 39 318 39 318 51 c 2,34,-1
 318 262 l 1,35,-1
 285 264 l 1,36,37
 285 195 285 195 275 154 c 0,38,39
 248 61 248 61 114 22 c 0,40,41
 108 20 108 20 108 26 c 0,42,43
 108 31 108 31 112 32 c 0,44,45
 161 53 161 53 185 81 c 0,46,47
 224 127 224 127 233 217 c 1,48,-1
 233 262 l 1,49,-1
 106 263 l 2,50,51
 91 263 91 263 91 278 c 0,52,53
 91 292 91 292 106 292 c 2,54,-1
 232 292 l 1,55,-1
 233 357 l 1,56,-1
 232 358 l 1,57,-1
 106 358 l 2,58,59
 91 358 91 358 91 373 c 0,60,61
 91 387 91 387 106 387 c 2,62,-1
 232 387 l 2,63,64
 233 388 233 388 233 389 c 2,65,-1
 233 462 l 2,66,67
 233 471 233 471 241 477 c 0,68,69
 242 477 242 477 243.5 478.5 c 128,-1,70
 245 480 245 480 246.5 481.5 c 128,-1,71
 248 483 248 483 250 484 c 0,72,73
 251 485 251 485 255 487.5 c 128,-1,74
 259 490 259 490 261 492 c 2,75,-1
 270 498 l 2,76,77
 274 501 274 501 281 499 c 0,78,79
 286 496 286 496 286 490 c 2,80,-1
 286 389 l 1,81,-1
 287 387 l 1,82,-1
 317 387 l 2,83,84
 318 388 318 388 318 389 c 2,85,-1
 318 558 l 2,86,87
 318 564 318 564 313 569 c 2,88,-1
 220 662 l 2,89,90
 202 682 202 682 187 682 c 0,91,92
 176 682 176 682 164 673 c 0,93,94
 152 663 152 663 150 644 c 0,95,96
 149 639 149 639 154 627 c 0,97,98
 158 617 158 617 150 611 c 0,99,100
 149 610 149 610 145.5 607.5 c 128,-1,101
 142 605 142 605 135.5 600.5 c 128,-1,102
 129 596 129 596 122 591 c 0,103,104
 105 579 105 579 85 564 c 0,105,106
 80 559 80 559 74 563 c 0,107,108
 67 566 67 566 67 573 c 2,109,-1
 67 582 l 2,110,111
 67 606 67 606 80 625 c 0,112,113
 97 651 97 651 146 687 c 2,114,-1
 164 699 l 2,115,116
 166 701 166 701 169 703 c 128,-1,117
 172 705 172 705 174 706.5 c 128,-1,118
 176 708 176 708 177.5 709 c 128,-1,119
 179 710 179 710 180 711 c 0,120,121
 181 711 181 711 185 714 c 128,-1,122
 189 717 189 717 193 719 c 0,123,124
 204 726 204 726 206 727 c 0,125,126
 207 727 207 727 211.5 728.5 c 128,-1,127
 216 730 216 730 219 731 c 2,128,-1
 234 734 l 2,129,130
 239 735 239 735 250 735 c 0,131,132
 300 735 300 735 338 697 c 1,133,-1
 344 692 l 2,134,135
 367 669 367 669 386 651 c 0,136,137
 422 613 422 613 429 606 c 1,138,-1
 550 692 l 2,139,140
 558 697 558 697 563 690 c 0,141,142
 569 682 569 682 561 676 c 2,0,-1
285 294 m 1,143,-1
 318 294 l 1,144,-1
 318 357 l 2,145,146
 317 358 317 358 316 358 c 2,147,-1
 287 358 l 1,148,-1
 285 357 l 1,149,-1
 285 294 l 1,143,-1
EndSplineSet
Validated: 1
EndChar

StartChar: PARENTHESIZEDDIGITON
Encoding: 9332 9332 242
Width: 980
GlyphClass: 1
Flags: W
LayerCount: 2
Fore
SplineSet
552 665 m 1,0,-1
 552 180 l 1,1,-1
 465 181 l 1,2,-1
 465 584 l 1,3,-1
 342 584 l 1,4,-1
 342 665 l 1,5,-1
 552 665 l 1,0,-1
150 -57 m 2,6,-1
 830 -57 l 2,7,8
 883 -57 883 -57 921 -19 c 0,9,10
 958 18 958 18 958 71 c 2,11,-1
 958 751 l 2,12,13
 958 805 958 805 921 842 c 128,-1,14
 884 879 884 879 830 879 c 2,15,-1
 150 879 l 2,16,17
 97 879 97 879 60 842 c 0,18,19
 22 804 22 804 22 751 c 2,20,-1
 22 71 l 2,21,22
 22 19 22 19 60 -19 c 128,-1,23
 98 -57 98 -57 150 -57 c 2,6,-1
EndSplineSet
Validated: 9
EndChar

StartChar: PARENTHESIZEDDIGITTW
Encoding: 9333 9333 243
Width: 980
GlyphClass: 1
Flags: W
LayerCount: 2
Fore
SplineSet
698 262 m 1,0,-1
 698 181 l 1,1,-1
 277 181 l 1,2,3
 277 198 277 198 278 217 c 128,-1,4
 279 236 279 236 279 252 c 0,5,6
 280 283 280 283 287 310 c 0,7,8
 293 335 293 335 306 356 c 0,9,10
 318 376 318 376 341 392 c 0,11,12
 363 407 363 407 399 416 c 0,13,14
 400 417 400 417 403 417.5 c 128,-1,15
 406 418 406 418 407 418 c 0,16,17
 410 419 410 419 420 421 c 2,18,-1
 435 424 l 2,19,20
 438 426 438 426 459 430 c 0,21,22
 490 437 490 437 493 437 c 0,23,24
 505 440 505 440 517 442.5 c 128,-1,25
 529 445 529 445 534.5 446.5 c 128,-1,26
 540 448 540 448 541 448 c 0,27,28
 588 459 588 459 601 477 c 0,29,30
 615 496 615 496 615 528 c 0,31,32
 615 537 615 537 613 551 c 0,33,34
 609 578 609 578 584 588 c 0,35,36
 558 597 558 597 498 597 c 2,37,-1
 489 597 l 2,38,39
 457 597 457 597 427 591 c 0,40,41
 391 583 391 583 381 564 c 0,42,43
 370 544 370 544 370 498 c 1,44,-1
 281 498 l 1,45,46
 283 532 283 532 284 548 c 0,47,48
 285 561 285 561 292 590 c 0,49,50
 300 616 300 616 312 627 c 0,51,52
 329 642 329 642 346 652 c 0,53,54
 368 664 368 664 403 670 c 0,55,56
 441 675 441 675 487 675 c 2,57,-1
 504 675 l 1,58,-1
 537 675 l 2,59,60
 542 674 542 674 553 673.5 c 128,-1,61
 564 673 564 673 570 673 c 0,62,63
 586 672 586 672 603 668 c 0,64,65
 619 665 619 665 633 658 c 0,66,67
 647 654 647 654 660 645 c 0,68,69
 672 634 672 634 680 623 c 0,70,71
 688 611 688 611 693 592 c 0,72,73
 702 559 702 559 702 533 c 2,74,-1
 702 523 l 2,75,76
 702 456 702 456 673 421 c 0,77,78
 645 385 645 385 569 370 c 0,79,80
 567 370 567 370 563 369 c 128,-1,81
 559 368 559 368 549.5 366.5 c 128,-1,82
 540 365 540 365 532 363 c 0,83,84
 520 362 520 362 499 357 c 2,85,-1
 469 351 l 2,86,87
 444 347 444 347 434 344 c 0,88,89
 394 335 394 335 380 315 c 0,90,91
 365 294 365 294 365 260 c 1,92,-1
 698 262 l 1,0,-1
150 -57 m 2,93,-1
 830 -57 l 2,94,95
 883 -57 883 -57 921 -19 c 0,96,97
 958 18 958 18 958 71 c 2,98,-1
 958 751 l 2,99,100
 958 805 958 805 921 842 c 128,-1,101
 884 879 884 879 830 879 c 2,102,-1
 150 879 l 2,103,104
 97 879 97 879 60 842 c 0,105,106
 22 804 22 804 22 751 c 2,107,-1
 22 71 l 2,108,109
 22 19 22 19 60 -19 c 128,-1,110
 98 -57 98 -57 150 -57 c 2,93,-1
EndSplineSet
Validated: 9
EndChar

StartChar: PARENTHESIZEDDIGITTH
Encoding: 9334 9334 244
Width: 980
GlyphClass: 1
Flags: W
LayerCount: 2
Fore
SplineSet
492 243 m 2,0,-1
 502 243 l 2,1,2
 570 243 570 243 595 258 c 256,3,4
 620 273 620 273 620 320 c 0,5,6
 620 362 620 362 599 378 c 0,7,8
 579 394 579 394 528 394 c 2,9,-1
 379 394 l 1,10,-1
 379 466 l 1,11,-1
 529 466 l 2,12,13
 543 466 543 466 561 468 c 0,14,15
 573 469 573 469 587 477 c 0,16,17
 599 482 599 482 607 497 c 0,18,19
 613 510 613 510 613 534 c 0,20,21
 613 573 613 573 591 586 c 0,22,23
 568 600 568 600 503 600 c 0,24,25
 422 600 422 600 394 585 c 0,26,27
 365 568 365 568 365 521 c 1,28,-1
 279 521 l 1,29,30
 279 524 279 524 280 529 c 0,31,32
 280 539 280 539 281 545 c 128,-1,33
 282 551 282 551 282 558 c 0,34,35
 286 587 286 587 297 610 c 0,36,37
 308 630 308 630 325 644 c 0,38,39
 342 657 342 657 369 664 c 0,40,41
 393 671 393 671 426 674 c 0,42,43
 464 676 464 676 498 676 c 0,44,45
 537 676 537 676 551 675 c 0,46,47
 573 673 573 673 598 669 c 128,-1,48
 623 665 623 665 639 656 c 0,49,50
 653 648 653 648 670 633 c 0,51,52
 684 617 684 617 690 595 c 0,53,54
 697 574 697 574 697 541 c 0,55,56
 697 516 697 516 691 497 c 0,57,58
 685 476 685 476 678 467 c 0,59,60
 670 456 670 456 660 449 c 0,61,62
 648 440 648 440 643 439 c 0,63,64
 640 438 640 438 627 434 c 1,65,66
 648 430 648 430 664 420 c 0,67,68
 680 409 680 409 687 396 c 0,69,70
 693 384 693 384 697 370 c 0,71,72
 697 367 697 367 699 357.5 c 128,-1,73
 701 348 701 348 702 341 c 0,74,75
 704 323 704 323 704 312 c 0,76,77
 704 284 704 284 698 262 c 0,78,79
 691 238 691 238 682 224 c 0,80,81
 674 210 674 210 656 199 c 0,82,83
 636 186 636 186 624 182 c 0,84,85
 606 175 606 175 584 174 c 0,86,87
 572 172 572 172 542 170 c 0,88,89
 529 169 529 169 495 169 c 0,90,91
 446 169 446 169 412 172 c 256,92,93
 378 175 378 175 352 184 c 0,94,95
 325 194 325 194 312 205 c 0,96,97
 297 217 297 217 288 237 c 0,98,99
 279 256 279 256 276 280 c 0,100,101
 272 308 272 308 271 337 c 1,102,-1
 356 337 l 1,103,104
 356 272 356 272 380 259 c 0,105,106
 406 244 406 244 492 243 c 2,0,-1
150 -57 m 2,107,-1
 830 -57 l 2,108,109
 883 -57 883 -57 921 -19 c 0,110,111
 958 18 958 18 958 71 c 2,112,-1
 958 751 l 2,113,114
 958 805 958 805 921 842 c 128,-1,115
 884 879 884 879 830 879 c 2,116,-1
 150 879 l 2,117,118
 97 879 97 879 60 842 c 0,119,120
 22 804 22 804 22 751 c 2,121,-1
 22 71 l 2,122,123
 22 19 22 19 60 -19 c 128,-1,124
 98 -57 98 -57 150 -57 c 2,107,-1
EndSplineSet
Validated: 9
EndChar

StartChar: PARENTHESIZEDDIGITFO
Encoding: 9335 9335 245
Width: 980
GlyphClass: 1
Flags: W
LayerCount: 2
Fore
SplineSet
345 342 m 1,0,-1
 568 343 l 1,1,-1
 568 439 l 1,2,-1
 571 578 l 1,3,-1
 345 342 l 1,0,-1
650 268 m 1,4,-1
 650 181 l 1,5,-1
 568 181 l 1,6,-1
 568 269 l 1,7,-1
 257 269 l 1,8,-1
 257 347 l 1,9,-1
 556 672 l 1,10,-1
 650 672 l 1,11,-1
 650 343 l 1,12,-1
 719 343 l 1,13,-1
 719 268 l 1,14,-1
 650 268 l 1,4,-1
150 -57 m 2,15,-1
 830 -57 l 2,16,17
 883 -57 883 -57 921 -19 c 0,18,19
 958 18 958 18 958 71 c 2,20,-1
 958 751 l 2,21,22
 958 805 958 805 921 842 c 128,-1,23
 884 879 884 879 830 879 c 2,24,-1
 150 879 l 2,25,26
 97 879 97 879 60 842 c 0,27,28
 22 804 22 804 22 751 c 2,29,-1
 22 71 l 2,30,31
 22 19 22 19 60 -19 c 128,-1,32
 98 -57 98 -57 150 -57 c 2,15,-1
EndSplineSet
Validated: 9
EndChar

StartChar: PARENTHESIZEDDIGITFI
Encoding: 9336 9336 246
Width: 980
GlyphClass: 1
Flags: W
LayerCount: 2
Fore
SplineSet
679 665 m 1,0,-1
 679 587 l 1,1,-1
 372 587 l 1,2,-1
 364 467 l 1,3,4
 404 500 404 500 500 500 c 2,5,-1
 518 500 l 2,6,7
 626 500 626 500 665 467 c 128,-1,8
 704 434 704 434 704 339 c 0,9,10
 704 240 704 240 659 206 c 0,11,12
 612 171 612 171 491 171 c 0,13,14
 446 171 446 171 432 172 c 0,15,16
 405 174 405 174 378 180 c 0,17,18
 343 188 343 188 327 200 c 0,19,20
 308 214 308 214 295 239 c 0,21,22
 282 266 282 266 280 304 c 2,23,-1
 279 323 l 1,24,-1
 364 324 l 1,25,-1
 363 315 l 1,26,-1
 363 305 l 2,27,28
 364 291 364 291 369 280 c 0,29,30
 373 271 373 271 384 263 c 0,31,32
 391 259 391 259 403 253 c 0,33,34
 411 250 411 250 430 248 c 0,35,36
 452 246 452 246 459 246 c 2,37,-1
 493 246 l 2,38,39
 571 246 571 246 596 263 c 0,40,41
 620 280 620 280 620 337 c 2,42,-1
 620 367 l 2,43,44
 618 383 618 383 615 390 c 0,45,46
 610 402 610 402 603 408 c 0,47,48
 594 415 594 415 583 419 c 0,49,50
 565 425 565 425 552 426 c 0,51,52
 526 428 526 428 506 428 c 2,53,-1
 494 428 l 2,54,55
 438 428 438 428 405 417 c 0,56,57
 372 405 372 405 365 377 c 1,58,-1
 285 376 l 1,59,-1
 298 665 l 1,60,-1
 679 665 l 1,0,-1
150 -57 m 2,61,-1
 830 -57 l 2,62,63
 883 -57 883 -57 921 -19 c 0,64,65
 958 18 958 18 958 71 c 2,66,-1
 958 751 l 2,67,68
 958 805 958 805 921 842 c 128,-1,69
 884 879 884 879 830 879 c 2,70,-1
 150 879 l 2,71,72
 97 879 97 879 60 842 c 0,73,74
 22 804 22 804 22 751 c 2,75,-1
 22 71 l 2,76,77
 22 19 22 19 60 -19 c 128,-1,78
 98 -57 98 -57 150 -57 c 2,61,-1
EndSplineSet
Validated: 9
EndChar

StartChar: PARENTHESIZEDDIGITSI
Encoding: 9337 9337 247
Width: 980
GlyphClass: 1
Flags: W
LayerCount: 2
Fore
SplineSet
626 333 m 0,0,1
 626 386 626 386 601 402 c 0,2,3
 576 417 576 417 498 417 c 0,4,5
 464 417 464 417 452 416 c 0,6,7
 433 414 433 414 414 410 c 128,-1,8
 395 406 395 406 383 397 c 0,9,10
 370 387 370 387 363 372 c 128,-1,11
 356 357 356 357 356 333 c 2,12,-1
 356 327 l 1,13,-1
 356 321 l 1,14,15
 360 273 360 273 386 258 c 0,16,17
 411 242 411 242 493 242 c 0,18,19
 515 242 515 242 545 244 c 0,20,21
 566 246 566 246 581 250 c 0,22,23
 595 254 595 254 605 261 c 0,24,25
 615 269 615 269 619 280 c 0,26,27
 623 290 623 290 625 302 c 0,28,29
 626 310 626 310 626 333 c 0,0,1
701 534 m 1,30,-1
 611 534 l 1,31,32
 611 572 611 572 587 588 c 0,33,34
 563 603 563 603 499 603 c 2,35,-1
 490 603 l 2,36,37
 447 603 447 603 423 597 c 0,38,39
 398 590 398 590 382 572 c 0,40,41
 365 552 365 552 359 523 c 0,42,43
 353 493 353 493 353 443 c 1,44,45
 377 474 377 474 410 481 c 0,46,47
 444 490 444 490 509 490 c 0,48,49
 556 490 556 490 586 487 c 0,50,51
 617 484 617 484 641 474 c 0,52,53
 667 463 667 463 680 446 c 0,54,55
 694 428 694 428 701 401 c 256,56,57
 708 374 708 374 708 332 c 0,58,59
 708 234 708 234 661 201 c 0,60,61
 615 167 615 167 489 167 c 0,62,63
 444 167 444 167 406 172 c 0,64,65
 370 177 370 177 347 189 c 0,66,67
 321 203 321 203 308 220 c 0,68,69
 293 238 293 238 286 268 c 0,70,71
 277 298 277 298 274 332 c 0,72,73
 272 378 272 378 272 419 c 0,74,75
 272 474 272 474 275 510 c 0,76,77
 278 545 278 545 287 577 c 0,78,79
 296 608 296 608 311 626 c 0,80,81
 325 643 325 643 351 655 c 0,82,83
 374 667 374 667 411 672 c 0,84,85
 449 677 449 677 495 677 c 0,86,87
 536 677 536 677 564 674 c 256,88,89
 592 671 592 671 620 662 c 0,90,91
 647 655 647 655 664 639 c 0,92,93
 679 624 679 624 690 597 c 128,-1,94
 701 570 701 570 701 534 c 1,30,-1
150 -57 m 2,95,-1
 830 -57 l 2,96,97
 883 -57 883 -57 921 -19 c 0,98,99
 958 18 958 18 958 71 c 2,100,-1
 958 751 l 2,101,102
 958 805 958 805 921 842 c 128,-1,103
 884 879 884 879 830 879 c 2,104,-1
 150 879 l 2,105,106
 97 879 97 879 60 842 c 0,107,108
 22 804 22 804 22 751 c 2,109,-1
 22 71 l 2,110,111
 22 19 22 19 60 -19 c 128,-1,112
 98 -57 98 -57 150 -57 c 2,95,-1
EndSplineSet
Validated: 9
EndChar

StartChar: PARENTHESIZEDDIGITSE
Encoding: 9338 9338 248
Width: 980
GlyphClass: 1
Flags: W
LayerCount: 2
Fore
SplineSet
699 586 m 1,0,-1
 414 181 l 1,1,-1
 310 181 l 1,2,-1
 604 590 l 1,3,-1
 280 590 l 1,4,-1
 280 665 l 1,5,-1
 699 665 l 1,6,-1
 699 586 l 1,0,-1
150 -57 m 2,7,-1
 830 -57 l 2,8,9
 883 -57 883 -57 921 -19 c 0,10,11
 958 18 958 18 958 71 c 2,12,-1
 958 751 l 2,13,14
 958 805 958 805 921 842 c 128,-1,15
 884 879 884 879 830 879 c 2,16,-1
 150 879 l 2,17,18
 97 879 97 879 60 842 c 0,19,20
 22 804 22 804 22 751 c 2,21,-1
 22 71 l 2,22,23
 22 19 22 19 60 -19 c 128,-1,24
 98 -57 98 -57 150 -57 c 2,7,-1
EndSplineSet
Validated: 9
EndChar

StartChar: PARENTHESIZEDDIGITEI
Encoding: 9339 9339 249
Width: 980
GlyphClass: 1
Flags: W
LayerCount: 2
Fore
SplineSet
619 538 m 2,0,-1
 619 542 l 2,1,2
 619 564 619 564 611 577 c 0,3,4
 601 590 601 590 574 597 c 128,-1,5
 547 604 547 604 492 604 c 0,6,7
 422 604 422 604 395 595 c 0,8,9
 366 584 366 584 362 557 c 0,10,11
 361 552 361 552 361 536 c 0,12,13
 361 506 361 506 368 493 c 0,14,15
 376 479 376 479 403 472 c 128,-1,16
 430 465 430 465 491 465 c 0,17,18
 565 465 565 465 592 478 c 0,19,20
 619 492 619 492 619 538 c 2,0,-1
630 318 m 0,21,22
 630 337 630 337 625 354 c 0,23,24
 619 368 619 368 610 377 c 0,25,26
 601 385 601 385 582 389 c 0,27,28
 562 394 562 394 544 395 c 0,29,30
 531 396 531 396 490 396 c 0,31,32
 408 396 408 396 378 382 c 0,33,34
 349 368 349 368 349 319 c 0,35,36
 349 266 349 266 377 253 c 0,37,38
 407 239 407 239 494 239 c 0,39,40
 572 239 572 239 601 254 c 0,41,42
 630 268 630 268 630 318 c 0,21,22
492 167 m 0,43,44
 460 167 460 167 426 169 c 0,45,46
 400 170 400 170 372 175 c 0,47,48
 344 179 344 179 326 190 c 0,49,50
 308 200 308 200 294 214 c 0,51,52
 279 230 279 230 273 253 c 0,53,54
 266 275 266 275 266 309 c 0,55,56
 266 324 266 324 268 344 c 0,57,58
 270 358 270 358 277 377 c 128,-1,59
 284 396 284 396 301 410 c 0,60,61
 317 423 317 423 345 431 c 1,62,63
 304 444 304 444 290 471 c 0,64,65
 277 496 277 496 277 542 c 0,66,67
 277 569 277 569 283 590 c 128,-1,68
 289 611 289 611 298 625 c 0,69,70
 307 638 307 638 324 649 c 0,71,72
 342 659 342 659 356 664 c 0,73,74
 376 670 376 670 397 672 c 0,75,76
 410 674 410 674 442 676 c 2,77,-1
 493 676 l 2,78,79
 538 674 538 674 568 673 c 0,80,81
 592 671 592 671 624 662 c 0,82,83
 652 655 652 655 667 641 c 0,84,85
 680 628 680 628 691 605 c 0,86,87
 699 584 699 584 701 549 c 0,88,89
 701 546 701 546 702 544 c 2,90,-1
 702 537 l 2,91,92
 702 495 702 495 685 469 c 128,-1,93
 668 443 668 443 633 431 c 1,94,95
 672 421 672 421 692 393 c 128,-1,96
 712 365 712 365 712 311 c 0,97,98
 712 285 712 285 707 262 c 0,99,100
 702 243 702 243 693 225 c 0,101,102
 684 210 684 210 668 200 c 128,-1,103
 652 190 652 190 636 184 c 0,104,105
 621 177 621 177 594 174 c 0,106,107
 577 172 577 172 547 170 c 0,108,109
 525 168 525 168 492 167 c 0,43,44
150 -57 m 2,110,-1
 830 -57 l 2,111,112
 883 -57 883 -57 921 -19 c 0,113,114
 958 18 958 18 958 71 c 2,115,-1
 958 751 l 2,116,117
 958 805 958 805 921 842 c 128,-1,118
 884 879 884 879 830 879 c 2,119,-1
 150 879 l 2,120,121
 97 879 97 879 60 842 c 0,122,123
 22 804 22 804 22 751 c 2,124,-1
 22 71 l 2,125,126
 22 19 22 19 60 -19 c 128,-1,127
 98 -57 98 -57 150 -57 c 2,110,-1
EndSplineSet
Validated: 9
EndChar

StartChar: PARENTHESIZEDDIGITNI
Encoding: 9340 9340 250
Width: 980
GlyphClass: 1
Flags: W
LayerCount: 2
Fore
SplineSet
484 602 m 0,0,1
 432 601 432 601 423 599 c 0,2,3
 380 593 380 593 366 572 c 0,4,5
 352 549 352 549 352 508 c 0,6,7
 352 472 352 472 361 454 c 0,8,9
 370 435 370 435 397 428 c 0,10,11
 427 420 427 420 480 420 c 0,12,13
 527 420 527 420 552 424 c 0,14,15
 579 428 579 428 594 439 c 0,16,17
 608 450 608 450 614 463 c 0,18,19
 620 478 620 478 621 497 c 0,20,21
 621 500 621 500 622 503 c 2,22,-1
 622 508 l 2,23,24
 622 566 622 566 594 584 c 128,-1,25
 566 602 566 602 484 602 c 0,0,1
482 167 m 2,26,-1
 471 167 l 2,27,28
 364 167 364 167 320 199 c 0,29,30
 275 230 275 230 275 303 c 1,31,32
 300 302 300 302 338 302 c 2,33,-1
 360 303 l 1,34,35
 360 265 360 265 388 252 c 0,36,37
 418 238 418 238 482 238 c 0,38,39
 542 238 542 238 571 250 c 0,40,41
 600 260 600 260 613 292 c 0,42,43
 625 322 625 322 625 385 c 2,44,-1
 625 396 l 1,45,46
 601 364 601 364 568 357 c 0,47,48
 534 348 534 348 474 348 c 2,49,-1
 461 348 l 2,50,51
 435 348 435 348 405 350 c 0,52,53
 383 351 383 351 358 358 c 0,54,55
 337 362 337 362 320 374 c 0,56,57
 306 383 306 383 293 402 c 0,58,59
 280 419 280 419 276 446 c 0,60,61
 270 472 270 472 270 507 c 0,62,63
 270 605 270 605 318 641 c 0,64,65
 365 676 365 676 484 676 c 0,66,67
 540 676 540 676 572 672 c 0,68,69
 606 668 606 668 632 654 c 128,-1,70
 658 640 658 640 671 624 c 0,71,72
 685 607 685 607 692 577 c 0,73,74
 699 549 699 549 702 514 c 0,75,76
 704 472 704 472 704 430 c 2,77,-1
 704 419 l 2,78,79
 704 359 704 359 700 326 c 0,80,81
 695 287 695 287 685 259 c 0,82,83
 674 228 674 228 660 213 c 0,84,85
 644 196 644 196 618 185 c 0,86,87
 591 174 591 174 560 171 c 0,88,89
 532 167 532 167 482 167 c 2,26,-1
150 -57 m 2,90,-1
 830 -57 l 2,91,92
 883 -57 883 -57 921 -19 c 0,93,94
 958 18 958 18 958 71 c 2,95,-1
 958 751 l 2,96,97
 958 805 958 805 921 842 c 128,-1,98
 884 879 884 879 830 879 c 2,99,-1
 150 879 l 2,100,101
 97 879 97 879 60 842 c 0,102,103
 22 804 22 804 22 751 c 2,104,-1
 22 71 l 2,105,106
 22 19 22 19 60 -19 c 128,-1,107
 98 -57 98 -57 150 -57 c 2,90,-1
EndSplineSet
Validated: 9
EndChar

StartChar: PARENTHESIZEDNUMBERT
Encoding: 9341 9341 251
Width: 980
GlyphClass: 1
Flags: W
LayerCount: 2
Fore
SplineSet
617 427 m 0,0,1
 616 520 616 520 602 556 c 0,2,3
 588 591 588 591 546 597 c 0,4,5
 537 598 537 598 489 600 c 2,6,-1
 455 600 l 2,7,8
 442 598 442 598 427 597 c 0,9,10
 409 594 409 594 403 590 c 128,-1,11
 397 586 397 586 386 577 c 0,12,13
 377 570 377 570 372 556 c 0,14,15
 370 551 370 551 367.5 540 c 128,-1,16
 365 529 365 529 364 526 c 0,17,18
 359 506 359 506 358 483 c 0,19,20
 357 467 357 467 357 427 c 0,21,22
 357 392 357 392 359 354 c 0,23,24
 361 323 361 323 367 305 c 0,25,26
 373 282 373 282 382 272 c 0,27,28
 389 262 389 262 407 254 c 0,29,30
 421 248 421 248 442 246 c 0,31,32
 466 244 466 244 491 244 c 0,33,34
 520 244 520 244 540 247 c 0,35,36
 557 248 557 248 574 257 c 0,37,38
 588 265 588 265 596 276 c 0,39,40
 605 291 605 291 609 310 c 0,41,42
 615 340 615 340 616 358 c 128,-1,43
 617 376 617 376 617 427 c 0,0,1
704 427 m 0,44,45
 704 382 704 382 702 332 c 0,46,47
 699 296 699 296 690 264 c 0,48,49
 681 233 681 233 667 216 c 128,-1,50
 653 199 653 199 628 187 c 0,51,52
 604 177 604 177 572 172 c 0,53,54
 544 168 544 168 492 168 c 0,55,56
 443 168 443 168 413 171 c 0,57,58
 383 172 383 172 356 183 c 0,59,60
 326 194 326 194 314 209 c 0,61,62
 299 227 299 227 289 256 c 0,63,64
 279 284 279 284 274 326 c 0,65,66
 271 366 271 366 271 426 c 0,67,68
 271 454 271 454 273 496 c 0,69,70
 274 526 274 526 279 552 c 0,71,72
 282 573 282 573 290 595 c 0,73,74
 295 608 295 608 306 627 c 0,75,76
 312 639 312 639 328 649 c 0,77,78
 342 657 342 657 357 664 c 0,79,80
 373 669 373 669 393 672 c 0,81,82
 407 674 407 674 437 676 c 0,83,84
 451 677 451 677 490 677 c 0,85,86
 538 677 538 677 566 674 c 0,87,88
 597 671 597 671 621 661 c 0,89,90
 649 649 649 649 661 635 c 0,91,92
 676 616 676 616 686 590 c 0,93,94
 695 566 695 566 700 522 c 0,95,96
 704 486 704 486 704 427 c 0,44,45
150 -57 m 2,97,-1
 830 -57 l 2,98,99
 883 -57 883 -57 921 -19 c 0,100,101
 958 18 958 18 958 71 c 2,102,-1
 958 751 l 2,103,104
 958 805 958 805 921 842 c 128,-1,105
 884 879 884 879 830 879 c 2,106,-1
 150 879 l 2,107,108
 97 879 97 879 60 842 c 0,109,110
 22 804 22 804 22 751 c 2,111,-1
 22 71 l 2,112,113
 22 19 22 19 60 -19 c 128,-1,114
 98 -57 98 -57 150 -57 c 2,97,-1
EndSplineSet
Validated: 2097161
EndChar

StartChar: PARENTHESIZEDNUMBERE
Encoding: 9342 9342 252
Width: 980
GlyphClass: 1
Flags: W
LayerCount: 2
Fore
SplineSet
540 419 m 1,0,-1
 540 28 l 1,1,-1
 470 28 l 1,2,-1
 470 354 l 1,3,-1
 371 354 l 1,4,-1
 371 419 l 1,5,-1
 540 419 l 1,0,-1
884 658 m 2,6,-1
 884 511 l 1,7,-1
 839 511 l 1,8,-1
 839 648 l 2,9,10
 839 662 839 662 833 670 c 0,11,12
 826 677 826 677 803 677 c 2,13,-1
 799 677 l 2,14,15
 764 675 764 675 764 646 c 2,16,-1
 764 511 l 1,17,-1
 719 511 l 1,18,-1
 719 646 l 2,19,20
 719 664 719 664 712 671 c 0,21,22
 704 679 704 679 685 679 c 0,23,24
 665 679 665 679 655 672 c 0,25,26
 644 664 644 664 644 644 c 2,27,-1
 644 511 l 1,28,-1
 599 511 l 1,29,-1
 599 714 l 1,30,-1
 643 714 l 1,31,-1
 643 694 l 1,32,33
 650 707 650 707 664 713 c 0,34,35
 679 718 679 718 701 718 c 0,36,37
 724 718 724 718 739 713 c 0,38,39
 750 709 750 709 757 694 c 1,40,41
 759 696 759 696 760 698 c 2,42,-1
 762 700 l 2,43,44
 763 702 763 702 764 703 c 128,-1,45
 765 704 765 704 774 710 c 0,46,47
 783 713 783 713 790 715 c 0,48,49
 804 717 804 717 813 717 c 2,50,-1
 818 717 l 1,51,-1
 822 716 l 1,52,53
 855 714 855 714 869 703 c 0,54,55
 884 691 884 691 884 658 c 2,6,-1
564 713 m 1,56,-1
 564 510 l 1,57,-1
 520 511 l 1,58,-1
 520 531 l 1,59,60
 515 519 515 519 503 514 c 0,61,62
 490 508 490 508 462 508 c 2,63,-1
 456 508 l 1,64,-1
 433 508 l 2,65,66
 423 509 423 509 411 514 c 0,67,68
 398 517 398 517 391 524 c 0,69,70
 382 533 382 533 377 544 c 0,71,72
 372 559 372 559 372 575 c 2,73,-1
 372 713 l 1,74,-1
 417 713 l 1,75,-1
 417 584 l 2,76,77
 417 572 417 572 420 564 c 0,78,79
 423 557 423 557 430 553 c 0,80,81
 436 550 436 550 444 548 c 0,82,83
 454 548 454 548 463 547 c 2,84,-1
 468 547 l 2,85,86
 497 547 497 547 508 557 c 0,87,88
 520 568 520 568 520 588 c 2,89,-1
 520 713 l 1,90,-1
 564 713 l 1,56,-1
337 777 m 1,91,-1
 337 510 l 1,92,-1
 272 511 l 1,93,-1
 185 652 l 1,94,-1
 171 678 l 2,95,96
 166 687 166 687 152 715 c 2,97,-1
 143 732 l 1,98,-1
 141 733 l 1,99,-1
 140 732 l 2,100,101
 140 730 140 730 140.5 724.5 c 128,-1,102
 141 719 141 719 141.5 708.5 c 128,-1,103
 142 698 142 698 142 687 c 0,104,105
 143 661 143 661 143 639 c 2,106,-1
 143 511 l 1,107,-1
 97 511 l 1,108,-1
 97 777 l 1,109,-1
 162 777 l 1,110,-1
 251 632 l 1,111,-1
 291 558 l 2,112,113
 293 556 293 556 294 556 c 0,114,115
 295 557 295 557 295 558 c 2,116,-1
 295 562 l 2,117,118
 294 565 294 565 294 576 c 0,119,120
 293 582 293 582 293 596 c 0,121,122
 293 607 293 607 292.5 618 c 128,-1,123
 292 629 292 629 291.5 635 c 128,-1,124
 291 641 291 641 291 644 c 2,125,-1
 291 777 l 1,126,-1
 337 777 l 1,91,-1
150 -57 m 2,127,-1
 830 -57 l 2,128,129
 883 -57 883 -57 921 -19 c 0,130,131
 958 18 958 18 958 71 c 2,132,-1
 958 751 l 2,133,134
 958 805 958 805 921 842 c 128,-1,135
 884 879 884 879 830 879 c 2,136,-1
 150 879 l 2,137,138
 97 879 97 879 60 842 c 0,139,140
 22 804 22 804 22 751 c 2,141,-1
 22 71 l 2,142,143
 22 19 22 19 60 -19 c 128,-1,144
 98 -57 98 -57 150 -57 c 2,127,-1
EndSplineSet
Validated: 2097161
EndChar

